ISO-10303-21;
HEADER;
/* Generated by software containing ST-Developer
 * from STEP Tools, Inc. (www.steptools.com) 
 */

FILE_DESCRIPTION(
/* description */ (''),
/* implementation_level */ '2;1');

FILE_NAME(
/* name */ '',
/* time_stamp */ '2025-04-13T19:33:13+03:00',
/* author */ ('tishk'),
/* organization */ (''),
/* preprocessor_version */ 'ST-DEVELOPER v20',
/* originating_system */ 'Autodesk Inventor 2025',
/* authorisation */ '');

FILE_SCHEMA (('AUTOMOTIVE_DESIGN { 1 0 10303 214 3 1 1 }'));
ENDSEC;

DATA;
#10=MECHANICAL_DESIGN_GEOMETRIC_PRESENTATION_REPRESENTATION('',(#13),#586);
#11=SHAPE_REPRESENTATION_RELATIONSHIP('SRR','None',#593,#12);
#12=ADVANCED_BREP_SHAPE_REPRESENTATION('',(#14),#585);
#13=STYLED_ITEM('',(#602),#14);
#14=MANIFOLD_SOLID_BREP('\X2\04220432043504400434043E0435\X0\ \X2\04420435043B043E\X0\1',
#317);
#15=FACE_BOUND('',#64,.T.);
#16=FACE_BOUND('',#65,.T.);
#17=FACE_BOUND('',#66,.T.);
#18=FACE_BOUND('',#67,.T.);
#19=FACE_BOUND('',#68,.T.);
#20=FACE_BOUND('',#70,.T.);
#21=FACE_BOUND('',#71,.T.);
#22=FACE_BOUND('',#72,.T.);
#23=FACE_BOUND('',#73,.T.);
#24=FACE_BOUND('',#74,.T.);
#25=PLANE('',#355);
#26=PLANE('',#380);
#27=PLANE('',#384);
#28=PLANE('',#385);
#29=FACE_OUTER_BOUND('',#47,.T.);
#30=FACE_OUTER_BOUND('',#48,.T.);
#31=FACE_OUTER_BOUND('',#49,.T.);
#32=FACE_OUTER_BOUND('',#50,.T.);
#33=FACE_OUTER_BOUND('',#51,.T.);
#34=FACE_OUTER_BOUND('',#52,.T.);
#35=FACE_OUTER_BOUND('',#53,.T.);
#36=FACE_OUTER_BOUND('',#54,.T.);
#37=FACE_OUTER_BOUND('',#55,.T.);
#38=FACE_OUTER_BOUND('',#56,.T.);
#39=FACE_OUTER_BOUND('',#57,.T.);
#40=FACE_OUTER_BOUND('',#58,.T.);
#41=FACE_OUTER_BOUND('',#59,.T.);
#42=FACE_OUTER_BOUND('',#60,.T.);
#43=FACE_OUTER_BOUND('',#61,.T.);
#44=FACE_OUTER_BOUND('',#62,.T.);
#45=FACE_OUTER_BOUND('',#63,.T.);
#46=FACE_OUTER_BOUND('',#69,.T.);
#47=EDGE_LOOP('',(#201,#202,#203,#204));
#48=EDGE_LOOP('',(#205,#206,#207,#208));
#49=EDGE_LOOP('',(#209,#210,#211,#212));
#50=EDGE_LOOP('',(#213,#214,#215,#216));
#51=EDGE_LOOP('',(#217,#218,#219,#220));
#52=EDGE_LOOP('',(#221));
#53=EDGE_LOOP('',(#222,#223,#224,#225));
#54=EDGE_LOOP('',(#226,#227,#228,#229));
#55=EDGE_LOOP('',(#230,#231,#232,#233));
#56=EDGE_LOOP('',(#234,#235,#236,#237));
#57=EDGE_LOOP('',(#238,#239,#240,#241));
#58=EDGE_LOOP('',(#242,#243,#244,#245));
#59=EDGE_LOOP('',(#246,#247,#248,#249));
#60=EDGE_LOOP('',(#250,#251,#252,#253));
#61=EDGE_LOOP('',(#254,#255,#256,#257,#258,#259,#260,#261));
#62=EDGE_LOOP('',(#262,#263,#264,#265));
#63=EDGE_LOOP('',(#266));
#64=EDGE_LOOP('',(#267));
#65=EDGE_LOOP('',(#268));
#66=EDGE_LOOP('',(#269));
#67=EDGE_LOOP('',(#270));
#68=EDGE_LOOP('',(#271));
#69=EDGE_LOOP('',(#272));
#70=EDGE_LOOP('',(#273));
#71=EDGE_LOOP('',(#274));
#72=EDGE_LOOP('',(#275));
#73=EDGE_LOOP('',(#276));
#74=EDGE_LOOP('',(#277,#278,#279,#280,#281,#282,#283,#284));
#75=LINE('',#499,#89);
#76=LINE('',#505,#90);
#77=LINE('',#511,#91);
#78=LINE('',#517,#92);
#79=LINE('',#523,#93);
#80=LINE('',#531,#94);
#81=LINE('',#534,#95);
#82=LINE('',#540,#96);
#83=LINE('',#546,#97);
#84=LINE('',#552,#98);
#85=LINE('',#558,#99);
#86=LINE('',#564,#100);
#87=LINE('',#570,#101);
#88=LINE('',#579,#102);
#89=VECTOR('',#392,5.5);
#90=VECTOR('',#399,5.5);
#91=VECTOR('',#406,5.5);
#92=VECTOR('',#413,5.5);
#93=VECTOR('',#420,25.);
#94=VECTOR('',#429,10.);
#95=VECTOR('',#432,10.);
#96=VECTOR('',#439,10.);
#97=VECTOR('',#446,10.);
#98=VECTOR('',#453,10.);
#99=VECTOR('',#460,10.);
#100=VECTOR('',#467,10.);
#101=VECTOR('',#474,10.);
#102=VECTOR('',#487,45.);
#103=CIRCLE('',#341,5.5);
#104=CIRCLE('',#342,5.5);
#105=CIRCLE('',#344,5.5);
#106=CIRCLE('',#345,5.5);
#107=CIRCLE('',#347,5.5);
#108=CIRCLE('',#348,5.5);
#109=CIRCLE('',#350,5.5);
#110=CIRCLE('',#351,5.5);
#111=CIRCLE('',#353,25.);
#112=CIRCLE('',#354,25.);
#113=CIRCLE('',#357,7.5);
#114=CIRCLE('',#358,7.5);
#115=CIRCLE('',#360,30.);
#116=CIRCLE('',#361,30.);
#117=CIRCLE('',#363,7.5);
#118=CIRCLE('',#364,7.5);
#119=CIRCLE('',#366,30.);
#120=CIRCLE('',#367,30.);
#121=CIRCLE('',#369,7.5);
#122=CIRCLE('',#370,7.5);
#123=CIRCLE('',#372,30.);
#124=CIRCLE('',#373,30.);
#125=CIRCLE('',#375,7.5);
#126=CIRCLE('',#376,7.5);
#127=CIRCLE('',#378,30.);
#128=CIRCLE('',#379,30.);
#129=CIRCLE('',#382,45.);
#130=CIRCLE('',#383,45.);
#131=VERTEX_POINT('',#496);
#132=VERTEX_POINT('',#498);
#133=VERTEX_POINT('',#502);
#134=VERTEX_POINT('',#504);
#135=VERTEX_POINT('',#508);
#136=VERTEX_POINT('',#510);
#137=VERTEX_POINT('',#514);
#138=VERTEX_POINT('',#516);
#139=VERTEX_POINT('',#520);
#140=VERTEX_POINT('',#522);
#141=VERTEX_POINT('',#527);
#142=VERTEX_POINT('',#528);
#143=VERTEX_POINT('',#530);
#144=VERTEX_POINT('',#532);
#145=VERTEX_POINT('',#536);
#146=VERTEX_POINT('',#538);
#147=VERTEX_POINT('',#542);
#148=VERTEX_POINT('',#544);
#149=VERTEX_POINT('',#548);
#150=VERTEX_POINT('',#550);
#151=VERTEX_POINT('',#554);
#152=VERTEX_POINT('',#556);
#153=VERTEX_POINT('',#560);
#154=VERTEX_POINT('',#562);
#155=VERTEX_POINT('',#566);
#156=VERTEX_POINT('',#568);
#157=VERTEX_POINT('',#576);
#158=VERTEX_POINT('',#578);
#159=EDGE_CURVE('',#131,#131,#103,.T.);
#160=EDGE_CURVE('',#131,#132,#75,.T.);
#161=EDGE_CURVE('',#132,#132,#104,.T.);
#162=EDGE_CURVE('',#133,#133,#105,.T.);
#163=EDGE_CURVE('',#133,#134,#76,.T.);
#164=EDGE_CURVE('',#134,#134,#106,.T.);
#165=EDGE_CURVE('',#135,#135,#107,.T.);
#166=EDGE_CURVE('',#135,#136,#77,.T.);
#167=EDGE_CURVE('',#136,#136,#108,.T.);
#168=EDGE_CURVE('',#137,#137,#109,.T.);
#169=EDGE_CURVE('',#137,#138,#78,.T.);
#170=EDGE_CURVE('',#138,#138,#110,.T.);
#171=EDGE_CURVE('',#139,#139,#111,.T.);
#172=EDGE_CURVE('',#139,#140,#79,.T.);
#173=EDGE_CURVE('',#140,#140,#112,.T.);
#174=EDGE_CURVE('',#141,#142,#113,.T.);
#175=EDGE_CURVE('',#141,#143,#80,.T.);
#176=EDGE_CURVE('',#144,#143,#114,.T.);
#177=EDGE_CURVE('',#142,#144,#81,.T.);
#178=EDGE_CURVE('',#142,#145,#115,.T.);
#179=EDGE_CURVE('',#146,#144,#116,.T.);
#180=EDGE_CURVE('',#145,#146,#82,.T.);
#181=EDGE_CURVE('',#145,#147,#117,.T.);
#182=EDGE_CURVE('',#148,#146,#118,.T.);
#183=EDGE_CURVE('',#147,#148,#83,.T.);
#184=EDGE_CURVE('',#147,#149,#119,.T.);
#185=EDGE_CURVE('',#150,#148,#120,.T.);
#186=EDGE_CURVE('',#149,#150,#84,.T.);
#187=EDGE_CURVE('',#149,#151,#121,.T.);
#188=EDGE_CURVE('',#152,#150,#122,.T.);
#189=EDGE_CURVE('',#151,#152,#85,.T.);
#190=EDGE_CURVE('',#151,#153,#123,.T.);
#191=EDGE_CURVE('',#154,#152,#124,.T.);
#192=EDGE_CURVE('',#153,#154,#86,.T.);
#193=EDGE_CURVE('',#153,#155,#125,.T.);
#194=EDGE_CURVE('',#156,#154,#126,.T.);
#195=EDGE_CURVE('',#155,#156,#87,.T.);
#196=EDGE_CURVE('',#155,#141,#127,.T.);
#197=EDGE_CURVE('',#143,#156,#128,.T.);
#198=EDGE_CURVE('',#157,#157,#129,.T.);
#199=EDGE_CURVE('',#157,#158,#88,.T.);
#200=EDGE_CURVE('',#158,#158,#130,.T.);
#201=ORIENTED_EDGE('',*,*,#159,.F.);
#202=ORIENTED_EDGE('',*,*,#160,.T.);
#203=ORIENTED_EDGE('',*,*,#161,.F.);
#204=ORIENTED_EDGE('',*,*,#160,.F.);
#205=ORIENTED_EDGE('',*,*,#162,.F.);
#206=ORIENTED_EDGE('',*,*,#163,.T.);
#207=ORIENTED_EDGE('',*,*,#164,.F.);
#208=ORIENTED_EDGE('',*,*,#163,.F.);
#209=ORIENTED_EDGE('',*,*,#165,.F.);
#210=ORIENTED_EDGE('',*,*,#166,.T.);
#211=ORIENTED_EDGE('',*,*,#167,.F.);
#212=ORIENTED_EDGE('',*,*,#166,.F.);
#213=ORIENTED_EDGE('',*,*,#168,.F.);
#214=ORIENTED_EDGE('',*,*,#169,.T.);
#215=ORIENTED_EDGE('',*,*,#170,.F.);
#216=ORIENTED_EDGE('',*,*,#169,.F.);
#217=ORIENTED_EDGE('',*,*,#171,.F.);
#218=ORIENTED_EDGE('',*,*,#172,.T.);
#219=ORIENTED_EDGE('',*,*,#173,.F.);
#220=ORIENTED_EDGE('',*,*,#172,.F.);
#221=ORIENTED_EDGE('',*,*,#171,.T.);
#222=ORIENTED_EDGE('',*,*,#174,.F.);
#223=ORIENTED_EDGE('',*,*,#175,.T.);
#224=ORIENTED_EDGE('',*,*,#176,.F.);
#225=ORIENTED_EDGE('',*,*,#177,.F.);
#226=ORIENTED_EDGE('',*,*,#178,.F.);
#227=ORIENTED_EDGE('',*,*,#177,.T.);
#228=ORIENTED_EDGE('',*,*,#179,.F.);
#229=ORIENTED_EDGE('',*,*,#180,.F.);
#230=ORIENTED_EDGE('',*,*,#181,.F.);
#231=ORIENTED_EDGE('',*,*,#180,.T.);
#232=ORIENTED_EDGE('',*,*,#182,.F.);
#233=ORIENTED_EDGE('',*,*,#183,.F.);
#234=ORIENTED_EDGE('',*,*,#184,.F.);
#235=ORIENTED_EDGE('',*,*,#183,.T.);
#236=ORIENTED_EDGE('',*,*,#185,.F.);
#237=ORIENTED_EDGE('',*,*,#186,.F.);
#238=ORIENTED_EDGE('',*,*,#187,.F.);
#239=ORIENTED_EDGE('',*,*,#186,.T.);
#240=ORIENTED_EDGE('',*,*,#188,.F.);
#241=ORIENTED_EDGE('',*,*,#189,.F.);
#242=ORIENTED_EDGE('',*,*,#190,.F.);
#243=ORIENTED_EDGE('',*,*,#189,.T.);
#244=ORIENTED_EDGE('',*,*,#191,.F.);
#245=ORIENTED_EDGE('',*,*,#192,.F.);
#246=ORIENTED_EDGE('',*,*,#193,.F.);
#247=ORIENTED_EDGE('',*,*,#192,.T.);
#248=ORIENTED_EDGE('',*,*,#194,.F.);
#249=ORIENTED_EDGE('',*,*,#195,.F.);
#250=ORIENTED_EDGE('',*,*,#196,.F.);
#251=ORIENTED_EDGE('',*,*,#195,.T.);
#252=ORIENTED_EDGE('',*,*,#197,.F.);
#253=ORIENTED_EDGE('',*,*,#175,.F.);
#254=ORIENTED_EDGE('',*,*,#197,.T.);
#255=ORIENTED_EDGE('',*,*,#194,.T.);
#256=ORIENTED_EDGE('',*,*,#191,.T.);
#257=ORIENTED_EDGE('',*,*,#188,.T.);
#258=ORIENTED_EDGE('',*,*,#185,.T.);
#259=ORIENTED_EDGE('',*,*,#182,.T.);
#260=ORIENTED_EDGE('',*,*,#179,.T.);
#261=ORIENTED_EDGE('',*,*,#176,.T.);
#262=ORIENTED_EDGE('',*,*,#198,.F.);
#263=ORIENTED_EDGE('',*,*,#199,.T.);
#264=ORIENTED_EDGE('',*,*,#200,.T.);
#265=ORIENTED_EDGE('',*,*,#199,.F.);
#266=ORIENTED_EDGE('',*,*,#198,.T.);
#267=ORIENTED_EDGE('',*,*,#159,.T.);
#268=ORIENTED_EDGE('',*,*,#162,.T.);
#269=ORIENTED_EDGE('',*,*,#165,.T.);
#270=ORIENTED_EDGE('',*,*,#168,.T.);
#271=ORIENTED_EDGE('',*,*,#173,.T.);
#272=ORIENTED_EDGE('',*,*,#200,.F.);
#273=ORIENTED_EDGE('',*,*,#161,.T.);
#274=ORIENTED_EDGE('',*,*,#164,.T.);
#275=ORIENTED_EDGE('',*,*,#167,.T.);
#276=ORIENTED_EDGE('',*,*,#170,.T.);
#277=ORIENTED_EDGE('',*,*,#174,.T.);
#278=ORIENTED_EDGE('',*,*,#178,.T.);
#279=ORIENTED_EDGE('',*,*,#181,.T.);
#280=ORIENTED_EDGE('',*,*,#184,.T.);
#281=ORIENTED_EDGE('',*,*,#187,.T.);
#282=ORIENTED_EDGE('',*,*,#190,.T.);
#283=ORIENTED_EDGE('',*,*,#193,.T.);
#284=ORIENTED_EDGE('',*,*,#196,.T.);
#285=CYLINDRICAL_SURFACE('',#340,5.5);
#286=CYLINDRICAL_SURFACE('',#343,5.5);
#287=CYLINDRICAL_SURFACE('',#346,5.5);
#288=CYLINDRICAL_SURFACE('',#349,5.5);
#289=CYLINDRICAL_SURFACE('',#352,25.);
#290=CYLINDRICAL_SURFACE('',#356,7.5);
#291=CYLINDRICAL_SURFACE('',#359,30.);
#292=CYLINDRICAL_SURFACE('',#362,7.5);
#293=CYLINDRICAL_SURFACE('',#365,30.);
#294=CYLINDRICAL_SURFACE('',#368,7.5);
#295=CYLINDRICAL_SURFACE('',#371,30.);
#296=CYLINDRICAL_SURFACE('',#374,7.5);
#297=CYLINDRICAL_SURFACE('',#377,30.);
#298=CYLINDRICAL_SURFACE('',#381,45.);
#299=ADVANCED_FACE('',(#29),#285,.F.);
#300=ADVANCED_FACE('',(#30),#286,.F.);
#301=ADVANCED_FACE('',(#31),#287,.F.);
#302=ADVANCED_FACE('',(#32),#288,.F.);
#303=ADVANCED_FACE('',(#33),#289,.T.);
#304=ADVANCED_FACE('',(#34),#25,.T.);
#305=ADVANCED_FACE('',(#35),#290,.T.);
#306=ADVANCED_FACE('',(#36),#291,.T.);
#307=ADVANCED_FACE('',(#37),#292,.T.);
#308=ADVANCED_FACE('',(#38),#293,.T.);
#309=ADVANCED_FACE('',(#39),#294,.T.);
#310=ADVANCED_FACE('',(#40),#295,.T.);
#311=ADVANCED_FACE('',(#41),#296,.T.);
#312=ADVANCED_FACE('',(#42),#297,.T.);
#313=ADVANCED_FACE('',(#43),#26,.T.);
#314=ADVANCED_FACE('',(#44),#298,.T.);
#315=ADVANCED_FACE('',(#45,#15,#16,#17,#18,#19),#27,.T.);
#316=ADVANCED_FACE('',(#46,#20,#21,#22,#23,#24),#28,.F.);
#317=CLOSED_SHELL('',(#299,#300,#301,#302,#303,#304,#305,#306,#307,#308,
#309,#310,#311,#312,#313,#314,#315,#316));
#318=DERIVED_UNIT_ELEMENT(#321,1.);
#319=DERIVED_UNIT_ELEMENT(#588,-3.);
#320=DIMENSIONAL_EXPONENTS(0.,1.,0.,0.,0.,0.,0.);
#321=(
CONVERSION_BASED_UNIT('gram',#323)
MASS_UNIT()
NAMED_UNIT(#320)
);
#322=(
MASS_UNIT()
NAMED_UNIT(*)
SI_UNIT(.KILO.,.GRAM.)
);
#323=MASS_MEASURE_WITH_UNIT(MASS_MEASURE(0.001),#322);
#324=DERIVED_UNIT((#318,#319));
#325=MEASURE_REPRESENTATION_ITEM('density measure',
POSITIVE_RATIO_MEASURE(7.85),#324);
#326=PROPERTY_DEFINITION_REPRESENTATION(#331,#328);
#327=PROPERTY_DEFINITION_REPRESENTATION(#332,#329);
#328=REPRESENTATION('material name',(#330),#585);
#329=REPRESENTATION('density',(#325),#585);
#330=DESCRIPTIVE_REPRESENTATION_ITEM('\X2\042104420430043B044C\X0\, \X2\043B0438044204350439043D0430044F\X0\',
'\X2\042104420430043B044C\X0\, \X2\043B0438044204350439043D0430044F\X0\');
#331=PROPERTY_DEFINITION('material property','material name',#595);
#332=PROPERTY_DEFINITION('material property','density of part',#595);
#333=DATE_TIME_ROLE('creation_date');
#334=APPLIED_DATE_AND_TIME_ASSIGNMENT(#335,#333,(#595));
#335=DATE_AND_TIME(#336,#337);
#336=CALENDAR_DATE(2025,1,3);
#337=LOCAL_TIME(0,0,0.,#338);
#338=COORDINATED_UNIVERSAL_TIME_OFFSET(0,0,.BEHIND.);
#339=AXIS2_PLACEMENT_3D('',#494,#386,#387);
#340=AXIS2_PLACEMENT_3D('',#495,#388,#389);
#341=AXIS2_PLACEMENT_3D('',#497,#390,#391);
#342=AXIS2_PLACEMENT_3D('',#500,#393,#394);
#343=AXIS2_PLACEMENT_3D('',#501,#395,#396);
#344=AXIS2_PLACEMENT_3D('',#503,#397,#398);
#345=AXIS2_PLACEMENT_3D('',#506,#400,#401);
#346=AXIS2_PLACEMENT_3D('',#507,#402,#403);
#347=AXIS2_PLACEMENT_3D('',#509,#404,#405);
#348=AXIS2_PLACEMENT_3D('',#512,#407,#408);
#349=AXIS2_PLACEMENT_3D('',#513,#409,#410);
#350=AXIS2_PLACEMENT_3D('',#515,#411,#412);
#351=AXIS2_PLACEMENT_3D('',#518,#414,#415);
#352=AXIS2_PLACEMENT_3D('',#519,#416,#417);
#353=AXIS2_PLACEMENT_3D('',#521,#418,#419);
#354=AXIS2_PLACEMENT_3D('',#524,#421,#422);
#355=AXIS2_PLACEMENT_3D('',#525,#423,#424);
#356=AXIS2_PLACEMENT_3D('',#526,#425,#426);
#357=AXIS2_PLACEMENT_3D('',#529,#427,#428);
#358=AXIS2_PLACEMENT_3D('',#533,#430,#431);
#359=AXIS2_PLACEMENT_3D('',#535,#433,#434);
#360=AXIS2_PLACEMENT_3D('',#537,#435,#436);
#361=AXIS2_PLACEMENT_3D('',#539,#437,#438);
#362=AXIS2_PLACEMENT_3D('',#541,#440,#441);
#363=AXIS2_PLACEMENT_3D('',#543,#442,#443);
#364=AXIS2_PLACEMENT_3D('',#545,#444,#445);
#365=AXIS2_PLACEMENT_3D('',#547,#447,#448);
#366=AXIS2_PLACEMENT_3D('',#549,#449,#450);
#367=AXIS2_PLACEMENT_3D('',#551,#451,#452);
#368=AXIS2_PLACEMENT_3D('',#553,#454,#455);
#369=AXIS2_PLACEMENT_3D('',#555,#456,#457);
#370=AXIS2_PLACEMENT_3D('',#557,#458,#459);
#371=AXIS2_PLACEMENT_3D('',#559,#461,#462);
#372=AXIS2_PLACEMENT_3D('',#561,#463,#464);
#373=AXIS2_PLACEMENT_3D('',#563,#465,#466);
#374=AXIS2_PLACEMENT_3D('',#565,#468,#469);
#375=AXIS2_PLACEMENT_3D('',#567,#470,#471);
#376=AXIS2_PLACEMENT_3D('',#569,#472,#473);
#377=AXIS2_PLACEMENT_3D('',#571,#475,#476);
#378=AXIS2_PLACEMENT_3D('',#572,#477,#478);
#379=AXIS2_PLACEMENT_3D('',#573,#479,#480);
#380=AXIS2_PLACEMENT_3D('',#574,#481,#482);
#381=AXIS2_PLACEMENT_3D('',#575,#483,#484);
#382=AXIS2_PLACEMENT_3D('',#577,#485,#486);
#383=AXIS2_PLACEMENT_3D('',#580,#488,#489);
#384=AXIS2_PLACEMENT_3D('',#581,#490,#491);
#385=AXIS2_PLACEMENT_3D('',#582,#492,#493);
#386=DIRECTION('axis',(0.,0.,1.));
#387=DIRECTION('refdir',(1.,0.,0.));
#388=DIRECTION('center_axis',(0.,1.,0.));
#389=DIRECTION('ref_axis',(1.,0.,0.));
#390=DIRECTION('center_axis',(0.,-1.,0.));
#391=DIRECTION('ref_axis',(1.,0.,0.));
#392=DIRECTION('',(0.,-1.,0.));
#393=DIRECTION('center_axis',(0.,1.,0.));
#394=DIRECTION('ref_axis',(1.,0.,0.));
#395=DIRECTION('center_axis',(0.,1.,0.));
#396=DIRECTION('ref_axis',(1.,0.,0.));
#397=DIRECTION('center_axis',(0.,-1.,0.));
#398=DIRECTION('ref_axis',(1.,0.,0.));
#399=DIRECTION('',(0.,-1.,0.));
#400=DIRECTION('center_axis',(0.,1.,0.));
#401=DIRECTION('ref_axis',(1.,0.,0.));
#402=DIRECTION('center_axis',(0.,1.,0.));
#403=DIRECTION('ref_axis',(1.,0.,0.));
#404=DIRECTION('center_axis',(0.,-1.,0.));
#405=DIRECTION('ref_axis',(1.,0.,0.));
#406=DIRECTION('',(0.,-1.,0.));
#407=DIRECTION('center_axis',(0.,1.,0.));
#408=DIRECTION('ref_axis',(1.,0.,0.));
#409=DIRECTION('center_axis',(0.,1.,0.));
#410=DIRECTION('ref_axis',(1.,0.,0.));
#411=DIRECTION('center_axis',(0.,-1.,0.));
#412=DIRECTION('ref_axis',(1.,0.,0.));
#413=DIRECTION('',(0.,-1.,0.));
#414=DIRECTION('center_axis',(0.,1.,0.));
#415=DIRECTION('ref_axis',(1.,0.,0.));
#416=DIRECTION('center_axis',(0.,1.,0.));
#417=DIRECTION('ref_axis',(1.,0.,0.));
#418=DIRECTION('center_axis',(0.,1.,0.));
#419=DIRECTION('ref_axis',(1.,0.,0.));
#420=DIRECTION('',(0.,-1.,0.));
#421=DIRECTION('center_axis',(0.,-1.,0.));
#422=DIRECTION('ref_axis',(1.,0.,0.));
#423=DIRECTION('center_axis',(0.,1.,0.));
#424=DIRECTION('ref_axis',(0.,0.,1.));
#425=DIRECTION('center_axis',(0.,-1.,0.));
#426=DIRECTION('ref_axis',(-0.707106781186548,0.,-0.707106781186547));
#427=DIRECTION('center_axis',(0.,1.,0.));
#428=DIRECTION('ref_axis',(-0.613172412371795,0.,0.789949107668433));
#429=DIRECTION('',(0.,-1.,0.));
#430=DIRECTION('center_axis',(0.,-1.,0.));
#431=DIRECTION('ref_axis',(-0.613172412371795,0.,0.789949107668433));
#432=DIRECTION('',(0.,-1.,0.));
#433=DIRECTION('center_axis',(0.,-1.,0.));
#434=DIRECTION('ref_axis',(-1.,0.,1.22464679914735E-16));
#435=DIRECTION('center_axis',(0.,1.,0.));
#436=DIRECTION('ref_axis',(1.,0.,0.));
#437=DIRECTION('center_axis',(0.,-1.,0.));
#438=DIRECTION('ref_axis',(1.,0.,0.));
#439=DIRECTION('',(0.,-1.,0.));
#440=DIRECTION('center_axis',(0.,-1.,0.));
#441=DIRECTION('ref_axis',(-0.707106781186547,0.,0.707106781186547));
#442=DIRECTION('center_axis',(0.,1.,0.));
#443=DIRECTION('ref_axis',(0.789949107668432,0.,0.613172412371796));
#444=DIRECTION('center_axis',(0.,-1.,0.));
#445=DIRECTION('ref_axis',(0.789949107668432,0.,0.613172412371796));
#446=DIRECTION('',(0.,-1.,0.));
#447=DIRECTION('center_axis',(0.,-1.,0.));
#448=DIRECTION('ref_axis',(1.,0.,0.));
#449=DIRECTION('center_axis',(0.,1.,0.));
#450=DIRECTION('ref_axis',(1.,0.,0.));
#451=DIRECTION('center_axis',(0.,-1.,0.));
#452=DIRECTION('ref_axis',(1.,0.,0.));
#453=DIRECTION('',(0.,-1.,0.));
#454=DIRECTION('center_axis',(0.,-1.,0.));
#455=DIRECTION('ref_axis',(0.707106781186548,0.,0.707106781186547));
#456=DIRECTION('center_axis',(0.,1.,0.));
#457=DIRECTION('ref_axis',(0.613172412371795,0.,-0.789949107668433));
#458=DIRECTION('center_axis',(0.,-1.,0.));
#459=DIRECTION('ref_axis',(0.613172412371795,0.,-0.789949107668433));
#460=DIRECTION('',(0.,-1.,0.));
#461=DIRECTION('center_axis',(0.,-1.,0.));
#462=DIRECTION('ref_axis',(1.,0.,0.));
#463=DIRECTION('center_axis',(0.,1.,0.));
#464=DIRECTION('ref_axis',(1.,0.,0.));
#465=DIRECTION('center_axis',(0.,-1.,0.));
#466=DIRECTION('ref_axis',(1.,0.,0.));
#467=DIRECTION('',(0.,-1.,0.));
#468=DIRECTION('center_axis',(0.,-1.,0.));
#469=DIRECTION('ref_axis',(0.707106781186547,0.,-0.707106781186548));
#470=DIRECTION('center_axis',(0.,1.,0.));
#471=DIRECTION('ref_axis',(-0.789949107668433,0.,-0.613172412371795));
#472=DIRECTION('center_axis',(0.,-1.,0.));
#473=DIRECTION('ref_axis',(-0.789949107668433,0.,-0.613172412371795));
#474=DIRECTION('',(0.,-1.,0.));
#475=DIRECTION('center_axis',(0.,-1.,0.));
#476=DIRECTION('ref_axis',(1.,0.,0.));
#477=DIRECTION('center_axis',(0.,1.,0.));
#478=DIRECTION('ref_axis',(1.,0.,0.));
#479=DIRECTION('center_axis',(0.,-1.,0.));
#480=DIRECTION('ref_axis',(1.,0.,0.));
#481=DIRECTION('center_axis',(0.,-1.,0.));
#482=DIRECTION('ref_axis',(0.,0.,-1.));
#483=DIRECTION('center_axis',(0.,1.,0.));
#484=DIRECTION('ref_axis',(-1.,0.,0.));
#485=DIRECTION('center_axis',(0.,1.,0.));
#486=DIRECTION('ref_axis',(-1.,0.,0.));
#487=DIRECTION('',(0.,-1.,0.));
#488=DIRECTION('center_axis',(0.,1.,0.));
#489=DIRECTION('ref_axis',(-1.,0.,0.));
#490=DIRECTION('center_axis',(0.,1.,0.));
#491=DIRECTION('ref_axis',(0.,0.,1.));
#492=DIRECTION('center_axis',(0.,1.,0.));
#493=DIRECTION('ref_axis',(0.,0.,1.));
#494=CARTESIAN_POINT('',(0.,0.,0.));
#495=CARTESIAN_POINT('Origin',(4.44089209850063E-15,-135.332963783729,-37.));
#496=CARTESIAN_POINT('',(-5.5,15.,-37.));
#497=CARTESIAN_POINT('Origin',(4.44089209850063E-15,15.,-37.));
#498=CARTESIAN_POINT('',(-5.5,0.,-37.));
#499=CARTESIAN_POINT('',(-5.5,-135.332963783729,-37.));
#500=CARTESIAN_POINT('Origin',(4.44089209850063E-15,0.,-37.));
#501=CARTESIAN_POINT('Origin',(-37.,-135.332963783729,0.));
#502=CARTESIAN_POINT('',(-42.5,15.,6.73555739531044E-16));
#503=CARTESIAN_POINT('Origin',(-37.,15.,0.));
#504=CARTESIAN_POINT('',(-42.5,0.,6.73555739531044E-16));
#505=CARTESIAN_POINT('',(-42.5,-135.332963783729,6.73555739531044E-16));
#506=CARTESIAN_POINT('Origin',(-37.,0.,0.));
#507=CARTESIAN_POINT('Origin',(4.44089209850063E-15,-135.332963783729,37.));
#508=CARTESIAN_POINT('',(-5.5,15.,37.));
#509=CARTESIAN_POINT('Origin',(4.44089209850063E-15,15.,37.));
#510=CARTESIAN_POINT('',(-5.5,0.,37.));
#511=CARTESIAN_POINT('',(-5.5,-135.332963783729,37.));
#512=CARTESIAN_POINT('Origin',(4.44089209850063E-15,0.,37.));
#513=CARTESIAN_POINT('Origin',(37.,-135.332963783729,0.));
#514=CARTESIAN_POINT('',(31.5,15.,6.73555739531044E-16));
#515=CARTESIAN_POINT('Origin',(37.,15.,0.));
#516=CARTESIAN_POINT('',(31.5,0.,6.73555739531044E-16));
#517=CARTESIAN_POINT('',(31.5,-135.332963783729,6.73555739531044E-16));
#518=CARTESIAN_POINT('Origin',(37.,0.,0.));
#519=CARTESIAN_POINT('Origin',(0.,15.,0.));
#520=CARTESIAN_POINT('',(-25.,50.,3.06161699786838E-15));
#521=CARTESIAN_POINT('Origin',(0.,50.,0.));
#522=CARTESIAN_POINT('',(-25.,15.,3.06161699786838E-15));
#523=CARTESIAN_POINT('',(-25.,15.,3.06161699786838E-15));
#524=CARTESIAN_POINT('Origin',(0.,15.,0.));
#525=CARTESIAN_POINT('Origin',(0.,50.,0.));
#526=CARTESIAN_POINT('Origin',(-21.2132034355964,0.,-21.2132034355964));
#527=CARTESIAN_POINT('',(-15.2885851280832,0.,-25.8119965283849));
#528=CARTESIAN_POINT('',(-25.8119965283849,0.,-15.2885851280832));
#529=CARTESIAN_POINT('Origin',(-21.2132034355964,0.,-21.2132034355964));
#530=CARTESIAN_POINT('',(-15.2885851280832,-30.,-25.8119965283849));
#531=CARTESIAN_POINT('',(-15.2885851280832,0.,-25.8119965283849));
#532=CARTESIAN_POINT('',(-25.8119965283849,-30.,-15.2885851280832));
#533=CARTESIAN_POINT('Origin',(-21.2132034355964,-30.,-21.2132034355964));
#534=CARTESIAN_POINT('',(-25.8119965283849,0.,-15.2885851280832));
#535=CARTESIAN_POINT('Origin',(0.,0.,0.));
#536=CARTESIAN_POINT('',(-25.8119965283849,0.,15.2885851280832));
#537=CARTESIAN_POINT('Origin',(0.,0.,0.));
#538=CARTESIAN_POINT('',(-25.8119965283849,-30.,15.2885851280832));
#539=CARTESIAN_POINT('Origin',(0.,-30.,0.));
#540=CARTESIAN_POINT('',(-25.8119965283849,0.,15.2885851280832));
#541=CARTESIAN_POINT('Origin',(-21.2132034355964,0.,21.2132034355964));
#542=CARTESIAN_POINT('',(-15.2885851280832,0.,25.8119965283849));
#543=CARTESIAN_POINT('Origin',(-21.2132034355964,0.,21.2132034355964));
#544=CARTESIAN_POINT('',(-15.2885851280832,-30.,25.8119965283849));
#545=CARTESIAN_POINT('Origin',(-21.2132034355964,-30.,21.2132034355964));
#546=CARTESIAN_POINT('',(-15.2885851280832,0.,25.8119965283849));
#547=CARTESIAN_POINT('Origin',(0.,0.,0.));
#548=CARTESIAN_POINT('',(15.2885851280832,0.,25.8119965283849));
#549=CARTESIAN_POINT('Origin',(0.,0.,0.));
#550=CARTESIAN_POINT('',(15.2885851280832,-30.,25.8119965283849));
#551=CARTESIAN_POINT('Origin',(0.,-30.,0.));
#552=CARTESIAN_POINT('',(15.2885851280832,0.,25.8119965283849));
#553=CARTESIAN_POINT('Origin',(21.2132034355964,0.,21.2132034355964));
#554=CARTESIAN_POINT('',(25.8119965283849,0.,15.2885851280832));
#555=CARTESIAN_POINT('Origin',(21.2132034355964,0.,21.2132034355964));
#556=CARTESIAN_POINT('',(25.8119965283849,-30.,15.2885851280832));
#557=CARTESIAN_POINT('Origin',(21.2132034355964,-30.,21.2132034355964));
#558=CARTESIAN_POINT('',(25.8119965283849,0.,15.2885851280832));
#559=CARTESIAN_POINT('Origin',(0.,0.,0.));
#560=CARTESIAN_POINT('',(25.8119965283849,0.,-15.2885851280832));
#561=CARTESIAN_POINT('Origin',(0.,0.,0.));
#562=CARTESIAN_POINT('',(25.8119965283849,-30.,-15.2885851280832));
#563=CARTESIAN_POINT('Origin',(0.,-30.,0.));
#564=CARTESIAN_POINT('',(25.8119965283849,0.,-15.2885851280832));
#565=CARTESIAN_POINT('Origin',(21.2132034355964,0.,-21.2132034355964));
#566=CARTESIAN_POINT('',(15.2885851280832,0.,-25.8119965283849));
#567=CARTESIAN_POINT('Origin',(21.2132034355964,0.,-21.2132034355964));
#568=CARTESIAN_POINT('',(15.2885851280832,-30.,-25.8119965283849));
#569=CARTESIAN_POINT('Origin',(21.2132034355964,-30.,-21.2132034355964));
#570=CARTESIAN_POINT('',(15.2885851280832,0.,-25.8119965283849));
#571=CARTESIAN_POINT('Origin',(0.,0.,0.));
#572=CARTESIAN_POINT('Origin',(0.,0.,0.));
#573=CARTESIAN_POINT('Origin',(0.,-30.,0.));
#574=CARTESIAN_POINT('Origin',(0.,-30.,0.));
#575=CARTESIAN_POINT('Origin',(0.,0.,0.));
#576=CARTESIAN_POINT('',(45.,15.,-5.51091059616309E-15));
#577=CARTESIAN_POINT('Origin',(0.,15.,0.));
#578=CARTESIAN_POINT('',(45.,0.,-5.51091059616309E-15));
#579=CARTESIAN_POINT('',(45.,0.,-5.51091059616309E-15));
#580=CARTESIAN_POINT('Origin',(0.,0.,0.));
#581=CARTESIAN_POINT('Origin',(0.,15.,0.));
#582=CARTESIAN_POINT('Origin',(0.,0.,0.));
#583=UNCERTAINTY_MEASURE_WITH_UNIT(LENGTH_MEASURE(0.01),#587,
'DISTANCE_ACCURACY_VALUE',
'Maximum model space distance between geometric entities at asserted c
onnectivities');
#584=UNCERTAINTY_MEASURE_WITH_UNIT(LENGTH_MEASURE(0.01),#587,
'DISTANCE_ACCURACY_VALUE',
'Maximum model space distance between geometric entities at asserted c
onnectivities');
#585=(
GEOMETRIC_REPRESENTATION_CONTEXT(3)
GLOBAL_UNCERTAINTY_ASSIGNED_CONTEXT((#583))
GLOBAL_UNIT_ASSIGNED_CONTEXT((#587,#589,#590))
REPRESENTATION_CONTEXT('','3D')
);
#586=(
GEOMETRIC_REPRESENTATION_CONTEXT(3)
GLOBAL_UNCERTAINTY_ASSIGNED_CONTEXT((#584))
GLOBAL_UNIT_ASSIGNED_CONTEXT((#587,#589,#590))
REPRESENTATION_CONTEXT('','3D')
);
#587=(
LENGTH_UNIT()
NAMED_UNIT(*)
SI_UNIT(.MILLI.,.METRE.)
);
#588=(
LENGTH_UNIT()
NAMED_UNIT(*)
SI_UNIT(.CENTI.,.METRE.)
);
#589=(
NAMED_UNIT(*)
PLANE_ANGLE_UNIT()
SI_UNIT($,.RADIAN.)
);
#590=(
NAMED_UNIT(*)
SI_UNIT($,.STERADIAN.)
SOLID_ANGLE_UNIT()
);
#591=SHAPE_DEFINITION_REPRESENTATION(#592,#593);
#592=PRODUCT_DEFINITION_SHAPE('',$,#595);
#593=SHAPE_REPRESENTATION('',(#339),#585);
#594=PRODUCT_DEFINITION_CONTEXT('part definition',#599,'design');
#595=PRODUCT_DEFINITION('\X2\041A04400435043F043B0435043D04380435041104300440043004310430043D0430\X0\',
'\X2\041A04400435043F043B0435043D04380435\X0\ \X2\041104300440043004310430043D0430\X0\',
#596,#594);
#596=PRODUCT_DEFINITION_FORMATION('',$,#601);
#597=PRODUCT_RELATED_PRODUCT_CATEGORY(
'\X2\041A04400435043F043B0435043D04380435\X0\ \X2\041104300440043004310430043D0430\X0\',
'\X2\041A04400435043F043B0435043D04380435\X0\ \X2\041104300440043004310430043D0430\X0\',
(#601));
#598=APPLICATION_PROTOCOL_DEFINITION('international standard',
'automotive_design',2009,#599);
#599=APPLICATION_CONTEXT(
'Core Data for Automotive Mechanical Design Process');
#600=PRODUCT_CONTEXT('part definition',#599,'mechanical');
#601=PRODUCT('\X2\041A04400435043F043B0435043D04380435041104300440043004310430043D0430\X0\',
'\X2\041A04400435043F043B0435043D04380435\X0\ \X2\041104300440043004310430043D0430\X0\',
$,(#600));
#602=PRESENTATION_STYLE_ASSIGNMENT((#603));
#603=SURFACE_STYLE_USAGE(.BOTH.,#606);
#604=SURFACE_STYLE_RENDERING_WITH_PROPERTIES($,#610,(#605));
#605=SURFACE_STYLE_TRANSPARENT(0.);
#606=SURFACE_SIDE_STYLE('',(#607,#604));
#607=SURFACE_STYLE_FILL_AREA(#608);
#608=FILL_AREA_STYLE('',(#609));
#609=FILL_AREA_STYLE_COLOUR('',#610);
#610=COLOUR_RGB('',0.745098039215686,0.737254901960784,0.729411764705882);
ENDSEC;
END-ISO-10303-21;
