ISO-10303-21;
HEADER;
/* Generated by software containing ST-Developer
 * from STEP Tools, Inc. (www.steptools.com) 
 */

FILE_DESCRIPTION(
/* description */ (''),
/* implementation_level */ '2;1');

FILE_NAME(
/* name */ '',
/* time_stamp */ '2025-04-13T22:33:30+03:00',
/* author */ ('tishk'),
/* organization */ (''),
/* preprocessor_version */ 'ST-DEVELOPER v20',
/* originating_system */ 'Autodesk Inventor 2025',
/* authorisation */ '');

FILE_SCHEMA (('AUTOMOTIVE_DESIGN { 1 0 10303 214 3 1 1 }'));
ENDSEC;

DATA;
#10=MECHANICAL_DESIGN_GEOMETRIC_PRESENTATION_REPRESENTATION('',(#13),#416);
#11=SHAPE_REPRESENTATION_RELATIONSHIP('SRR','None',#423,#12);
#12=ADVANCED_BREP_SHAPE_REPRESENTATION('',(#14),#415);
#13=STYLED_ITEM('',(#432),#14);
#14=MANIFOLD_SOLID_BREP('\X2\04220432043504400434043E0435\X0\ \X2\04420435043B043E\X0\1',
#231);
#15=FACE_BOUND('',#41,.T.);
#16=FACE_BOUND('',#52,.T.);
#17=FACE_BOUND('',#53,.T.);
#18=PLANE('',#257);
#19=PLANE('',#258);
#20=PLANE('',#265);
#21=PLANE('',#268);
#22=PLANE('',#274);
#23=PLANE('',#277);
#24=PLANE('',#278);
#25=FACE_OUTER_BOUND('',#38,.T.);
#26=FACE_OUTER_BOUND('',#39,.T.);
#27=FACE_OUTER_BOUND('',#40,.T.);
#28=FACE_OUTER_BOUND('',#42,.T.);
#29=FACE_OUTER_BOUND('',#43,.T.);
#30=FACE_OUTER_BOUND('',#44,.T.);
#31=FACE_OUTER_BOUND('',#45,.T.);
#32=FACE_OUTER_BOUND('',#46,.T.);
#33=FACE_OUTER_BOUND('',#47,.T.);
#34=FACE_OUTER_BOUND('',#48,.T.);
#35=FACE_OUTER_BOUND('',#49,.T.);
#36=FACE_OUTER_BOUND('',#50,.T.);
#37=FACE_OUTER_BOUND('',#51,.T.);
#38=EDGE_LOOP('',(#152,#153,#154,#155));
#39=EDGE_LOOP('',(#156,#157,#158,#159));
#40=EDGE_LOOP('',(#160,#161,#162,#163,#164,#165,#166,#167));
#41=EDGE_LOOP('',(#168));
#42=EDGE_LOOP('',(#169,#170,#171,#172));
#43=EDGE_LOOP('',(#173,#174,#175,#176));
#44=EDGE_LOOP('',(#177,#178,#179,#180));
#45=EDGE_LOOP('',(#181,#182,#183,#184));
#46=EDGE_LOOP('',(#185,#186,#187,#188));
#47=EDGE_LOOP('',(#189,#190,#191,#192));
#48=EDGE_LOOP('',(#193));
#49=EDGE_LOOP('',(#194,#195,#196,#197));
#50=EDGE_LOOP('',(#198,#199,#200,#201));
#51=EDGE_LOOP('',(#202,#203,#204,#205,#206,#207,#208,#209));
#52=EDGE_LOOP('',(#210));
#53=EDGE_LOOP('',(#211));
#54=LINE('',#355,#72);
#55=LINE('',#358,#73);
#56=LINE('',#361,#74);
#57=LINE('',#363,#75);
#58=LINE('',#364,#76);
#59=LINE('',#367,#77);
#60=LINE('',#371,#78);
#61=LINE('',#375,#79);
#62=LINE('',#382,#80);
#63=LINE('',#385,#81);
#64=LINE('',#386,#82);
#65=LINE('',#390,#83);
#66=LINE('',#393,#84);
#67=LINE('',#394,#85);
#68=LINE('',#398,#86);
#69=LINE('',#403,#87);
#70=LINE('',#409,#88);
#71=LINE('',#411,#89);
#72=VECTOR('',#285,10.);
#73=VECTOR('',#288,10.);
#74=VECTOR('',#291,10.);
#75=VECTOR('',#292,10.);
#76=VECTOR('',#293,10.);
#77=VECTOR('',#296,10.);
#78=VECTOR('',#299,10.);
#79=VECTOR('',#302,10.);
#80=VECTOR('',#311,10.);
#81=VECTOR('',#314,10.);
#82=VECTOR('',#315,10.);
#83=VECTOR('',#320,10.);
#84=VECTOR('',#323,10.);
#85=VECTOR('',#324,10.);
#86=VECTOR('',#329,10.);
#87=VECTOR('',#334,5.);
#88=VECTOR('',#343,4.);
#89=VECTOR('',#346,10.);
#90=CIRCLE('',#255,7.5);
#91=CIRCLE('',#256,7.5);
#92=CIRCLE('',#259,7.5);
#93=CIRCLE('',#260,7.5);
#94=CIRCLE('',#261,7.5);
#95=CIRCLE('',#262,4.);
#96=CIRCLE('',#264,7.5);
#97=CIRCLE('',#267,7.5);
#98=CIRCLE('',#270,7.5);
#99=CIRCLE('',#272,5.);
#100=CIRCLE('',#273,5.);
#101=CIRCLE('',#276,4.);
#102=VERTEX_POINT('',#351);
#103=VERTEX_POINT('',#352);
#104=VERTEX_POINT('',#354);
#105=VERTEX_POINT('',#356);
#106=VERTEX_POINT('',#360);
#107=VERTEX_POINT('',#362);
#108=VERTEX_POINT('',#366);
#109=VERTEX_POINT('',#368);
#110=VERTEX_POINT('',#370);
#111=VERTEX_POINT('',#372);
#112=VERTEX_POINT('',#374);
#113=VERTEX_POINT('',#377);
#114=VERTEX_POINT('',#380);
#115=VERTEX_POINT('',#384);
#116=VERTEX_POINT('',#388);
#117=VERTEX_POINT('',#392);
#118=VERTEX_POINT('',#396);
#119=VERTEX_POINT('',#400);
#120=VERTEX_POINT('',#402);
#121=VERTEX_POINT('',#407);
#122=EDGE_CURVE('',#102,#103,#90,.T.);
#123=EDGE_CURVE('',#103,#104,#54,.T.);
#124=EDGE_CURVE('',#104,#105,#91,.T.);
#125=EDGE_CURVE('',#105,#102,#55,.T.);
#126=EDGE_CURVE('',#105,#106,#56,.T.);
#127=EDGE_CURVE('',#107,#106,#57,.T.);
#128=EDGE_CURVE('',#102,#107,#58,.T.);
#129=EDGE_CURVE('',#108,#104,#59,.T.);
#130=EDGE_CURVE('',#109,#108,#92,.T.);
#131=EDGE_CURVE('',#110,#109,#60,.T.);
#132=EDGE_CURVE('',#111,#110,#93,.T.);
#133=EDGE_CURVE('',#112,#111,#61,.T.);
#134=EDGE_CURVE('',#106,#112,#94,.T.);
#135=EDGE_CURVE('',#113,#113,#95,.T.);
#136=EDGE_CURVE('',#114,#107,#96,.T.);
#137=EDGE_CURVE('',#112,#114,#62,.T.);
#138=EDGE_CURVE('',#115,#111,#63,.T.);
#139=EDGE_CURVE('',#114,#115,#64,.T.);
#140=EDGE_CURVE('',#116,#115,#97,.T.);
#141=EDGE_CURVE('',#110,#116,#65,.T.);
#142=EDGE_CURVE('',#117,#109,#66,.T.);
#143=EDGE_CURVE('',#116,#117,#67,.T.);
#144=EDGE_CURVE('',#118,#117,#98,.T.);
#145=EDGE_CURVE('',#108,#118,#68,.T.);
#146=EDGE_CURVE('',#119,#119,#99,.T.);
#147=EDGE_CURVE('',#119,#120,#69,.T.);
#148=EDGE_CURVE('',#120,#120,#100,.T.);
#149=EDGE_CURVE('',#121,#121,#101,.T.);
#150=EDGE_CURVE('',#121,#113,#70,.T.);
#151=EDGE_CURVE('',#118,#103,#71,.T.);
#152=ORIENTED_EDGE('',*,*,#122,.T.);
#153=ORIENTED_EDGE('',*,*,#123,.T.);
#154=ORIENTED_EDGE('',*,*,#124,.T.);
#155=ORIENTED_EDGE('',*,*,#125,.T.);
#156=ORIENTED_EDGE('',*,*,#125,.F.);
#157=ORIENTED_EDGE('',*,*,#126,.T.);
#158=ORIENTED_EDGE('',*,*,#127,.F.);
#159=ORIENTED_EDGE('',*,*,#128,.F.);
#160=ORIENTED_EDGE('',*,*,#124,.F.);
#161=ORIENTED_EDGE('',*,*,#129,.F.);
#162=ORIENTED_EDGE('',*,*,#130,.F.);
#163=ORIENTED_EDGE('',*,*,#131,.F.);
#164=ORIENTED_EDGE('',*,*,#132,.F.);
#165=ORIENTED_EDGE('',*,*,#133,.F.);
#166=ORIENTED_EDGE('',*,*,#134,.F.);
#167=ORIENTED_EDGE('',*,*,#126,.F.);
#168=ORIENTED_EDGE('',*,*,#135,.T.);
#169=ORIENTED_EDGE('',*,*,#136,.T.);
#170=ORIENTED_EDGE('',*,*,#127,.T.);
#171=ORIENTED_EDGE('',*,*,#134,.T.);
#172=ORIENTED_EDGE('',*,*,#137,.T.);
#173=ORIENTED_EDGE('',*,*,#137,.F.);
#174=ORIENTED_EDGE('',*,*,#133,.T.);
#175=ORIENTED_EDGE('',*,*,#138,.F.);
#176=ORIENTED_EDGE('',*,*,#139,.F.);
#177=ORIENTED_EDGE('',*,*,#140,.T.);
#178=ORIENTED_EDGE('',*,*,#138,.T.);
#179=ORIENTED_EDGE('',*,*,#132,.T.);
#180=ORIENTED_EDGE('',*,*,#141,.T.);
#181=ORIENTED_EDGE('',*,*,#141,.F.);
#182=ORIENTED_EDGE('',*,*,#131,.T.);
#183=ORIENTED_EDGE('',*,*,#142,.F.);
#184=ORIENTED_EDGE('',*,*,#143,.F.);
#185=ORIENTED_EDGE('',*,*,#144,.T.);
#186=ORIENTED_EDGE('',*,*,#142,.T.);
#187=ORIENTED_EDGE('',*,*,#130,.T.);
#188=ORIENTED_EDGE('',*,*,#145,.T.);
#189=ORIENTED_EDGE('',*,*,#146,.F.);
#190=ORIENTED_EDGE('',*,*,#147,.T.);
#191=ORIENTED_EDGE('',*,*,#148,.F.);
#192=ORIENTED_EDGE('',*,*,#147,.F.);
#193=ORIENTED_EDGE('',*,*,#146,.T.);
#194=ORIENTED_EDGE('',*,*,#149,.F.);
#195=ORIENTED_EDGE('',*,*,#150,.T.);
#196=ORIENTED_EDGE('',*,*,#135,.F.);
#197=ORIENTED_EDGE('',*,*,#150,.F.);
#198=ORIENTED_EDGE('',*,*,#123,.F.);
#199=ORIENTED_EDGE('',*,*,#151,.F.);
#200=ORIENTED_EDGE('',*,*,#145,.F.);
#201=ORIENTED_EDGE('',*,*,#129,.T.);
#202=ORIENTED_EDGE('',*,*,#122,.F.);
#203=ORIENTED_EDGE('',*,*,#128,.T.);
#204=ORIENTED_EDGE('',*,*,#136,.F.);
#205=ORIENTED_EDGE('',*,*,#139,.T.);
#206=ORIENTED_EDGE('',*,*,#140,.F.);
#207=ORIENTED_EDGE('',*,*,#143,.T.);
#208=ORIENTED_EDGE('',*,*,#144,.F.);
#209=ORIENTED_EDGE('',*,*,#151,.T.);
#210=ORIENTED_EDGE('',*,*,#148,.T.);
#211=ORIENTED_EDGE('',*,*,#149,.T.);
#212=CYLINDRICAL_SURFACE('',#254,7.5);
#213=CYLINDRICAL_SURFACE('',#263,7.5);
#214=CYLINDRICAL_SURFACE('',#266,7.5);
#215=CYLINDRICAL_SURFACE('',#269,7.5);
#216=CYLINDRICAL_SURFACE('',#271,5.);
#217=CYLINDRICAL_SURFACE('',#275,4.);
#218=ADVANCED_FACE('',(#25),#212,.T.);
#219=ADVANCED_FACE('',(#26),#18,.T.);
#220=ADVANCED_FACE('',(#27,#15),#19,.F.);
#221=ADVANCED_FACE('',(#28),#213,.T.);
#222=ADVANCED_FACE('',(#29),#20,.T.);
#223=ADVANCED_FACE('',(#30),#214,.T.);
#224=ADVANCED_FACE('',(#31),#21,.T.);
#225=ADVANCED_FACE('',(#32),#215,.T.);
#226=ADVANCED_FACE('',(#33),#216,.T.);
#227=ADVANCED_FACE('',(#34),#22,.T.);
#228=ADVANCED_FACE('',(#35),#217,.F.);
#229=ADVANCED_FACE('',(#36),#23,.T.);
#230=ADVANCED_FACE('',(#37,#16,#17),#24,.T.);
#231=CLOSED_SHELL('',(#218,#219,#220,#221,#222,#223,#224,#225,#226,#227,
#228,#229,#230));
#232=DERIVED_UNIT_ELEMENT(#235,1.);
#233=DERIVED_UNIT_ELEMENT(#418,-3.);
#234=DIMENSIONAL_EXPONENTS(0.,1.,0.,0.,0.,0.,0.);
#235=(
CONVERSION_BASED_UNIT('gram',#237)
MASS_UNIT()
NAMED_UNIT(#234)
);
#236=(
MASS_UNIT()
NAMED_UNIT(*)
SI_UNIT(.KILO.,.GRAM.)
);
#237=MASS_MEASURE_WITH_UNIT(MASS_MEASURE(0.001),#236);
#238=DERIVED_UNIT((#232,#233));
#239=MEASURE_REPRESENTATION_ITEM('density measure',
POSITIVE_RATIO_MEASURE(1.),#238);
#240=PROPERTY_DEFINITION_REPRESENTATION(#245,#242);
#241=PROPERTY_DEFINITION_REPRESENTATION(#246,#243);
#242=REPRESENTATION('material name',(#244),#415);
#243=REPRESENTATION('density',(#239),#415);
#244=DESCRIPTIVE_REPRESENTATION_ITEM('\X2\04220438043F043E0432044B0435\X0\',
'\X2\04220438043F043E0432044B0435\X0\');
#245=PROPERTY_DEFINITION('material property','material name',#425);
#246=PROPERTY_DEFINITION('material property','density of part',#425);
#247=DATE_TIME_ROLE('creation_date');
#248=APPLIED_DATE_AND_TIME_ASSIGNMENT(#249,#247,(#425));
#249=DATE_AND_TIME(#250,#251);
#250=CALENDAR_DATE(2025,12,4);
#251=LOCAL_TIME(0,0,0.,#252);
#252=COORDINATED_UNIVERSAL_TIME_OFFSET(0,0,.BEHIND.);
#253=AXIS2_PLACEMENT_3D('',#349,#279,#280);
#254=AXIS2_PLACEMENT_3D('',#350,#281,#282);
#255=AXIS2_PLACEMENT_3D('',#353,#283,#284);
#256=AXIS2_PLACEMENT_3D('',#357,#286,#287);
#257=AXIS2_PLACEMENT_3D('',#359,#289,#290);
#258=AXIS2_PLACEMENT_3D('',#365,#294,#295);
#259=AXIS2_PLACEMENT_3D('',#369,#297,#298);
#260=AXIS2_PLACEMENT_3D('',#373,#300,#301);
#261=AXIS2_PLACEMENT_3D('',#376,#303,#304);
#262=AXIS2_PLACEMENT_3D('',#378,#305,#306);
#263=AXIS2_PLACEMENT_3D('',#379,#307,#308);
#264=AXIS2_PLACEMENT_3D('',#381,#309,#310);
#265=AXIS2_PLACEMENT_3D('',#383,#312,#313);
#266=AXIS2_PLACEMENT_3D('',#387,#316,#317);
#267=AXIS2_PLACEMENT_3D('',#389,#318,#319);
#268=AXIS2_PLACEMENT_3D('',#391,#321,#322);
#269=AXIS2_PLACEMENT_3D('',#395,#325,#326);
#270=AXIS2_PLACEMENT_3D('',#397,#327,#328);
#271=AXIS2_PLACEMENT_3D('',#399,#330,#331);
#272=AXIS2_PLACEMENT_3D('',#401,#332,#333);
#273=AXIS2_PLACEMENT_3D('',#404,#335,#336);
#274=AXIS2_PLACEMENT_3D('',#405,#337,#338);
#275=AXIS2_PLACEMENT_3D('',#406,#339,#340);
#276=AXIS2_PLACEMENT_3D('',#408,#341,#342);
#277=AXIS2_PLACEMENT_3D('',#410,#344,#345);
#278=AXIS2_PLACEMENT_3D('',#412,#347,#348);
#279=DIRECTION('axis',(0.,0.,1.));
#280=DIRECTION('refdir',(1.,0.,0.));
#281=DIRECTION('center_axis',(0.,1.,0.));
#282=DIRECTION('ref_axis',(-0.707106781186547,0.,0.707106781186547));
#283=DIRECTION('center_axis',(0.,-1.,0.));
#284=DIRECTION('ref_axis',(-0.707106781186547,0.,0.707106781186547));
#285=DIRECTION('',(0.,-1.,0.));
#286=DIRECTION('center_axis',(0.,1.,0.));
#287=DIRECTION('ref_axis',(-0.707106781186547,0.,0.707106781186547));
#288=DIRECTION('',(0.,1.,0.));
#289=DIRECTION('center_axis',(0.,0.,1.));
#290=DIRECTION('ref_axis',(1.,0.,0.));
#291=DIRECTION('',(1.,0.,0.));
#292=DIRECTION('',(0.,-1.,0.));
#293=DIRECTION('',(1.,0.,0.));
#294=DIRECTION('center_axis',(0.,1.,0.));
#295=DIRECTION('ref_axis',(0.,0.,1.));
#296=DIRECTION('',(0.,0.,1.));
#297=DIRECTION('center_axis',(0.,1.,0.));
#298=DIRECTION('ref_axis',(-0.707106781186547,0.,-0.707106781186547));
#299=DIRECTION('',(-1.,0.,0.));
#300=DIRECTION('center_axis',(0.,1.,0.));
#301=DIRECTION('ref_axis',(0.707106781186547,0.,-0.707106781186547));
#302=DIRECTION('',(0.,0.,-1.));
#303=DIRECTION('center_axis',(0.,1.,0.));
#304=DIRECTION('ref_axis',(0.707106781186547,0.,0.707106781186547));
#305=DIRECTION('center_axis',(0.,1.,0.));
#306=DIRECTION('ref_axis',(1.,0.,0.));
#307=DIRECTION('center_axis',(0.,1.,0.));
#308=DIRECTION('ref_axis',(0.707106781186547,0.,0.707106781186547));
#309=DIRECTION('center_axis',(0.,-1.,0.));
#310=DIRECTION('ref_axis',(0.707106781186547,0.,0.707106781186547));
#311=DIRECTION('',(0.,1.,0.));
#312=DIRECTION('center_axis',(1.,0.,0.));
#313=DIRECTION('ref_axis',(0.,0.,-1.));
#314=DIRECTION('',(0.,-1.,0.));
#315=DIRECTION('',(0.,0.,-1.));
#316=DIRECTION('center_axis',(0.,1.,0.));
#317=DIRECTION('ref_axis',(0.707106781186547,0.,-0.707106781186547));
#318=DIRECTION('center_axis',(0.,-1.,0.));
#319=DIRECTION('ref_axis',(0.707106781186547,0.,-0.707106781186547));
#320=DIRECTION('',(0.,1.,0.));
#321=DIRECTION('center_axis',(0.,0.,-1.));
#322=DIRECTION('ref_axis',(-1.,0.,0.));
#323=DIRECTION('',(0.,-1.,0.));
#324=DIRECTION('',(-1.,0.,0.));
#325=DIRECTION('center_axis',(0.,1.,0.));
#326=DIRECTION('ref_axis',(-0.707106781186547,0.,-0.707106781186547));
#327=DIRECTION('center_axis',(0.,-1.,0.));
#328=DIRECTION('ref_axis',(-0.707106781186547,0.,-0.707106781186547));
#329=DIRECTION('',(0.,1.,0.));
#330=DIRECTION('center_axis',(0.,1.,0.));
#331=DIRECTION('ref_axis',(1.,0.,0.));
#332=DIRECTION('center_axis',(0.,1.,0.));
#333=DIRECTION('ref_axis',(1.,0.,0.));
#334=DIRECTION('',(0.,-1.,0.));
#335=DIRECTION('center_axis',(0.,-1.,0.));
#336=DIRECTION('ref_axis',(1.,0.,0.));
#337=DIRECTION('center_axis',(0.,1.,0.));
#338=DIRECTION('ref_axis',(0.,0.,1.));
#339=DIRECTION('center_axis',(0.,1.,0.));
#340=DIRECTION('ref_axis',(1.,0.,0.));
#341=DIRECTION('center_axis',(0.,-1.,0.));
#342=DIRECTION('ref_axis',(1.,0.,0.));
#343=DIRECTION('',(0.,-1.,0.));
#344=DIRECTION('center_axis',(-1.,0.,0.));
#345=DIRECTION('ref_axis',(0.,0.,1.));
#346=DIRECTION('',(0.,0.,1.));
#347=DIRECTION('center_axis',(0.,1.,0.));
#348=DIRECTION('ref_axis',(0.,0.,1.));
#349=CARTESIAN_POINT('',(0.,0.,0.));
#350=CARTESIAN_POINT('Origin',(7.5,0.,142.5));
#351=CARTESIAN_POINT('',(7.5,50.,150.));
#352=CARTESIAN_POINT('',(0.,50.,142.5));
#353=CARTESIAN_POINT('Origin',(7.5,50.,142.5));
#354=CARTESIAN_POINT('',(0.,0.,142.5));
#355=CARTESIAN_POINT('',(0.,0.,142.5));
#356=CARTESIAN_POINT('',(7.5,0.,150.));
#357=CARTESIAN_POINT('Origin',(7.5,0.,142.5));
#358=CARTESIAN_POINT('',(7.5,0.,150.));
#359=CARTESIAN_POINT('Origin',(0.,0.,150.));
#360=CARTESIAN_POINT('',(77.5,0.,150.));
#361=CARTESIAN_POINT('',(0.,0.,150.));
#362=CARTESIAN_POINT('',(77.5,50.,150.));
#363=CARTESIAN_POINT('',(77.5,0.,150.));
#364=CARTESIAN_POINT('',(0.,50.,150.));
#365=CARTESIAN_POINT('Origin',(42.5,0.,75.));
#366=CARTESIAN_POINT('',(0.,0.,7.5));
#367=CARTESIAN_POINT('',(0.,0.,0.));
#368=CARTESIAN_POINT('',(7.5,0.,0.));
#369=CARTESIAN_POINT('Origin',(7.5,0.,7.5));
#370=CARTESIAN_POINT('',(77.5,0.,0.));
#371=CARTESIAN_POINT('',(85.,0.,0.));
#372=CARTESIAN_POINT('',(85.,0.,7.5));
#373=CARTESIAN_POINT('Origin',(77.5,0.,7.5));
#374=CARTESIAN_POINT('',(85.,0.,142.5));
#375=CARTESIAN_POINT('',(85.,0.,150.));
#376=CARTESIAN_POINT('Origin',(77.5,0.,142.5));
#377=CARTESIAN_POINT('',(38.5,0.,35.));
#378=CARTESIAN_POINT('Origin',(42.5,0.,35.));
#379=CARTESIAN_POINT('Origin',(77.5,0.,142.5));
#380=CARTESIAN_POINT('',(85.,50.,142.5));
#381=CARTESIAN_POINT('Origin',(77.5,50.,142.5));
#382=CARTESIAN_POINT('',(85.,0.,142.5));
#383=CARTESIAN_POINT('Origin',(85.,0.,150.));
#384=CARTESIAN_POINT('',(85.,50.,7.5));
#385=CARTESIAN_POINT('',(85.,0.,7.5));
#386=CARTESIAN_POINT('',(85.,50.,150.));
#387=CARTESIAN_POINT('Origin',(77.5,0.,7.5));
#388=CARTESIAN_POINT('',(77.5,50.,0.));
#389=CARTESIAN_POINT('Origin',(77.5,50.,7.5));
#390=CARTESIAN_POINT('',(77.5,0.,0.));
#391=CARTESIAN_POINT('Origin',(85.,0.,0.));
#392=CARTESIAN_POINT('',(7.5,50.,0.));
#393=CARTESIAN_POINT('',(7.5,0.,0.));
#394=CARTESIAN_POINT('',(85.,50.,0.));
#395=CARTESIAN_POINT('Origin',(7.5,0.,7.5));
#396=CARTESIAN_POINT('',(0.,50.,7.5));
#397=CARTESIAN_POINT('Origin',(7.5,50.,7.5));
#398=CARTESIAN_POINT('',(0.,0.,7.5));
#399=CARTESIAN_POINT('Origin',(42.5,50.,120.));
#400=CARTESIAN_POINT('',(37.5,110.,120.));
#401=CARTESIAN_POINT('Origin',(42.5,110.,120.));
#402=CARTESIAN_POINT('',(37.5,50.,120.));
#403=CARTESIAN_POINT('',(37.5,50.,120.));
#404=CARTESIAN_POINT('Origin',(42.5,50.,120.));
#405=CARTESIAN_POINT('Origin',(42.5,110.,120.));
#406=CARTESIAN_POINT('Origin',(42.5,-129.513230710162,35.));
#407=CARTESIAN_POINT('',(38.5,50.,35.));
#408=CARTESIAN_POINT('Origin',(42.5,50.,35.));
#409=CARTESIAN_POINT('',(38.5,-129.513230710162,35.));
#410=CARTESIAN_POINT('Origin',(0.,0.,0.));
#411=CARTESIAN_POINT('',(0.,50.,0.));
#412=CARTESIAN_POINT('Origin',(42.5,50.,75.));
#413=UNCERTAINTY_MEASURE_WITH_UNIT(LENGTH_MEASURE(0.01),#417,
'DISTANCE_ACCURACY_VALUE',
'Maximum model space distance between geometric entities at asserted c
onnectivities');
#414=UNCERTAINTY_MEASURE_WITH_UNIT(LENGTH_MEASURE(0.01),#417,
'DISTANCE_ACCURACY_VALUE',
'Maximum model space distance between geometric entities at asserted c
onnectivities');
#415=(
GEOMETRIC_REPRESENTATION_CONTEXT(3)
GLOBAL_UNCERTAINTY_ASSIGNED_CONTEXT((#413))
GLOBAL_UNIT_ASSIGNED_CONTEXT((#417,#419,#420))
REPRESENTATION_CONTEXT('','3D')
);
#416=(
GEOMETRIC_REPRESENTATION_CONTEXT(3)
GLOBAL_UNCERTAINTY_ASSIGNED_CONTEXT((#414))
GLOBAL_UNIT_ASSIGNED_CONTEXT((#417,#419,#420))
REPRESENTATION_CONTEXT('','3D')
);
#417=(
LENGTH_UNIT()
NAMED_UNIT(*)
SI_UNIT(.MILLI.,.METRE.)
);
#418=(
LENGTH_UNIT()
NAMED_UNIT(*)
SI_UNIT(.CENTI.,.METRE.)
);
#419=(
NAMED_UNIT(*)
PLANE_ANGLE_UNIT()
SI_UNIT($,.RADIAN.)
);
#420=(
NAMED_UNIT(*)
SI_UNIT($,.STERADIAN.)
SOLID_ANGLE_UNIT()
);
#421=SHAPE_DEFINITION_REPRESENTATION(#422,#423);
#422=PRODUCT_DEFINITION_SHAPE('',$,#425);
#423=SHAPE_REPRESENTATION('',(#253),#415);
#424=PRODUCT_DEFINITION_CONTEXT('part definition',#429,'design');
#425=PRODUCT_DEFINITION('\X2\0420043504340443043A0442043E04400421043C043504490435043D043D044B0439\X0\',
'\X2\0420043504340443043A0442043E04400421043C043504490435043D043D044B0439\X0\',
#426,#424);
#426=PRODUCT_DEFINITION_FORMATION('',$,#431);
#427=PRODUCT_RELATED_PRODUCT_CATEGORY(
'\X2\0420043504340443043A0442043E04400421043C043504490435043D043D044B0439\X0\',
'\X2\0420043504340443043A0442043E04400421043C043504490435043D043D044B0439\X0\',
(#431));
#428=APPLICATION_PROTOCOL_DEFINITION('international standard',
'automotive_design',2009,#429);
#429=APPLICATION_CONTEXT(
'Core Data for Automotive Mechanical Design Process');
#430=PRODUCT_CONTEXT('part definition',#429,'mechanical');
#431=PRODUCT('\X2\0420043504340443043A0442043E04400421043C043504490435043D043D044B0439\X0\',
'\X2\0420043504340443043A0442043E04400421043C043504490435043D043D044B0439\X0\',
$,(#430));
#432=PRESENTATION_STYLE_ASSIGNMENT((#433));
#433=SURFACE_STYLE_USAGE(.BOTH.,#436);
#434=SURFACE_STYLE_RENDERING_WITH_PROPERTIES($,#440,(#435));
#435=SURFACE_STYLE_TRANSPARENT(0.);
#436=SURFACE_SIDE_STYLE('',(#437,#434));
#437=SURFACE_STYLE_FILL_AREA(#438);
#438=FILL_AREA_STYLE('',(#439));
#439=FILL_AREA_STYLE_COLOUR('',#440);
#440=COLOUR_RGB('',0.749019607843137,0.749019607843137,0.749019607843137);
ENDSEC;
END-ISO-10303-21;
