ISO-10303-21;
HEADER;
/* Generated by software containing ST-Developer
 * from STEP Tools, Inc. (www.steptools.com) 
 */

FILE_DESCRIPTION(
/* description */ (''),
/* implementation_level */ '2;1');

FILE_NAME(
/* name */ '',
/* time_stamp */ '2025-04-14T22:20:48+03:00',
/* author */ ('Root'),
/* organization */ (''),
/* preprocessor_version */ 'ST-DEVELOPER v20',
/* originating_system */ 'Autodesk Inventor 2025',
/* authorisation */ '');

FILE_SCHEMA (('AUTOMOTIVE_DESIGN { 1 0 10303 214 3 1 1 }'));
ENDSEC;

DATA;
#10=MECHANICAL_DESIGN_GEOMETRIC_PRESENTATION_REPRESENTATION('',(#13),#461);
#11=SHAPE_REPRESENTATION_RELATIONSHIP('SRR','None',#468,#12);
#12=ADVANCED_BREP_SHAPE_REPRESENTATION('',(#14),#460);
#13=STYLED_ITEM('',(#477),#14);
#14=MANIFOLD_SOLID_BREP('\X2\04220432043504400434043E0435\X0\ \X2\04420435043B043E\X0\1',
#256);
#15=LINE('',#396,#34);
#16=LINE('',#403,#35);
#17=LINE('',#406,#36);
#18=LINE('',#409,#37);
#19=LINE('',#411,#38);
#20=LINE('',#412,#39);
#21=LINE('',#415,#40);
#22=LINE('',#419,#41);
#23=LINE('',#423,#42);
#24=LINE('',#430,#43);
#25=LINE('',#433,#44);
#26=LINE('',#434,#45);
#27=LINE('',#438,#46);
#28=LINE('',#441,#47);
#29=LINE('',#442,#48);
#30=LINE('',#446,#49);
#31=LINE('',#449,#50);
#32=LINE('',#454,#51);
#33=LINE('',#456,#52);
#34=VECTOR('',#320,6.154);
#35=VECTOR('',#327,10.);
#36=VECTOR('',#330,10.);
#37=VECTOR('',#333,10.);
#38=VECTOR('',#334,10.);
#39=VECTOR('',#335,10.);
#40=VECTOR('',#338,10.);
#41=VECTOR('',#341,10.);
#42=VECTOR('',#344,10.);
#43=VECTOR('',#353,10.);
#44=VECTOR('',#356,10.);
#45=VECTOR('',#357,10.);
#46=VECTOR('',#362,10.);
#47=VECTOR('',#365,10.);
#48=VECTOR('',#366,10.);
#49=VECTOR('',#371,10.);
#50=VECTOR('',#374,5.);
#51=VECTOR('',#381,4.);
#52=VECTOR('',#384,10.);
#53=CYLINDRICAL_SURFACE('',#282,6.154);
#54=CYLINDRICAL_SURFACE('',#285,7.5);
#55=CYLINDRICAL_SURFACE('',#294,7.5);
#56=CYLINDRICAL_SURFACE('',#297,7.5);
#57=CYLINDRICAL_SURFACE('',#300,7.5);
#58=CYLINDRICAL_SURFACE('',#302,5.);
#59=CYLINDRICAL_SURFACE('',#304,4.);
#60=FACE_BOUND('',#80,.T.);
#61=FACE_BOUND('',#86,.T.);
#62=FACE_BOUND('',#96,.T.);
#63=FACE_BOUND('',#97,.T.);
#64=FACE_OUTER_BOUND('',#79,.T.);
#65=FACE_OUTER_BOUND('',#81,.T.);
#66=FACE_OUTER_BOUND('',#82,.T.);
#67=FACE_OUTER_BOUND('',#83,.T.);
#68=FACE_OUTER_BOUND('',#84,.T.);
#69=FACE_OUTER_BOUND('',#85,.T.);
#70=FACE_OUTER_BOUND('',#87,.T.);
#71=FACE_OUTER_BOUND('',#88,.T.);
#72=FACE_OUTER_BOUND('',#89,.T.);
#73=FACE_OUTER_BOUND('',#90,.T.);
#74=FACE_OUTER_BOUND('',#91,.T.);
#75=FACE_OUTER_BOUND('',#92,.T.);
#76=FACE_OUTER_BOUND('',#93,.T.);
#77=FACE_OUTER_BOUND('',#94,.T.);
#78=FACE_OUTER_BOUND('',#95,.T.);
#79=EDGE_LOOP('',(#167));
#80=EDGE_LOOP('',(#168));
#81=EDGE_LOOP('',(#169,#170,#171,#172));
#82=EDGE_LOOP('',(#173));
#83=EDGE_LOOP('',(#174,#175,#176,#177));
#84=EDGE_LOOP('',(#178,#179,#180,#181));
#85=EDGE_LOOP('',(#182,#183,#184,#185,#186,#187,#188,#189));
#86=EDGE_LOOP('',(#190));
#87=EDGE_LOOP('',(#191,#192,#193,#194));
#88=EDGE_LOOP('',(#195,#196,#197,#198));
#89=EDGE_LOOP('',(#199,#200,#201,#202));
#90=EDGE_LOOP('',(#203,#204,#205,#206));
#91=EDGE_LOOP('',(#207,#208,#209,#210));
#92=EDGE_LOOP('',(#211,#212,#213,#214));
#93=EDGE_LOOP('',(#215,#216,#217,#218));
#94=EDGE_LOOP('',(#219,#220,#221,#222));
#95=EDGE_LOOP('',(#223,#224,#225,#226,#227,#228,#229,#230));
#96=EDGE_LOOP('',(#231));
#97=EDGE_LOOP('',(#232));
#98=CIRCLE('',#280,6.154);
#99=CIRCLE('',#281,5.);
#100=CIRCLE('',#283,6.154);
#101=CIRCLE('',#286,7.5);
#102=CIRCLE('',#287,7.5);
#103=CIRCLE('',#290,7.5);
#104=CIRCLE('',#291,7.5);
#105=CIRCLE('',#292,7.5);
#106=CIRCLE('',#293,4.);
#107=CIRCLE('',#295,7.5);
#108=CIRCLE('',#298,7.5);
#109=CIRCLE('',#301,7.5);
#110=CIRCLE('',#303,5.);
#111=CIRCLE('',#305,4.);
#112=VERTEX_POINT('',#389);
#113=VERTEX_POINT('',#391);
#114=VERTEX_POINT('',#394);
#115=VERTEX_POINT('',#399);
#116=VERTEX_POINT('',#400);
#117=VERTEX_POINT('',#402);
#118=VERTEX_POINT('',#404);
#119=VERTEX_POINT('',#408);
#120=VERTEX_POINT('',#410);
#121=VERTEX_POINT('',#414);
#122=VERTEX_POINT('',#416);
#123=VERTEX_POINT('',#418);
#124=VERTEX_POINT('',#420);
#125=VERTEX_POINT('',#422);
#126=VERTEX_POINT('',#425);
#127=VERTEX_POINT('',#428);
#128=VERTEX_POINT('',#432);
#129=VERTEX_POINT('',#436);
#130=VERTEX_POINT('',#440);
#131=VERTEX_POINT('',#444);
#132=VERTEX_POINT('',#448);
#133=VERTEX_POINT('',#452);
#134=EDGE_CURVE('',#112,#112,#98,.T.);
#135=EDGE_CURVE('',#113,#113,#99,.T.);
#136=EDGE_CURVE('',#114,#114,#100,.T.);
#137=EDGE_CURVE('',#114,#112,#15,.T.);
#138=EDGE_CURVE('',#115,#116,#101,.T.);
#139=EDGE_CURVE('',#116,#117,#16,.T.);
#140=EDGE_CURVE('',#117,#118,#102,.T.);
#141=EDGE_CURVE('',#118,#115,#17,.T.);
#142=EDGE_CURVE('',#118,#119,#18,.T.);
#143=EDGE_CURVE('',#120,#119,#19,.T.);
#144=EDGE_CURVE('',#115,#120,#20,.T.);
#145=EDGE_CURVE('',#121,#117,#21,.T.);
#146=EDGE_CURVE('',#122,#121,#103,.T.);
#147=EDGE_CURVE('',#123,#122,#22,.T.);
#148=EDGE_CURVE('',#124,#123,#104,.T.);
#149=EDGE_CURVE('',#125,#124,#23,.T.);
#150=EDGE_CURVE('',#119,#125,#105,.T.);
#151=EDGE_CURVE('',#126,#126,#106,.T.);
#152=EDGE_CURVE('',#127,#120,#107,.T.);
#153=EDGE_CURVE('',#125,#127,#24,.T.);
#154=EDGE_CURVE('',#128,#124,#25,.T.);
#155=EDGE_CURVE('',#127,#128,#26,.T.);
#156=EDGE_CURVE('',#129,#128,#108,.T.);
#157=EDGE_CURVE('',#123,#129,#27,.T.);
#158=EDGE_CURVE('',#130,#122,#28,.T.);
#159=EDGE_CURVE('',#129,#130,#29,.T.);
#160=EDGE_CURVE('',#131,#130,#109,.T.);
#161=EDGE_CURVE('',#121,#131,#30,.T.);
#162=EDGE_CURVE('',#113,#132,#31,.T.);
#163=EDGE_CURVE('',#132,#132,#110,.T.);
#164=EDGE_CURVE('',#133,#133,#111,.T.);
#165=EDGE_CURVE('',#133,#126,#32,.T.);
#166=EDGE_CURVE('',#131,#116,#33,.T.);
#167=ORIENTED_EDGE('',*,*,#134,.F.);
#168=ORIENTED_EDGE('',*,*,#135,.T.);
#169=ORIENTED_EDGE('',*,*,#136,.F.);
#170=ORIENTED_EDGE('',*,*,#137,.T.);
#171=ORIENTED_EDGE('',*,*,#134,.T.);
#172=ORIENTED_EDGE('',*,*,#137,.F.);
#173=ORIENTED_EDGE('',*,*,#136,.T.);
#174=ORIENTED_EDGE('',*,*,#138,.T.);
#175=ORIENTED_EDGE('',*,*,#139,.T.);
#176=ORIENTED_EDGE('',*,*,#140,.T.);
#177=ORIENTED_EDGE('',*,*,#141,.T.);
#178=ORIENTED_EDGE('',*,*,#141,.F.);
#179=ORIENTED_EDGE('',*,*,#142,.T.);
#180=ORIENTED_EDGE('',*,*,#143,.F.);
#181=ORIENTED_EDGE('',*,*,#144,.F.);
#182=ORIENTED_EDGE('',*,*,#140,.F.);
#183=ORIENTED_EDGE('',*,*,#145,.F.);
#184=ORIENTED_EDGE('',*,*,#146,.F.);
#185=ORIENTED_EDGE('',*,*,#147,.F.);
#186=ORIENTED_EDGE('',*,*,#148,.F.);
#187=ORIENTED_EDGE('',*,*,#149,.F.);
#188=ORIENTED_EDGE('',*,*,#150,.F.);
#189=ORIENTED_EDGE('',*,*,#142,.F.);
#190=ORIENTED_EDGE('',*,*,#151,.T.);
#191=ORIENTED_EDGE('',*,*,#152,.T.);
#192=ORIENTED_EDGE('',*,*,#143,.T.);
#193=ORIENTED_EDGE('',*,*,#150,.T.);
#194=ORIENTED_EDGE('',*,*,#153,.T.);
#195=ORIENTED_EDGE('',*,*,#153,.F.);
#196=ORIENTED_EDGE('',*,*,#149,.T.);
#197=ORIENTED_EDGE('',*,*,#154,.F.);
#198=ORIENTED_EDGE('',*,*,#155,.F.);
#199=ORIENTED_EDGE('',*,*,#156,.T.);
#200=ORIENTED_EDGE('',*,*,#154,.T.);
#201=ORIENTED_EDGE('',*,*,#148,.T.);
#202=ORIENTED_EDGE('',*,*,#157,.T.);
#203=ORIENTED_EDGE('',*,*,#157,.F.);
#204=ORIENTED_EDGE('',*,*,#147,.T.);
#205=ORIENTED_EDGE('',*,*,#158,.F.);
#206=ORIENTED_EDGE('',*,*,#159,.F.);
#207=ORIENTED_EDGE('',*,*,#160,.T.);
#208=ORIENTED_EDGE('',*,*,#158,.T.);
#209=ORIENTED_EDGE('',*,*,#146,.T.);
#210=ORIENTED_EDGE('',*,*,#161,.T.);
#211=ORIENTED_EDGE('',*,*,#135,.F.);
#212=ORIENTED_EDGE('',*,*,#162,.T.);
#213=ORIENTED_EDGE('',*,*,#163,.F.);
#214=ORIENTED_EDGE('',*,*,#162,.F.);
#215=ORIENTED_EDGE('',*,*,#164,.F.);
#216=ORIENTED_EDGE('',*,*,#165,.T.);
#217=ORIENTED_EDGE('',*,*,#151,.F.);
#218=ORIENTED_EDGE('',*,*,#165,.F.);
#219=ORIENTED_EDGE('',*,*,#139,.F.);
#220=ORIENTED_EDGE('',*,*,#166,.F.);
#221=ORIENTED_EDGE('',*,*,#161,.F.);
#222=ORIENTED_EDGE('',*,*,#145,.T.);
#223=ORIENTED_EDGE('',*,*,#138,.F.);
#224=ORIENTED_EDGE('',*,*,#144,.T.);
#225=ORIENTED_EDGE('',*,*,#152,.F.);
#226=ORIENTED_EDGE('',*,*,#155,.T.);
#227=ORIENTED_EDGE('',*,*,#156,.F.);
#228=ORIENTED_EDGE('',*,*,#159,.T.);
#229=ORIENTED_EDGE('',*,*,#160,.F.);
#230=ORIENTED_EDGE('',*,*,#166,.T.);
#231=ORIENTED_EDGE('',*,*,#163,.T.);
#232=ORIENTED_EDGE('',*,*,#164,.T.);
#233=PLANE('',#279);
#234=PLANE('',#284);
#235=PLANE('',#288);
#236=PLANE('',#289);
#237=PLANE('',#296);
#238=PLANE('',#299);
#239=PLANE('',#306);
#240=PLANE('',#307);
#241=ADVANCED_FACE('',(#64,#60),#233,.F.);
#242=ADVANCED_FACE('',(#65),#53,.T.);
#243=ADVANCED_FACE('',(#66),#234,.T.);
#244=ADVANCED_FACE('',(#67),#54,.T.);
#245=ADVANCED_FACE('',(#68),#235,.T.);
#246=ADVANCED_FACE('',(#69,#61),#236,.F.);
#247=ADVANCED_FACE('',(#70),#55,.T.);
#248=ADVANCED_FACE('',(#71),#237,.T.);
#249=ADVANCED_FACE('',(#72),#56,.T.);
#250=ADVANCED_FACE('',(#73),#238,.T.);
#251=ADVANCED_FACE('',(#74),#57,.T.);
#252=ADVANCED_FACE('',(#75),#58,.T.);
#253=ADVANCED_FACE('',(#76),#59,.F.);
#254=ADVANCED_FACE('',(#77),#239,.T.);
#255=ADVANCED_FACE('',(#78,#62,#63),#240,.T.);
#256=CLOSED_SHELL('',(#241,#242,#243,#244,#245,#246,#247,#248,#249,#250,
#251,#252,#253,#254,#255));
#257=DERIVED_UNIT_ELEMENT(#260,1.);
#258=DERIVED_UNIT_ELEMENT(#463,-3.);
#259=DIMENSIONAL_EXPONENTS(0.,1.,0.,0.,0.,0.,0.);
#260=(
CONVERSION_BASED_UNIT('gram',#262)
MASS_UNIT()
NAMED_UNIT(#259)
);
#261=(
MASS_UNIT()
NAMED_UNIT(*)
SI_UNIT(.KILO.,.GRAM.)
);
#262=MASS_MEASURE_WITH_UNIT(MASS_MEASURE(0.001),#261);
#263=DERIVED_UNIT((#257,#258));
#264=MEASURE_REPRESENTATION_ITEM('density measure',
POSITIVE_RATIO_MEASURE(1.),#263);
#265=PROPERTY_DEFINITION_REPRESENTATION(#270,#267);
#266=PROPERTY_DEFINITION_REPRESENTATION(#271,#268);
#267=REPRESENTATION('material name',(#269),#460);
#268=REPRESENTATION('density',(#264),#460);
#269=DESCRIPTIVE_REPRESENTATION_ITEM('\X2\04220438043F043E0432044B0435\X0\',
'\X2\04220438043F043E0432044B0435\X0\');
#270=PROPERTY_DEFINITION('material property','material name',#470);
#271=PROPERTY_DEFINITION('material property','density of part',#470);
#272=DATE_TIME_ROLE('creation_date');
#273=APPLIED_DATE_AND_TIME_ASSIGNMENT(#274,#272,(#470));
#274=DATE_AND_TIME(#275,#276);
#275=CALENDAR_DATE(2025,12,4);
#276=LOCAL_TIME(0,0,0.,#277);
#277=COORDINATED_UNIVERSAL_TIME_OFFSET(0,0,.BEHIND.);
#278=AXIS2_PLACEMENT_3D('',#387,#308,#309);
#279=AXIS2_PLACEMENT_3D('',#388,#310,#311);
#280=AXIS2_PLACEMENT_3D('',#390,#312,#313);
#281=AXIS2_PLACEMENT_3D('',#392,#314,#315);
#282=AXIS2_PLACEMENT_3D('',#393,#316,#317);
#283=AXIS2_PLACEMENT_3D('',#395,#318,#319);
#284=AXIS2_PLACEMENT_3D('',#397,#321,#322);
#285=AXIS2_PLACEMENT_3D('',#398,#323,#324);
#286=AXIS2_PLACEMENT_3D('',#401,#325,#326);
#287=AXIS2_PLACEMENT_3D('',#405,#328,#329);
#288=AXIS2_PLACEMENT_3D('',#407,#331,#332);
#289=AXIS2_PLACEMENT_3D('',#413,#336,#337);
#290=AXIS2_PLACEMENT_3D('',#417,#339,#340);
#291=AXIS2_PLACEMENT_3D('',#421,#342,#343);
#292=AXIS2_PLACEMENT_3D('',#424,#345,#346);
#293=AXIS2_PLACEMENT_3D('',#426,#347,#348);
#294=AXIS2_PLACEMENT_3D('',#427,#349,#350);
#295=AXIS2_PLACEMENT_3D('',#429,#351,#352);
#296=AXIS2_PLACEMENT_3D('',#431,#354,#355);
#297=AXIS2_PLACEMENT_3D('',#435,#358,#359);
#298=AXIS2_PLACEMENT_3D('',#437,#360,#361);
#299=AXIS2_PLACEMENT_3D('',#439,#363,#364);
#300=AXIS2_PLACEMENT_3D('',#443,#367,#368);
#301=AXIS2_PLACEMENT_3D('',#445,#369,#370);
#302=AXIS2_PLACEMENT_3D('',#447,#372,#373);
#303=AXIS2_PLACEMENT_3D('',#450,#375,#376);
#304=AXIS2_PLACEMENT_3D('',#451,#377,#378);
#305=AXIS2_PLACEMENT_3D('',#453,#379,#380);
#306=AXIS2_PLACEMENT_3D('',#455,#382,#383);
#307=AXIS2_PLACEMENT_3D('',#457,#385,#386);
#308=DIRECTION('axis',(0.,0.,1.));
#309=DIRECTION('refdir',(1.,0.,0.));
#310=DIRECTION('center_axis',(0.,1.,0.));
#311=DIRECTION('ref_axis',(0.,0.,1.));
#312=DIRECTION('center_axis',(0.,1.,0.));
#313=DIRECTION('ref_axis',(1.,0.,0.));
#314=DIRECTION('center_axis',(0.,1.,0.));
#315=DIRECTION('ref_axis',(1.,0.,0.));
#316=DIRECTION('center_axis',(0.,1.,0.));
#317=DIRECTION('ref_axis',(1.,0.,0.));
#318=DIRECTION('center_axis',(0.,1.,0.));
#319=DIRECTION('ref_axis',(1.,0.,0.));
#320=DIRECTION('',(0.,-1.,0.));
#321=DIRECTION('center_axis',(0.,1.,0.));
#322=DIRECTION('ref_axis',(0.,0.,1.));
#323=DIRECTION('center_axis',(0.,1.,0.));
#324=DIRECTION('ref_axis',(-0.707106781186547,0.,0.707106781186547));
#325=DIRECTION('center_axis',(0.,-1.,0.));
#326=DIRECTION('ref_axis',(-0.707106781186547,0.,0.707106781186547));
#327=DIRECTION('',(0.,-1.,0.));
#328=DIRECTION('center_axis',(0.,1.,0.));
#329=DIRECTION('ref_axis',(-0.707106781186547,0.,0.707106781186547));
#330=DIRECTION('',(0.,1.,0.));
#331=DIRECTION('center_axis',(0.,0.,1.));
#332=DIRECTION('ref_axis',(1.,0.,0.));
#333=DIRECTION('',(1.,0.,0.));
#334=DIRECTION('',(0.,-1.,0.));
#335=DIRECTION('',(1.,0.,0.));
#336=DIRECTION('center_axis',(0.,1.,0.));
#337=DIRECTION('ref_axis',(0.,0.,1.));
#338=DIRECTION('',(0.,0.,1.));
#339=DIRECTION('center_axis',(0.,1.,0.));
#340=DIRECTION('ref_axis',(-0.707106781186547,0.,-0.707106781186547));
#341=DIRECTION('',(-1.,0.,0.));
#342=DIRECTION('center_axis',(0.,1.,0.));
#343=DIRECTION('ref_axis',(0.707106781186547,0.,-0.707106781186547));
#344=DIRECTION('',(0.,0.,-1.));
#345=DIRECTION('center_axis',(0.,1.,0.));
#346=DIRECTION('ref_axis',(0.707106781186547,0.,0.707106781186547));
#347=DIRECTION('center_axis',(0.,1.,0.));
#348=DIRECTION('ref_axis',(1.,0.,0.));
#349=DIRECTION('center_axis',(0.,1.,0.));
#350=DIRECTION('ref_axis',(0.707106781186547,0.,0.707106781186547));
#351=DIRECTION('center_axis',(0.,-1.,0.));
#352=DIRECTION('ref_axis',(0.707106781186547,0.,0.707106781186547));
#353=DIRECTION('',(0.,1.,0.));
#354=DIRECTION('center_axis',(1.,0.,0.));
#355=DIRECTION('ref_axis',(0.,0.,-1.));
#356=DIRECTION('',(0.,-1.,0.));
#357=DIRECTION('',(0.,0.,-1.));
#358=DIRECTION('center_axis',(0.,1.,0.));
#359=DIRECTION('ref_axis',(0.707106781186547,0.,-0.707106781186547));
#360=DIRECTION('center_axis',(0.,-1.,0.));
#361=DIRECTION('ref_axis',(0.707106781186547,0.,-0.707106781186547));
#362=DIRECTION('',(0.,1.,0.));
#363=DIRECTION('center_axis',(0.,0.,-1.));
#364=DIRECTION('ref_axis',(-1.,0.,0.));
#365=DIRECTION('',(0.,-1.,0.));
#366=DIRECTION('',(-1.,0.,0.));
#367=DIRECTION('center_axis',(0.,1.,0.));
#368=DIRECTION('ref_axis',(-0.707106781186547,0.,-0.707106781186547));
#369=DIRECTION('center_axis',(0.,-1.,0.));
#370=DIRECTION('ref_axis',(-0.707106781186547,0.,-0.707106781186547));
#371=DIRECTION('',(0.,1.,0.));
#372=DIRECTION('center_axis',(0.,1.,0.));
#373=DIRECTION('ref_axis',(1.,0.,0.));
#374=DIRECTION('',(0.,-1.,0.));
#375=DIRECTION('center_axis',(0.,-1.,0.));
#376=DIRECTION('ref_axis',(1.,0.,0.));
#377=DIRECTION('center_axis',(0.,1.,0.));
#378=DIRECTION('ref_axis',(1.,0.,0.));
#379=DIRECTION('center_axis',(0.,-1.,0.));
#380=DIRECTION('ref_axis',(1.,0.,0.));
#381=DIRECTION('',(0.,-1.,0.));
#382=DIRECTION('center_axis',(-1.,0.,0.));
#383=DIRECTION('ref_axis',(0.,0.,1.));
#384=DIRECTION('',(0.,0.,1.));
#385=DIRECTION('center_axis',(0.,1.,0.));
#386=DIRECTION('ref_axis',(0.,0.,1.));
#387=CARTESIAN_POINT('',(0.,0.,0.));
#388=CARTESIAN_POINT('Origin',(42.5,73.6,120.));
#389=CARTESIAN_POINT('',(36.346,73.6,120.));
#390=CARTESIAN_POINT('Origin',(42.5,73.6,120.));
#391=CARTESIAN_POINT('',(37.5,73.6,120.));
#392=CARTESIAN_POINT('Origin',(42.5,73.6,120.));
#393=CARTESIAN_POINT('Origin',(42.5,73.6,120.));
#394=CARTESIAN_POINT('',(36.346,120.,120.));
#395=CARTESIAN_POINT('Origin',(42.5,120.,120.));
#396=CARTESIAN_POINT('',(36.346,73.6,120.));
#397=CARTESIAN_POINT('Origin',(42.5,120.,120.));
#398=CARTESIAN_POINT('Origin',(7.5,0.,142.5));
#399=CARTESIAN_POINT('',(7.5,50.,150.));
#400=CARTESIAN_POINT('',(0.,50.,142.5));
#401=CARTESIAN_POINT('Origin',(7.5,50.,142.5));
#402=CARTESIAN_POINT('',(0.,0.,142.5));
#403=CARTESIAN_POINT('',(0.,0.,142.5));
#404=CARTESIAN_POINT('',(7.5,0.,150.));
#405=CARTESIAN_POINT('Origin',(7.5,0.,142.5));
#406=CARTESIAN_POINT('',(7.5,0.,150.));
#407=CARTESIAN_POINT('Origin',(0.,0.,150.));
#408=CARTESIAN_POINT('',(77.5,0.,150.));
#409=CARTESIAN_POINT('',(0.,0.,150.));
#410=CARTESIAN_POINT('',(77.5,50.,150.));
#411=CARTESIAN_POINT('',(77.5,0.,150.));
#412=CARTESIAN_POINT('',(0.,50.,150.));
#413=CARTESIAN_POINT('Origin',(42.5,0.,75.));
#414=CARTESIAN_POINT('',(0.,0.,7.5));
#415=CARTESIAN_POINT('',(0.,0.,0.));
#416=CARTESIAN_POINT('',(7.5,0.,0.));
#417=CARTESIAN_POINT('Origin',(7.5,0.,7.5));
#418=CARTESIAN_POINT('',(77.5,0.,0.));
#419=CARTESIAN_POINT('',(85.,0.,0.));
#420=CARTESIAN_POINT('',(85.,0.,7.5));
#421=CARTESIAN_POINT('Origin',(77.5,0.,7.5));
#422=CARTESIAN_POINT('',(85.,0.,142.5));
#423=CARTESIAN_POINT('',(85.,0.,150.));
#424=CARTESIAN_POINT('Origin',(77.5,0.,142.5));
#425=CARTESIAN_POINT('',(38.5,0.,35.));
#426=CARTESIAN_POINT('Origin',(42.5,0.,35.));
#427=CARTESIAN_POINT('Origin',(77.5,0.,142.5));
#428=CARTESIAN_POINT('',(85.,50.,142.5));
#429=CARTESIAN_POINT('Origin',(77.5,50.,142.5));
#430=CARTESIAN_POINT('',(85.,0.,142.5));
#431=CARTESIAN_POINT('Origin',(85.,0.,150.));
#432=CARTESIAN_POINT('',(85.,50.,7.5));
#433=CARTESIAN_POINT('',(85.,0.,7.5));
#434=CARTESIAN_POINT('',(85.,50.,150.));
#435=CARTESIAN_POINT('Origin',(77.5,0.,7.5));
#436=CARTESIAN_POINT('',(77.5,50.,0.));
#437=CARTESIAN_POINT('Origin',(77.5,50.,7.5));
#438=CARTESIAN_POINT('',(77.5,0.,0.));
#439=CARTESIAN_POINT('Origin',(85.,0.,0.));
#440=CARTESIAN_POINT('',(7.5,50.,0.));
#441=CARTESIAN_POINT('',(7.5,0.,0.));
#442=CARTESIAN_POINT('',(85.,50.,0.));
#443=CARTESIAN_POINT('Origin',(7.5,0.,7.5));
#444=CARTESIAN_POINT('',(0.,50.,7.5));
#445=CARTESIAN_POINT('Origin',(7.5,50.,7.5));
#446=CARTESIAN_POINT('',(0.,0.,7.5));
#447=CARTESIAN_POINT('Origin',(42.5,50.,120.));
#448=CARTESIAN_POINT('',(37.5,50.,120.));
#449=CARTESIAN_POINT('',(37.5,50.,120.));
#450=CARTESIAN_POINT('Origin',(42.5,50.,120.));
#451=CARTESIAN_POINT('Origin',(42.5,-129.513230710162,35.));
#452=CARTESIAN_POINT('',(38.5,50.,35.));
#453=CARTESIAN_POINT('Origin',(42.5,50.,35.));
#454=CARTESIAN_POINT('',(38.5,-129.513230710162,35.));
#455=CARTESIAN_POINT('Origin',(0.,0.,0.));
#456=CARTESIAN_POINT('',(0.,50.,0.));
#457=CARTESIAN_POINT('Origin',(42.5,50.,75.));
#458=UNCERTAINTY_MEASURE_WITH_UNIT(LENGTH_MEASURE(0.01),#462,
'DISTANCE_ACCURACY_VALUE',
'Maximum model space distance between geometric entities at asserted c
onnectivities');
#459=UNCERTAINTY_MEASURE_WITH_UNIT(LENGTH_MEASURE(0.01),#462,
'DISTANCE_ACCURACY_VALUE',
'Maximum model space distance between geometric entities at asserted c
onnectivities');
#460=(
GEOMETRIC_REPRESENTATION_CONTEXT(3)
GLOBAL_UNCERTAINTY_ASSIGNED_CONTEXT((#458))
GLOBAL_UNIT_ASSIGNED_CONTEXT((#462,#464,#465))
REPRESENTATION_CONTEXT('','3D')
);
#461=(
GEOMETRIC_REPRESENTATION_CONTEXT(3)
GLOBAL_UNCERTAINTY_ASSIGNED_CONTEXT((#459))
GLOBAL_UNIT_ASSIGNED_CONTEXT((#462,#464,#465))
REPRESENTATION_CONTEXT('','3D')
);
#462=(
LENGTH_UNIT()
NAMED_UNIT(*)
SI_UNIT(.MILLI.,.METRE.)
);
#463=(
LENGTH_UNIT()
NAMED_UNIT(*)
SI_UNIT(.CENTI.,.METRE.)
);
#464=(
NAMED_UNIT(*)
PLANE_ANGLE_UNIT()
SI_UNIT($,.RADIAN.)
);
#465=(
NAMED_UNIT(*)
SI_UNIT($,.STERADIAN.)
SOLID_ANGLE_UNIT()
);
#466=SHAPE_DEFINITION_REPRESENTATION(#467,#468);
#467=PRODUCT_DEFINITION_SHAPE('',$,#470);
#468=SHAPE_REPRESENTATION('',(#278),#460);
#469=PRODUCT_DEFINITION_CONTEXT('part definition',#474,'design');
#470=PRODUCT_DEFINITION('\X2\0420043504340443043A0442043E04400421043C043504490435043D043D044B0439\X0\',
'\X2\0420043504340443043A0442043E04400421043C043504490435043D043D044B0439\X0\',
#471,#469);
#471=PRODUCT_DEFINITION_FORMATION('',$,#476);
#472=PRODUCT_RELATED_PRODUCT_CATEGORY(
'\X2\0420043504340443043A0442043E04400421043C043504490435043D043D044B0439\X0\',
'\X2\0420043504340443043A0442043E04400421043C043504490435043D043D044B0439\X0\',
(#476));
#473=APPLICATION_PROTOCOL_DEFINITION('international standard',
'automotive_design',2009,#474);
#474=APPLICATION_CONTEXT(
'Core Data for Automotive Mechanical Design Process');
#475=PRODUCT_CONTEXT('part definition',#474,'mechanical');
#476=PRODUCT('\X2\0420043504340443043A0442043E04400421043C043504490435043D043D044B0439\X0\',
'\X2\0420043504340443043A0442043E04400421043C043504490435043D043D044B0439\X0\',
$,(#475));
#477=PRESENTATION_STYLE_ASSIGNMENT((#478));
#478=SURFACE_STYLE_USAGE(.BOTH.,#481);
#479=SURFACE_STYLE_RENDERING_WITH_PROPERTIES($,#485,(#480));
#480=SURFACE_STYLE_TRANSPARENT(0.);
#481=SURFACE_SIDE_STYLE('',(#482,#479));
#482=SURFACE_STYLE_FILL_AREA(#483);
#483=FILL_AREA_STYLE('',(#484));
#484=FILL_AREA_STYLE_COLOUR('',#485);
#485=COLOUR_RGB('',0.749019607843137,0.749019607843137,0.749019607843137);
ENDSEC;
END-ISO-10303-21;
