ISO-10303-21;
HEADER;
/* Generated by software containing ST-Developer
 * from STEP Tools, Inc. (www.steptools.com) 
 */

FILE_DESCRIPTION(
/* description */ (''),
/* implementation_level */ '2;1');

FILE_NAME(
/* name */ '',
/* time_stamp */ '2025-04-13T15:55:43+03:00',
/* author */ ('tishk'),
/* organization */ (''),
/* preprocessor_version */ 'ST-DEVELOPER v20',
/* originating_system */ 'Autodesk Inventor 2025',
/* authorisation */ '');

FILE_SCHEMA (('AUTOMOTIVE_DESIGN { 1 0 10303 214 3 1 1 }'));
ENDSEC;

DATA;
#10=MECHANICAL_DESIGN_GEOMETRIC_PRESENTATION_REPRESENTATION('',(#13),#1391);
#11=SHAPE_REPRESENTATION_RELATIONSHIP('SRR','None',#1398,#12);
#12=ADVANCED_BREP_SHAPE_REPRESENTATION('',(#14),#1390);
#13=STYLED_ITEM('',(#1408),#14);
#14=MANIFOLD_SOLID_BREP('\X2\04220432043504400434043E0435\X0\ \X2\04420435043B043E\X0\2',
#766);
#15=ELLIPSE('',#880,75.,60.);
#16=ELLIPSE('',#881,75.,60.);
#17=ELLIPSE('',#886,75.,60.);
#18=ELLIPSE('',#887,75.,60.);
#19=(
BOUNDED_SURFACE()
B_SPLINE_SURFACE(2,1,((#1340,#1341),(#1342,#1343),(#1344,#1345)),
 .UNSPECIFIED.,.F.,.F.,.F.)
B_SPLINE_SURFACE_WITH_KNOTS((3,3),(2,2),(-1.5707963267949,4.93038065763132E-32),
(0.,42.),.UNSPECIFIED.)
GEOMETRIC_REPRESENTATION_ITEM()
RATIONAL_B_SPLINE_SURFACE(((1.,1.),(0.707106781186547,0.707106781186547),
(1.,1.)))
REPRESENTATION_ITEM('')
SURFACE()
);
#20=(
BOUNDED_SURFACE()
B_SPLINE_SURFACE(2,1,((#1366,#1367),(#1368,#1369),(#1370,#1371)),
 .UNSPECIFIED.,.F.,.F.,.F.)
B_SPLINE_SURFACE_WITH_KNOTS((3,3),(2,2),(1.5707963267949,3.14159265358979),
(0.,42.),.UNSPECIFIED.)
GEOMETRIC_REPRESENTATION_ITEM()
RATIONAL_B_SPLINE_SURFACE(((1.,1.),(0.707106781186548,0.707106781186548),
(1.,1.)))
REPRESENTATION_ITEM('')
SURFACE()
);
#21=FACE_BOUND('',#140,.T.);
#22=FACE_BOUND('',#141,.T.);
#23=FACE_BOUND('',#142,.T.);
#24=FACE_BOUND('',#143,.T.);
#25=FACE_BOUND('',#144,.T.);
#26=FACE_BOUND('',#154,.T.);
#27=FACE_BOUND('',#155,.T.);
#28=FACE_BOUND('',#156,.T.);
#29=FACE_BOUND('',#157,.T.);
#30=FACE_BOUND('',#158,.T.);
#31=FACE_BOUND('',#167,.T.);
#32=FACE_BOUND('',#169,.T.);
#33=PLANE('',#821);
#34=PLANE('',#826);
#35=PLANE('',#831);
#36=PLANE('',#836);
#37=PLANE('',#859);
#38=PLANE('',#860);
#39=PLANE('',#864);
#40=PLANE('',#868);
#41=PLANE('',#872);
#42=PLANE('',#876);
#43=PLANE('',#885);
#44=PLANE('',#891);
#45=PLANE('',#892);
#46=PLANE('',#893);
#47=CYLINDRICAL_SURFACE('',#791,4.188);
#48=CYLINDRICAL_SURFACE('',#795,4.188);
#49=CYLINDRICAL_SURFACE('',#799,4.188);
#50=CYLINDRICAL_SURFACE('',#803,4.188);
#51=CYLINDRICAL_SURFACE('',#807,4.188);
#52=CYLINDRICAL_SURFACE('',#811,4.188);
#53=CYLINDRICAL_SURFACE('',#815,4.188);
#54=CYLINDRICAL_SURFACE('',#819,4.188);
#55=CYLINDRICAL_SURFACE('',#824,7.5);
#56=CYLINDRICAL_SURFACE('',#829,7.5);
#57=CYLINDRICAL_SURFACE('',#834,7.5);
#58=CYLINDRICAL_SURFACE('',#839,7.5);
#59=CYLINDRICAL_SURFACE('',#841,30.);
#60=CYLINDRICAL_SURFACE('',#856,45.);
#61=CYLINDRICAL_SURFACE('',#862,7.5);
#62=CYLINDRICAL_SURFACE('',#866,7.5);
#63=CYLINDRICAL_SURFACE('',#870,7.5);
#64=CYLINDRICAL_SURFACE('',#874,7.5);
#65=CYLINDRICAL_SURFACE('',#878,45.);
#66=CYLINDRICAL_SURFACE('',#882,60.);
#67=CYLINDRICAL_SURFACE('',#888,60.);
#68=FACE_OUTER_BOUND('',#113,.T.);
#69=FACE_OUTER_BOUND('',#114,.T.);
#70=FACE_OUTER_BOUND('',#115,.T.);
#71=FACE_OUTER_BOUND('',#116,.T.);
#72=FACE_OUTER_BOUND('',#117,.T.);
#73=FACE_OUTER_BOUND('',#118,.T.);
#74=FACE_OUTER_BOUND('',#119,.T.);
#75=FACE_OUTER_BOUND('',#120,.T.);
#76=FACE_OUTER_BOUND('',#121,.T.);
#77=FACE_OUTER_BOUND('',#122,.T.);
#78=FACE_OUTER_BOUND('',#123,.T.);
#79=FACE_OUTER_BOUND('',#124,.T.);
#80=FACE_OUTER_BOUND('',#125,.T.);
#81=FACE_OUTER_BOUND('',#126,.T.);
#82=FACE_OUTER_BOUND('',#127,.T.);
#83=FACE_OUTER_BOUND('',#128,.T.);
#84=FACE_OUTER_BOUND('',#129,.T.);
#85=FACE_OUTER_BOUND('',#130,.T.);
#86=FACE_OUTER_BOUND('',#131,.T.);
#87=FACE_OUTER_BOUND('',#132,.T.);
#88=FACE_OUTER_BOUND('',#133,.T.);
#89=FACE_OUTER_BOUND('',#134,.T.);
#90=FACE_OUTER_BOUND('',#135,.T.);
#91=FACE_OUTER_BOUND('',#136,.T.);
#92=FACE_OUTER_BOUND('',#137,.T.);
#93=FACE_OUTER_BOUND('',#138,.T.);
#94=FACE_OUTER_BOUND('',#139,.T.);
#95=FACE_OUTER_BOUND('',#145,.T.);
#96=FACE_OUTER_BOUND('',#146,.T.);
#97=FACE_OUTER_BOUND('',#147,.T.);
#98=FACE_OUTER_BOUND('',#148,.T.);
#99=FACE_OUTER_BOUND('',#149,.T.);
#100=FACE_OUTER_BOUND('',#150,.T.);
#101=FACE_OUTER_BOUND('',#151,.T.);
#102=FACE_OUTER_BOUND('',#152,.T.);
#103=FACE_OUTER_BOUND('',#153,.T.);
#104=FACE_OUTER_BOUND('',#159,.T.);
#105=FACE_OUTER_BOUND('',#160,.T.);
#106=FACE_OUTER_BOUND('',#161,.T.);
#107=FACE_OUTER_BOUND('',#162,.T.);
#108=FACE_OUTER_BOUND('',#163,.T.);
#109=FACE_OUTER_BOUND('',#164,.T.);
#110=FACE_OUTER_BOUND('',#165,.T.);
#111=FACE_OUTER_BOUND('',#166,.T.);
#112=FACE_OUTER_BOUND('',#168,.T.);
#113=EDGE_LOOP('',(#499,#500,#501));
#114=EDGE_LOOP('',(#502,#503,#504,#505));
#115=EDGE_LOOP('',(#506,#507,#508));
#116=EDGE_LOOP('',(#509,#510,#511,#512));
#117=EDGE_LOOP('',(#513,#514,#515));
#118=EDGE_LOOP('',(#516,#517,#518,#519));
#119=EDGE_LOOP('',(#520,#521,#522));
#120=EDGE_LOOP('',(#523,#524,#525,#526));
#121=EDGE_LOOP('',(#527,#528,#529));
#122=EDGE_LOOP('',(#530,#531,#532,#533));
#123=EDGE_LOOP('',(#534,#535,#536));
#124=EDGE_LOOP('',(#537,#538,#539,#540));
#125=EDGE_LOOP('',(#541,#542,#543));
#126=EDGE_LOOP('',(#544,#545,#546,#547));
#127=EDGE_LOOP('',(#548,#549,#550));
#128=EDGE_LOOP('',(#551,#552,#553,#554));
#129=EDGE_LOOP('',(#555,#556));
#130=EDGE_LOOP('',(#557,#558,#559,#560));
#131=EDGE_LOOP('',(#561,#562));
#132=EDGE_LOOP('',(#563,#564,#565,#566));
#133=EDGE_LOOP('',(#567,#568));
#134=EDGE_LOOP('',(#569,#570,#571,#572));
#135=EDGE_LOOP('',(#573,#574));
#136=EDGE_LOOP('',(#575,#576,#577,#578));
#137=EDGE_LOOP('',(#579,#580,#581,#582,#583,#584,#585,#586,#587,#588,#589,
#590,#591,#592,#593,#594,#595,#596,#597,#598,#599,#600,#601,#602,#603,#604,
#605,#606,#607,#608,#609,#610,#611,#612,#613,#614));
#138=EDGE_LOOP('',(#615,#616,#617,#618));
#139=EDGE_LOOP('',(#619));
#140=EDGE_LOOP('',(#620));
#141=EDGE_LOOP('',(#621));
#142=EDGE_LOOP('',(#622));
#143=EDGE_LOOP('',(#623));
#144=EDGE_LOOP('',(#624,#625,#626,#627,#628,#629,#630,#631,#632));
#145=EDGE_LOOP('',(#633,#634));
#146=EDGE_LOOP('',(#635,#636,#637,#638));
#147=EDGE_LOOP('',(#639,#640));
#148=EDGE_LOOP('',(#641,#642,#643,#644));
#149=EDGE_LOOP('',(#645,#646,#647));
#150=EDGE_LOOP('',(#648,#649,#650,#651));
#151=EDGE_LOOP('',(#652,#653));
#152=EDGE_LOOP('',(#654,#655,#656,#657));
#153=EDGE_LOOP('',(#658));
#154=EDGE_LOOP('',(#659));
#155=EDGE_LOOP('',(#660));
#156=EDGE_LOOP('',(#661));
#157=EDGE_LOOP('',(#662));
#158=EDGE_LOOP('',(#663,#664,#665,#666,#667,#668,#669,#670));
#159=EDGE_LOOP('',(#671,#672,#673,#674));
#160=EDGE_LOOP('',(#675,#676,#677,#678));
#161=EDGE_LOOP('',(#679,#680,#681,#682));
#162=EDGE_LOOP('',(#683,#684,#685,#686));
#163=EDGE_LOOP('',(#687,#688,#689,#690));
#164=EDGE_LOOP('',(#691,#692,#693,#694));
#165=EDGE_LOOP('',(#695,#696,#697,#698));
#166=EDGE_LOOP('',(#699,#700,#701,#702,#703,#704));
#167=EDGE_LOOP('',(#705));
#168=EDGE_LOOP('',(#706,#707,#708,#709,#710,#711));
#169=EDGE_LOOP('',(#712));
#170=CIRCLE('',#790,4.188);
#171=CIRCLE('',#792,4.188);
#172=CIRCLE('',#794,4.188);
#173=CIRCLE('',#796,4.188);
#174=CIRCLE('',#798,4.188);
#175=CIRCLE('',#800,4.188);
#176=CIRCLE('',#802,4.188);
#177=CIRCLE('',#804,4.188);
#178=CIRCLE('',#806,4.188);
#179=CIRCLE('',#808,4.188);
#180=CIRCLE('',#810,4.188);
#181=CIRCLE('',#812,4.188);
#182=CIRCLE('',#814,4.188);
#183=CIRCLE('',#816,4.188);
#184=CIRCLE('',#818,4.188);
#185=CIRCLE('',#820,4.188);
#186=CIRCLE('',#822,30.);
#187=CIRCLE('',#823,7.5);
#188=CIRCLE('',#825,7.5);
#189=CIRCLE('',#827,30.);
#190=CIRCLE('',#828,7.5);
#191=CIRCLE('',#830,7.5);
#192=CIRCLE('',#832,30.);
#193=CIRCLE('',#833,7.5);
#194=CIRCLE('',#835,7.5);
#195=CIRCLE('',#837,30.);
#196=CIRCLE('',#838,7.5);
#197=CIRCLE('',#840,7.5);
#198=CIRCLE('',#842,30.);
#199=CIRCLE('',#843,30.);
#200=CIRCLE('',#844,30.);
#201=CIRCLE('',#845,30.);
#202=CIRCLE('',#846,30.);
#203=CIRCLE('',#847,30.);
#204=CIRCLE('',#848,30.);
#205=CIRCLE('',#849,30.);
#206=CIRCLE('',#850,30.);
#207=CIRCLE('',#851,30.);
#208=CIRCLE('',#852,30.);
#209=CIRCLE('',#853,30.);
#210=CIRCLE('',#854,30.);
#211=CIRCLE('',#855,30.);
#212=CIRCLE('',#857,45.);
#213=CIRCLE('',#858,45.);
#214=CIRCLE('',#861,7.5);
#215=CIRCLE('',#863,7.5);
#216=CIRCLE('',#865,7.5);
#217=CIRCLE('',#867,7.5);
#218=CIRCLE('',#869,7.5);
#219=CIRCLE('',#871,7.5);
#220=CIRCLE('',#873,7.5);
#221=CIRCLE('',#875,7.5);
#222=CIRCLE('',#877,45.);
#223=CIRCLE('',#879,45.);
#224=CIRCLE('',#883,60.);
#225=CIRCLE('',#884,60.);
#226=CIRCLE('',#889,60.);
#227=CIRCLE('',#890,60.);
#228=LINE('',#1155,#273);
#229=LINE('',#1159,#274);
#230=LINE('',#1164,#275);
#231=LINE('',#1168,#276);
#232=LINE('',#1173,#277);
#233=LINE('',#1177,#278);
#234=LINE('',#1182,#279);
#235=LINE('',#1186,#280);
#236=LINE('',#1191,#281);
#237=LINE('',#1195,#282);
#238=LINE('',#1200,#283);
#239=LINE('',#1204,#284);
#240=LINE('',#1209,#285);
#241=LINE('',#1213,#286);
#242=LINE('',#1218,#287);
#243=LINE('',#1222,#288);
#244=LINE('',#1231,#289);
#245=LINE('',#1234,#290);
#246=LINE('',#1242,#291);
#247=LINE('',#1245,#292);
#248=LINE('',#1253,#293);
#249=LINE('',#1256,#294);
#250=LINE('',#1264,#295);
#251=LINE('',#1267,#296);
#252=LINE('',#1272,#297);
#253=LINE('',#1276,#298);
#254=LINE('',#1280,#299);
#255=LINE('',#1284,#300);
#256=LINE('',#1288,#301);
#257=LINE('',#1292,#302);
#258=LINE('',#1296,#303);
#259=LINE('',#1300,#304);
#260=LINE('',#1304,#305);
#261=LINE('',#1314,#306);
#262=LINE('',#1338,#307);
#263=LINE('',#1350,#308);
#264=LINE('',#1353,#309);
#265=LINE('',#1359,#310);
#266=LINE('',#1362,#311);
#267=LINE('',#1364,#312);
#268=LINE('',#1365,#313);
#269=LINE('',#1376,#314);
#270=LINE('',#1382,#315);
#271=LINE('',#1384,#316);
#272=LINE('',#1385,#317);
#273=VECTOR('',#898,2.094);
#274=VECTOR('',#903,4.188);
#275=VECTOR('',#908,2.094);
#276=VECTOR('',#913,4.188);
#277=VECTOR('',#918,2.094);
#278=VECTOR('',#923,4.188);
#279=VECTOR('',#928,2.094);
#280=VECTOR('',#933,4.188);
#281=VECTOR('',#938,2.094);
#282=VECTOR('',#943,4.188);
#283=VECTOR('',#948,2.094);
#284=VECTOR('',#953,4.188);
#285=VECTOR('',#958,2.094);
#286=VECTOR('',#963,4.188);
#287=VECTOR('',#968,2.094);
#288=VECTOR('',#973,4.188);
#289=VECTOR('',#984,10.);
#290=VECTOR('',#987,10.);
#291=VECTOR('',#996,10.);
#292=VECTOR('',#999,10.);
#293=VECTOR('',#1008,10.);
#294=VECTOR('',#1011,10.);
#295=VECTOR('',#1020,10.);
#296=VECTOR('',#1023,10.);
#297=VECTOR('',#1028,30.);
#298=VECTOR('',#1031,10.);
#299=VECTOR('',#1034,10.);
#300=VECTOR('',#1037,10.);
#301=VECTOR('',#1040,10.);
#302=VECTOR('',#1043,10.);
#303=VECTOR('',#1046,10.);
#304=VECTOR('',#1049,10.);
#305=VECTOR('',#1052,10.);
#306=VECTOR('',#1067,45.);
#307=VECTOR('',#1110,45.);
#308=VECTOR('',#1115,10.);
#309=VECTOR('',#1118,10.);
#310=VECTOR('',#1125,10.);
#311=VECTOR('',#1128,10.);
#312=VECTOR('',#1129,10.);
#313=VECTOR('',#1130,10.);
#314=VECTOR('',#1135,10.);
#315=VECTOR('',#1142,10.);
#316=VECTOR('',#1145,10.);
#317=VECTOR('',#1146,10.);
#318=VERTEX_POINT('',#1153);
#319=VERTEX_POINT('',#1154);
#320=VERTEX_POINT('',#1158);
#321=VERTEX_POINT('',#1162);
#322=VERTEX_POINT('',#1163);
#323=VERTEX_POINT('',#1167);
#324=VERTEX_POINT('',#1171);
#325=VERTEX_POINT('',#1172);
#326=VERTEX_POINT('',#1176);
#327=VERTEX_POINT('',#1180);
#328=VERTEX_POINT('',#1181);
#329=VERTEX_POINT('',#1185);
#330=VERTEX_POINT('',#1189);
#331=VERTEX_POINT('',#1190);
#332=VERTEX_POINT('',#1194);
#333=VERTEX_POINT('',#1198);
#334=VERTEX_POINT('',#1199);
#335=VERTEX_POINT('',#1203);
#336=VERTEX_POINT('',#1207);
#337=VERTEX_POINT('',#1208);
#338=VERTEX_POINT('',#1212);
#339=VERTEX_POINT('',#1216);
#340=VERTEX_POINT('',#1217);
#341=VERTEX_POINT('',#1221);
#342=VERTEX_POINT('',#1225);
#343=VERTEX_POINT('',#1226);
#344=VERTEX_POINT('',#1230);
#345=VERTEX_POINT('',#1232);
#346=VERTEX_POINT('',#1236);
#347=VERTEX_POINT('',#1237);
#348=VERTEX_POINT('',#1241);
#349=VERTEX_POINT('',#1243);
#350=VERTEX_POINT('',#1247);
#351=VERTEX_POINT('',#1248);
#352=VERTEX_POINT('',#1252);
#353=VERTEX_POINT('',#1254);
#354=VERTEX_POINT('',#1258);
#355=VERTEX_POINT('',#1259);
#356=VERTEX_POINT('',#1263);
#357=VERTEX_POINT('',#1265);
#358=VERTEX_POINT('',#1269);
#359=VERTEX_POINT('',#1271);
#360=VERTEX_POINT('',#1273);
#361=VERTEX_POINT('',#1275);
#362=VERTEX_POINT('',#1277);
#363=VERTEX_POINT('',#1279);
#364=VERTEX_POINT('',#1281);
#365=VERTEX_POINT('',#1283);
#366=VERTEX_POINT('',#1285);
#367=VERTEX_POINT('',#1287);
#368=VERTEX_POINT('',#1289);
#369=VERTEX_POINT('',#1291);
#370=VERTEX_POINT('',#1293);
#371=VERTEX_POINT('',#1295);
#372=VERTEX_POINT('',#1297);
#373=VERTEX_POINT('',#1299);
#374=VERTEX_POINT('',#1301);
#375=VERTEX_POINT('',#1303);
#376=VERTEX_POINT('',#1311);
#377=VERTEX_POINT('',#1313);
#378=VERTEX_POINT('',#1334);
#379=VERTEX_POINT('',#1337);
#380=VERTEX_POINT('',#1346);
#381=VERTEX_POINT('',#1347);
#382=VERTEX_POINT('',#1349);
#383=VERTEX_POINT('',#1351);
#384=VERTEX_POINT('',#1355);
#385=VERTEX_POINT('',#1357);
#386=VERTEX_POINT('',#1361);
#387=VERTEX_POINT('',#1363);
#388=VERTEX_POINT('',#1372);
#389=VERTEX_POINT('',#1374);
#390=VERTEX_POINT('',#1378);
#391=VERTEX_POINT('',#1380);
#392=EDGE_CURVE('',#318,#319,#228,.T.);
#393=EDGE_CURVE('',#319,#319,#170,.T.);
#394=EDGE_CURVE('',#319,#320,#229,.T.);
#395=EDGE_CURVE('',#320,#320,#171,.T.);
#396=EDGE_CURVE('',#321,#322,#230,.T.);
#397=EDGE_CURVE('',#322,#322,#172,.T.);
#398=EDGE_CURVE('',#322,#323,#231,.T.);
#399=EDGE_CURVE('',#323,#323,#173,.T.);
#400=EDGE_CURVE('',#324,#325,#232,.T.);
#401=EDGE_CURVE('',#325,#325,#174,.T.);
#402=EDGE_CURVE('',#325,#326,#233,.T.);
#403=EDGE_CURVE('',#326,#326,#175,.T.);
#404=EDGE_CURVE('',#327,#328,#234,.T.);
#405=EDGE_CURVE('',#328,#328,#176,.T.);
#406=EDGE_CURVE('',#328,#329,#235,.T.);
#407=EDGE_CURVE('',#329,#329,#177,.T.);
#408=EDGE_CURVE('',#330,#331,#236,.T.);
#409=EDGE_CURVE('',#331,#331,#178,.T.);
#410=EDGE_CURVE('',#331,#332,#237,.T.);
#411=EDGE_CURVE('',#332,#332,#179,.T.);
#412=EDGE_CURVE('',#333,#334,#238,.T.);
#413=EDGE_CURVE('',#334,#334,#180,.T.);
#414=EDGE_CURVE('',#334,#335,#239,.T.);
#415=EDGE_CURVE('',#335,#335,#181,.T.);
#416=EDGE_CURVE('',#336,#337,#240,.T.);
#417=EDGE_CURVE('',#337,#337,#182,.T.);
#418=EDGE_CURVE('',#337,#338,#241,.T.);
#419=EDGE_CURVE('',#338,#338,#183,.T.);
#420=EDGE_CURVE('',#339,#340,#242,.T.);
#421=EDGE_CURVE('',#340,#340,#184,.T.);
#422=EDGE_CURVE('',#340,#341,#243,.T.);
#423=EDGE_CURVE('',#341,#341,#185,.T.);
#424=EDGE_CURVE('',#342,#343,#186,.T.);
#425=EDGE_CURVE('',#342,#343,#187,.T.);
#426=EDGE_CURVE('',#344,#342,#244,.T.);
#427=EDGE_CURVE('',#345,#344,#188,.T.);
#428=EDGE_CURVE('',#343,#345,#245,.T.);
#429=EDGE_CURVE('',#346,#347,#189,.T.);
#430=EDGE_CURVE('',#346,#347,#190,.T.);
#431=EDGE_CURVE('',#348,#346,#246,.T.);
#432=EDGE_CURVE('',#349,#348,#191,.T.);
#433=EDGE_CURVE('',#347,#349,#247,.T.);
#434=EDGE_CURVE('',#350,#351,#192,.T.);
#435=EDGE_CURVE('',#350,#351,#193,.T.);
#436=EDGE_CURVE('',#352,#350,#248,.T.);
#437=EDGE_CURVE('',#353,#352,#194,.T.);
#438=EDGE_CURVE('',#351,#353,#249,.T.);
#439=EDGE_CURVE('',#354,#355,#195,.T.);
#440=EDGE_CURVE('',#354,#355,#196,.T.);
#441=EDGE_CURVE('',#356,#354,#250,.T.);
#442=EDGE_CURVE('',#357,#356,#197,.T.);
#443=EDGE_CURVE('',#355,#357,#251,.T.);
#444=EDGE_CURVE('',#349,#358,#198,.T.);
#445=EDGE_CURVE('',#358,#359,#252,.T.);
#446=EDGE_CURVE('',#359,#360,#199,.T.);
#447=EDGE_CURVE('',#360,#361,#253,.T.);
#448=EDGE_CURVE('',#361,#362,#200,.T.);
#449=EDGE_CURVE('',#362,#363,#254,.T.);
#450=EDGE_CURVE('',#363,#364,#201,.T.);
#451=EDGE_CURVE('',#364,#365,#255,.T.);
#452=EDGE_CURVE('',#365,#366,#202,.T.);
#453=EDGE_CURVE('',#366,#367,#256,.T.);
#454=EDGE_CURVE('',#367,#368,#203,.T.);
#455=EDGE_CURVE('',#368,#369,#257,.T.);
#456=EDGE_CURVE('',#369,#370,#204,.T.);
#457=EDGE_CURVE('',#370,#371,#258,.T.);
#458=EDGE_CURVE('',#371,#372,#205,.T.);
#459=EDGE_CURVE('',#372,#373,#259,.T.);
#460=EDGE_CURVE('',#373,#374,#206,.T.);
#461=EDGE_CURVE('',#374,#375,#260,.T.);
#462=EDGE_CURVE('',#375,#359,#207,.T.);
#463=EDGE_CURVE('',#358,#352,#208,.T.);
#464=EDGE_CURVE('',#353,#356,#209,.T.);
#465=EDGE_CURVE('',#357,#344,#210,.T.);
#466=EDGE_CURVE('',#345,#348,#211,.T.);
#467=EDGE_CURVE('',#376,#376,#212,.T.);
#468=EDGE_CURVE('',#376,#377,#261,.T.);
#469=EDGE_CURVE('',#377,#377,#213,.T.);
#470=EDGE_CURVE('',#367,#368,#214,.T.);
#471=EDGE_CURVE('',#369,#366,#215,.T.);
#472=EDGE_CURVE('',#363,#364,#216,.T.);
#473=EDGE_CURVE('',#365,#362,#217,.T.);
#474=EDGE_CURVE('',#375,#360,#218,.T.);
#475=EDGE_CURVE('',#361,#374,#219,.T.);
#476=EDGE_CURVE('',#371,#372,#220,.T.);
#477=EDGE_CURVE('',#373,#370,#221,.T.);
#478=EDGE_CURVE('',#378,#378,#222,.T.);
#479=EDGE_CURVE('',#378,#379,#262,.T.);
#480=EDGE_CURVE('',#379,#379,#223,.T.);
#481=EDGE_CURVE('',#380,#381,#15,.T.);
#482=EDGE_CURVE('',#381,#382,#263,.T.);
#483=EDGE_CURVE('',#383,#382,#16,.T.);
#484=EDGE_CURVE('',#380,#383,#264,.T.);
#485=EDGE_CURVE('',#384,#380,#224,.T.);
#486=EDGE_CURVE('',#385,#383,#225,.T.);
#487=EDGE_CURVE('',#384,#385,#265,.T.);
#488=EDGE_CURVE('',#386,#384,#266,.T.);
#489=EDGE_CURVE('',#387,#385,#267,.T.);
#490=EDGE_CURVE('',#386,#387,#268,.T.);
#491=EDGE_CURVE('',#388,#386,#17,.T.);
#492=EDGE_CURVE('',#389,#387,#18,.T.);
#493=EDGE_CURVE('',#388,#389,#269,.T.);
#494=EDGE_CURVE('',#390,#388,#226,.T.);
#495=EDGE_CURVE('',#391,#389,#227,.T.);
#496=EDGE_CURVE('',#390,#391,#270,.T.);
#497=EDGE_CURVE('',#381,#390,#271,.T.);
#498=EDGE_CURVE('',#382,#391,#272,.T.);
#499=ORIENTED_EDGE('',*,*,#392,.T.);
#500=ORIENTED_EDGE('',*,*,#393,.T.);
#501=ORIENTED_EDGE('',*,*,#392,.F.);
#502=ORIENTED_EDGE('',*,*,#393,.F.);
#503=ORIENTED_EDGE('',*,*,#394,.T.);
#504=ORIENTED_EDGE('',*,*,#395,.F.);
#505=ORIENTED_EDGE('',*,*,#394,.F.);
#506=ORIENTED_EDGE('',*,*,#396,.T.);
#507=ORIENTED_EDGE('',*,*,#397,.T.);
#508=ORIENTED_EDGE('',*,*,#396,.F.);
#509=ORIENTED_EDGE('',*,*,#397,.F.);
#510=ORIENTED_EDGE('',*,*,#398,.T.);
#511=ORIENTED_EDGE('',*,*,#399,.F.);
#512=ORIENTED_EDGE('',*,*,#398,.F.);
#513=ORIENTED_EDGE('',*,*,#400,.T.);
#514=ORIENTED_EDGE('',*,*,#401,.T.);
#515=ORIENTED_EDGE('',*,*,#400,.F.);
#516=ORIENTED_EDGE('',*,*,#401,.F.);
#517=ORIENTED_EDGE('',*,*,#402,.T.);
#518=ORIENTED_EDGE('',*,*,#403,.F.);
#519=ORIENTED_EDGE('',*,*,#402,.F.);
#520=ORIENTED_EDGE('',*,*,#404,.T.);
#521=ORIENTED_EDGE('',*,*,#405,.T.);
#522=ORIENTED_EDGE('',*,*,#404,.F.);
#523=ORIENTED_EDGE('',*,*,#405,.F.);
#524=ORIENTED_EDGE('',*,*,#406,.T.);
#525=ORIENTED_EDGE('',*,*,#407,.F.);
#526=ORIENTED_EDGE('',*,*,#406,.F.);
#527=ORIENTED_EDGE('',*,*,#408,.T.);
#528=ORIENTED_EDGE('',*,*,#409,.T.);
#529=ORIENTED_EDGE('',*,*,#408,.F.);
#530=ORIENTED_EDGE('',*,*,#409,.F.);
#531=ORIENTED_EDGE('',*,*,#410,.T.);
#532=ORIENTED_EDGE('',*,*,#411,.F.);
#533=ORIENTED_EDGE('',*,*,#410,.F.);
#534=ORIENTED_EDGE('',*,*,#412,.T.);
#535=ORIENTED_EDGE('',*,*,#413,.T.);
#536=ORIENTED_EDGE('',*,*,#412,.F.);
#537=ORIENTED_EDGE('',*,*,#413,.F.);
#538=ORIENTED_EDGE('',*,*,#414,.T.);
#539=ORIENTED_EDGE('',*,*,#415,.F.);
#540=ORIENTED_EDGE('',*,*,#414,.F.);
#541=ORIENTED_EDGE('',*,*,#416,.T.);
#542=ORIENTED_EDGE('',*,*,#417,.T.);
#543=ORIENTED_EDGE('',*,*,#416,.F.);
#544=ORIENTED_EDGE('',*,*,#417,.F.);
#545=ORIENTED_EDGE('',*,*,#418,.T.);
#546=ORIENTED_EDGE('',*,*,#419,.F.);
#547=ORIENTED_EDGE('',*,*,#418,.F.);
#548=ORIENTED_EDGE('',*,*,#420,.T.);
#549=ORIENTED_EDGE('',*,*,#421,.T.);
#550=ORIENTED_EDGE('',*,*,#420,.F.);
#551=ORIENTED_EDGE('',*,*,#421,.F.);
#552=ORIENTED_EDGE('',*,*,#422,.T.);
#553=ORIENTED_EDGE('',*,*,#423,.F.);
#554=ORIENTED_EDGE('',*,*,#422,.F.);
#555=ORIENTED_EDGE('',*,*,#424,.F.);
#556=ORIENTED_EDGE('',*,*,#425,.T.);
#557=ORIENTED_EDGE('',*,*,#426,.F.);
#558=ORIENTED_EDGE('',*,*,#427,.F.);
#559=ORIENTED_EDGE('',*,*,#428,.F.);
#560=ORIENTED_EDGE('',*,*,#425,.F.);
#561=ORIENTED_EDGE('',*,*,#429,.F.);
#562=ORIENTED_EDGE('',*,*,#430,.T.);
#563=ORIENTED_EDGE('',*,*,#431,.F.);
#564=ORIENTED_EDGE('',*,*,#432,.F.);
#565=ORIENTED_EDGE('',*,*,#433,.F.);
#566=ORIENTED_EDGE('',*,*,#430,.F.);
#567=ORIENTED_EDGE('',*,*,#434,.F.);
#568=ORIENTED_EDGE('',*,*,#435,.T.);
#569=ORIENTED_EDGE('',*,*,#436,.F.);
#570=ORIENTED_EDGE('',*,*,#437,.F.);
#571=ORIENTED_EDGE('',*,*,#438,.F.);
#572=ORIENTED_EDGE('',*,*,#435,.F.);
#573=ORIENTED_EDGE('',*,*,#439,.F.);
#574=ORIENTED_EDGE('',*,*,#440,.T.);
#575=ORIENTED_EDGE('',*,*,#441,.F.);
#576=ORIENTED_EDGE('',*,*,#442,.F.);
#577=ORIENTED_EDGE('',*,*,#443,.F.);
#578=ORIENTED_EDGE('',*,*,#440,.F.);
#579=ORIENTED_EDGE('',*,*,#444,.T.);
#580=ORIENTED_EDGE('',*,*,#445,.T.);
#581=ORIENTED_EDGE('',*,*,#446,.T.);
#582=ORIENTED_EDGE('',*,*,#447,.T.);
#583=ORIENTED_EDGE('',*,*,#448,.T.);
#584=ORIENTED_EDGE('',*,*,#449,.T.);
#585=ORIENTED_EDGE('',*,*,#450,.T.);
#586=ORIENTED_EDGE('',*,*,#451,.T.);
#587=ORIENTED_EDGE('',*,*,#452,.T.);
#588=ORIENTED_EDGE('',*,*,#453,.T.);
#589=ORIENTED_EDGE('',*,*,#454,.T.);
#590=ORIENTED_EDGE('',*,*,#455,.T.);
#591=ORIENTED_EDGE('',*,*,#456,.T.);
#592=ORIENTED_EDGE('',*,*,#457,.T.);
#593=ORIENTED_EDGE('',*,*,#458,.T.);
#594=ORIENTED_EDGE('',*,*,#459,.T.);
#595=ORIENTED_EDGE('',*,*,#460,.T.);
#596=ORIENTED_EDGE('',*,*,#461,.T.);
#597=ORIENTED_EDGE('',*,*,#462,.T.);
#598=ORIENTED_EDGE('',*,*,#445,.F.);
#599=ORIENTED_EDGE('',*,*,#463,.T.);
#600=ORIENTED_EDGE('',*,*,#436,.T.);
#601=ORIENTED_EDGE('',*,*,#434,.T.);
#602=ORIENTED_EDGE('',*,*,#438,.T.);
#603=ORIENTED_EDGE('',*,*,#464,.T.);
#604=ORIENTED_EDGE('',*,*,#441,.T.);
#605=ORIENTED_EDGE('',*,*,#439,.T.);
#606=ORIENTED_EDGE('',*,*,#443,.T.);
#607=ORIENTED_EDGE('',*,*,#465,.T.);
#608=ORIENTED_EDGE('',*,*,#426,.T.);
#609=ORIENTED_EDGE('',*,*,#424,.T.);
#610=ORIENTED_EDGE('',*,*,#428,.T.);
#611=ORIENTED_EDGE('',*,*,#466,.T.);
#612=ORIENTED_EDGE('',*,*,#431,.T.);
#613=ORIENTED_EDGE('',*,*,#429,.T.);
#614=ORIENTED_EDGE('',*,*,#433,.T.);
#615=ORIENTED_EDGE('',*,*,#467,.F.);
#616=ORIENTED_EDGE('',*,*,#468,.T.);
#617=ORIENTED_EDGE('',*,*,#469,.F.);
#618=ORIENTED_EDGE('',*,*,#468,.F.);
#619=ORIENTED_EDGE('',*,*,#467,.T.);
#620=ORIENTED_EDGE('',*,*,#411,.T.);
#621=ORIENTED_EDGE('',*,*,#415,.T.);
#622=ORIENTED_EDGE('',*,*,#419,.T.);
#623=ORIENTED_EDGE('',*,*,#423,.T.);
#624=ORIENTED_EDGE('',*,*,#427,.T.);
#625=ORIENTED_EDGE('',*,*,#465,.F.);
#626=ORIENTED_EDGE('',*,*,#442,.T.);
#627=ORIENTED_EDGE('',*,*,#464,.F.);
#628=ORIENTED_EDGE('',*,*,#437,.T.);
#629=ORIENTED_EDGE('',*,*,#463,.F.);
#630=ORIENTED_EDGE('',*,*,#444,.F.);
#631=ORIENTED_EDGE('',*,*,#432,.T.);
#632=ORIENTED_EDGE('',*,*,#466,.F.);
#633=ORIENTED_EDGE('',*,*,#454,.F.);
#634=ORIENTED_EDGE('',*,*,#470,.T.);
#635=ORIENTED_EDGE('',*,*,#453,.F.);
#636=ORIENTED_EDGE('',*,*,#471,.F.);
#637=ORIENTED_EDGE('',*,*,#455,.F.);
#638=ORIENTED_EDGE('',*,*,#470,.F.);
#639=ORIENTED_EDGE('',*,*,#450,.F.);
#640=ORIENTED_EDGE('',*,*,#472,.T.);
#641=ORIENTED_EDGE('',*,*,#449,.F.);
#642=ORIENTED_EDGE('',*,*,#473,.F.);
#643=ORIENTED_EDGE('',*,*,#451,.F.);
#644=ORIENTED_EDGE('',*,*,#472,.F.);
#645=ORIENTED_EDGE('',*,*,#462,.F.);
#646=ORIENTED_EDGE('',*,*,#474,.T.);
#647=ORIENTED_EDGE('',*,*,#446,.F.);
#648=ORIENTED_EDGE('',*,*,#461,.F.);
#649=ORIENTED_EDGE('',*,*,#475,.F.);
#650=ORIENTED_EDGE('',*,*,#447,.F.);
#651=ORIENTED_EDGE('',*,*,#474,.F.);
#652=ORIENTED_EDGE('',*,*,#458,.F.);
#653=ORIENTED_EDGE('',*,*,#476,.T.);
#654=ORIENTED_EDGE('',*,*,#457,.F.);
#655=ORIENTED_EDGE('',*,*,#477,.F.);
#656=ORIENTED_EDGE('',*,*,#459,.F.);
#657=ORIENTED_EDGE('',*,*,#476,.F.);
#658=ORIENTED_EDGE('',*,*,#478,.T.);
#659=ORIENTED_EDGE('',*,*,#395,.T.);
#660=ORIENTED_EDGE('',*,*,#399,.T.);
#661=ORIENTED_EDGE('',*,*,#403,.T.);
#662=ORIENTED_EDGE('',*,*,#407,.T.);
#663=ORIENTED_EDGE('',*,*,#471,.T.);
#664=ORIENTED_EDGE('',*,*,#452,.F.);
#665=ORIENTED_EDGE('',*,*,#473,.T.);
#666=ORIENTED_EDGE('',*,*,#448,.F.);
#667=ORIENTED_EDGE('',*,*,#475,.T.);
#668=ORIENTED_EDGE('',*,*,#460,.F.);
#669=ORIENTED_EDGE('',*,*,#477,.T.);
#670=ORIENTED_EDGE('',*,*,#456,.F.);
#671=ORIENTED_EDGE('',*,*,#478,.F.);
#672=ORIENTED_EDGE('',*,*,#479,.T.);
#673=ORIENTED_EDGE('',*,*,#480,.F.);
#674=ORIENTED_EDGE('',*,*,#479,.F.);
#675=ORIENTED_EDGE('',*,*,#481,.T.);
#676=ORIENTED_EDGE('',*,*,#482,.T.);
#677=ORIENTED_EDGE('',*,*,#483,.F.);
#678=ORIENTED_EDGE('',*,*,#484,.F.);
#679=ORIENTED_EDGE('',*,*,#485,.T.);
#680=ORIENTED_EDGE('',*,*,#484,.T.);
#681=ORIENTED_EDGE('',*,*,#486,.F.);
#682=ORIENTED_EDGE('',*,*,#487,.F.);
#683=ORIENTED_EDGE('',*,*,#488,.T.);
#684=ORIENTED_EDGE('',*,*,#487,.T.);
#685=ORIENTED_EDGE('',*,*,#489,.F.);
#686=ORIENTED_EDGE('',*,*,#490,.F.);
#687=ORIENTED_EDGE('',*,*,#491,.T.);
#688=ORIENTED_EDGE('',*,*,#490,.T.);
#689=ORIENTED_EDGE('',*,*,#492,.F.);
#690=ORIENTED_EDGE('',*,*,#493,.F.);
#691=ORIENTED_EDGE('',*,*,#494,.T.);
#692=ORIENTED_EDGE('',*,*,#493,.T.);
#693=ORIENTED_EDGE('',*,*,#495,.F.);
#694=ORIENTED_EDGE('',*,*,#496,.F.);
#695=ORIENTED_EDGE('',*,*,#497,.T.);
#696=ORIENTED_EDGE('',*,*,#496,.T.);
#697=ORIENTED_EDGE('',*,*,#498,.F.);
#698=ORIENTED_EDGE('',*,*,#482,.F.);
#699=ORIENTED_EDGE('',*,*,#498,.T.);
#700=ORIENTED_EDGE('',*,*,#495,.T.);
#701=ORIENTED_EDGE('',*,*,#492,.T.);
#702=ORIENTED_EDGE('',*,*,#489,.T.);
#703=ORIENTED_EDGE('',*,*,#486,.T.);
#704=ORIENTED_EDGE('',*,*,#483,.T.);
#705=ORIENTED_EDGE('',*,*,#469,.T.);
#706=ORIENTED_EDGE('',*,*,#497,.F.);
#707=ORIENTED_EDGE('',*,*,#481,.F.);
#708=ORIENTED_EDGE('',*,*,#485,.F.);
#709=ORIENTED_EDGE('',*,*,#488,.F.);
#710=ORIENTED_EDGE('',*,*,#491,.F.);
#711=ORIENTED_EDGE('',*,*,#494,.F.);
#712=ORIENTED_EDGE('',*,*,#480,.T.);
#713=CONICAL_SURFACE('',#789,2.094,1.0471975511966);
#714=CONICAL_SURFACE('',#793,2.094,1.0471975511966);
#715=CONICAL_SURFACE('',#797,2.094,1.0471975511966);
#716=CONICAL_SURFACE('',#801,2.094,1.0471975511966);
#717=CONICAL_SURFACE('',#805,2.094,1.0471975511966);
#718=CONICAL_SURFACE('',#809,2.094,1.0471975511966);
#719=CONICAL_SURFACE('',#813,2.094,1.0471975511966);
#720=CONICAL_SURFACE('',#817,2.094,1.0471975511966);
#721=ADVANCED_FACE('',(#68),#713,.F.);
#722=ADVANCED_FACE('',(#69),#47,.F.);
#723=ADVANCED_FACE('',(#70),#714,.F.);
#724=ADVANCED_FACE('',(#71),#48,.F.);
#725=ADVANCED_FACE('',(#72),#715,.F.);
#726=ADVANCED_FACE('',(#73),#49,.F.);
#727=ADVANCED_FACE('',(#74),#716,.F.);
#728=ADVANCED_FACE('',(#75),#50,.F.);
#729=ADVANCED_FACE('',(#76),#717,.F.);
#730=ADVANCED_FACE('',(#77),#51,.F.);
#731=ADVANCED_FACE('',(#78),#718,.F.);
#732=ADVANCED_FACE('',(#79),#52,.F.);
#733=ADVANCED_FACE('',(#80),#719,.F.);
#734=ADVANCED_FACE('',(#81),#53,.F.);
#735=ADVANCED_FACE('',(#82),#720,.F.);
#736=ADVANCED_FACE('',(#83),#54,.F.);
#737=ADVANCED_FACE('',(#84),#33,.T.);
#738=ADVANCED_FACE('',(#85),#55,.F.);
#739=ADVANCED_FACE('',(#86),#34,.T.);
#740=ADVANCED_FACE('',(#87),#56,.F.);
#741=ADVANCED_FACE('',(#88),#35,.T.);
#742=ADVANCED_FACE('',(#89),#57,.F.);
#743=ADVANCED_FACE('',(#90),#36,.T.);
#744=ADVANCED_FACE('',(#91),#58,.F.);
#745=ADVANCED_FACE('',(#92),#59,.F.);
#746=ADVANCED_FACE('',(#93),#60,.F.);
#747=ADVANCED_FACE('',(#94,#21,#22,#23,#24,#25),#37,.T.);
#748=ADVANCED_FACE('',(#95),#38,.T.);
#749=ADVANCED_FACE('',(#96),#61,.F.);
#750=ADVANCED_FACE('',(#97),#39,.T.);
#751=ADVANCED_FACE('',(#98),#62,.F.);
#752=ADVANCED_FACE('',(#99),#40,.T.);
#753=ADVANCED_FACE('',(#100),#63,.F.);
#754=ADVANCED_FACE('',(#101),#41,.T.);
#755=ADVANCED_FACE('',(#102),#64,.F.);
#756=ADVANCED_FACE('',(#103,#26,#27,#28,#29,#30),#42,.T.);
#757=ADVANCED_FACE('',(#104),#65,.F.);
#758=ADVANCED_FACE('',(#105),#19,.T.);
#759=ADVANCED_FACE('',(#106),#66,.T.);
#760=ADVANCED_FACE('',(#107),#43,.T.);
#761=ADVANCED_FACE('',(#108),#20,.T.);
#762=ADVANCED_FACE('',(#109),#67,.T.);
#763=ADVANCED_FACE('',(#110),#44,.T.);
#764=ADVANCED_FACE('',(#111,#31),#45,.T.);
#765=ADVANCED_FACE('',(#112,#32),#46,.F.);
#766=CLOSED_SHELL('',(#721,#722,#723,#724,#725,#726,#727,#728,#729,#730,
#731,#732,#733,#734,#735,#736,#737,#738,#739,#740,#741,#742,#743,#744,#745,
#746,#747,#748,#749,#750,#751,#752,#753,#754,#755,#756,#757,#758,#759,#760,
#761,#762,#763,#764,#765));
#767=DERIVED_UNIT_ELEMENT(#770,1.);
#768=DERIVED_UNIT_ELEMENT(#1393,-3.);
#769=DIMENSIONAL_EXPONENTS(0.,1.,0.,0.,0.,0.,0.);
#770=(
CONVERSION_BASED_UNIT('gram',#772)
MASS_UNIT()
NAMED_UNIT(#769)
);
#771=(
MASS_UNIT()
NAMED_UNIT(*)
SI_UNIT(.KILO.,.GRAM.)
);
#772=MASS_MEASURE_WITH_UNIT(MASS_MEASURE(0.001),#771);
#773=DERIVED_UNIT((#767,#768));
#774=MEASURE_REPRESENTATION_ITEM('density measure',
POSITIVE_RATIO_MEASURE(7.85),#773);
#775=PROPERTY_DEFINITION_REPRESENTATION(#780,#777);
#776=PROPERTY_DEFINITION_REPRESENTATION(#781,#778);
#777=REPRESENTATION('material name',(#779),#1390);
#778=REPRESENTATION('density',(#774),#1390);
#779=DESCRIPTIVE_REPRESENTATION_ITEM('\X2\042104420430043B044C\X0\, \X2\043B0438044204350439043D0430044F\X0\',
'\X2\042104420430043B044C\X0\, \X2\043B0438044204350439043D0430044F\X0\');
#780=PROPERTY_DEFINITION('material property','material name',#1400);
#781=PROPERTY_DEFINITION('material property','density of part',#1400);
#782=DATE_TIME_ROLE('creation_date');
#783=APPLIED_DATE_AND_TIME_ASSIGNMENT(#784,#782,(#1400));
#784=DATE_AND_TIME(#785,#786);
#785=CALENDAR_DATE(2025,29,3);
#786=LOCAL_TIME(20,27,26.,#787);
#787=COORDINATED_UNIVERSAL_TIME_OFFSET(0,0,.BEHIND.);
#788=AXIS2_PLACEMENT_3D('',#1151,#894,#895);
#789=AXIS2_PLACEMENT_3D('',#1152,#896,#897);
#790=AXIS2_PLACEMENT_3D('',#1156,#899,#900);
#791=AXIS2_PLACEMENT_3D('',#1157,#901,#902);
#792=AXIS2_PLACEMENT_3D('',#1160,#904,#905);
#793=AXIS2_PLACEMENT_3D('',#1161,#906,#907);
#794=AXIS2_PLACEMENT_3D('',#1165,#909,#910);
#795=AXIS2_PLACEMENT_3D('',#1166,#911,#912);
#796=AXIS2_PLACEMENT_3D('',#1169,#914,#915);
#797=AXIS2_PLACEMENT_3D('',#1170,#916,#917);
#798=AXIS2_PLACEMENT_3D('',#1174,#919,#920);
#799=AXIS2_PLACEMENT_3D('',#1175,#921,#922);
#800=AXIS2_PLACEMENT_3D('',#1178,#924,#925);
#801=AXIS2_PLACEMENT_3D('',#1179,#926,#927);
#802=AXIS2_PLACEMENT_3D('',#1183,#929,#930);
#803=AXIS2_PLACEMENT_3D('',#1184,#931,#932);
#804=AXIS2_PLACEMENT_3D('',#1187,#934,#935);
#805=AXIS2_PLACEMENT_3D('',#1188,#936,#937);
#806=AXIS2_PLACEMENT_3D('',#1192,#939,#940);
#807=AXIS2_PLACEMENT_3D('',#1193,#941,#942);
#808=AXIS2_PLACEMENT_3D('',#1196,#944,#945);
#809=AXIS2_PLACEMENT_3D('',#1197,#946,#947);
#810=AXIS2_PLACEMENT_3D('',#1201,#949,#950);
#811=AXIS2_PLACEMENT_3D('',#1202,#951,#952);
#812=AXIS2_PLACEMENT_3D('',#1205,#954,#955);
#813=AXIS2_PLACEMENT_3D('',#1206,#956,#957);
#814=AXIS2_PLACEMENT_3D('',#1210,#959,#960);
#815=AXIS2_PLACEMENT_3D('',#1211,#961,#962);
#816=AXIS2_PLACEMENT_3D('',#1214,#964,#965);
#817=AXIS2_PLACEMENT_3D('',#1215,#966,#967);
#818=AXIS2_PLACEMENT_3D('',#1219,#969,#970);
#819=AXIS2_PLACEMENT_3D('',#1220,#971,#972);
#820=AXIS2_PLACEMENT_3D('',#1223,#974,#975);
#821=AXIS2_PLACEMENT_3D('',#1224,#976,#977);
#822=AXIS2_PLACEMENT_3D('',#1227,#978,#979);
#823=AXIS2_PLACEMENT_3D('',#1228,#980,#981);
#824=AXIS2_PLACEMENT_3D('',#1229,#982,#983);
#825=AXIS2_PLACEMENT_3D('',#1233,#985,#986);
#826=AXIS2_PLACEMENT_3D('',#1235,#988,#989);
#827=AXIS2_PLACEMENT_3D('',#1238,#990,#991);
#828=AXIS2_PLACEMENT_3D('',#1239,#992,#993);
#829=AXIS2_PLACEMENT_3D('',#1240,#994,#995);
#830=AXIS2_PLACEMENT_3D('',#1244,#997,#998);
#831=AXIS2_PLACEMENT_3D('',#1246,#1000,#1001);
#832=AXIS2_PLACEMENT_3D('',#1249,#1002,#1003);
#833=AXIS2_PLACEMENT_3D('',#1250,#1004,#1005);
#834=AXIS2_PLACEMENT_3D('',#1251,#1006,#1007);
#835=AXIS2_PLACEMENT_3D('',#1255,#1009,#1010);
#836=AXIS2_PLACEMENT_3D('',#1257,#1012,#1013);
#837=AXIS2_PLACEMENT_3D('',#1260,#1014,#1015);
#838=AXIS2_PLACEMENT_3D('',#1261,#1016,#1017);
#839=AXIS2_PLACEMENT_3D('',#1262,#1018,#1019);
#840=AXIS2_PLACEMENT_3D('',#1266,#1021,#1022);
#841=AXIS2_PLACEMENT_3D('',#1268,#1024,#1025);
#842=AXIS2_PLACEMENT_3D('',#1270,#1026,#1027);
#843=AXIS2_PLACEMENT_3D('',#1274,#1029,#1030);
#844=AXIS2_PLACEMENT_3D('',#1278,#1032,#1033);
#845=AXIS2_PLACEMENT_3D('',#1282,#1035,#1036);
#846=AXIS2_PLACEMENT_3D('',#1286,#1038,#1039);
#847=AXIS2_PLACEMENT_3D('',#1290,#1041,#1042);
#848=AXIS2_PLACEMENT_3D('',#1294,#1044,#1045);
#849=AXIS2_PLACEMENT_3D('',#1298,#1047,#1048);
#850=AXIS2_PLACEMENT_3D('',#1302,#1050,#1051);
#851=AXIS2_PLACEMENT_3D('',#1305,#1053,#1054);
#852=AXIS2_PLACEMENT_3D('',#1306,#1055,#1056);
#853=AXIS2_PLACEMENT_3D('',#1307,#1057,#1058);
#854=AXIS2_PLACEMENT_3D('',#1308,#1059,#1060);
#855=AXIS2_PLACEMENT_3D('',#1309,#1061,#1062);
#856=AXIS2_PLACEMENT_3D('',#1310,#1063,#1064);
#857=AXIS2_PLACEMENT_3D('',#1312,#1065,#1066);
#858=AXIS2_PLACEMENT_3D('',#1315,#1068,#1069);
#859=AXIS2_PLACEMENT_3D('',#1316,#1070,#1071);
#860=AXIS2_PLACEMENT_3D('',#1317,#1072,#1073);
#861=AXIS2_PLACEMENT_3D('',#1318,#1074,#1075);
#862=AXIS2_PLACEMENT_3D('',#1319,#1076,#1077);
#863=AXIS2_PLACEMENT_3D('',#1320,#1078,#1079);
#864=AXIS2_PLACEMENT_3D('',#1321,#1080,#1081);
#865=AXIS2_PLACEMENT_3D('',#1322,#1082,#1083);
#866=AXIS2_PLACEMENT_3D('',#1323,#1084,#1085);
#867=AXIS2_PLACEMENT_3D('',#1324,#1086,#1087);
#868=AXIS2_PLACEMENT_3D('',#1325,#1088,#1089);
#869=AXIS2_PLACEMENT_3D('',#1326,#1090,#1091);
#870=AXIS2_PLACEMENT_3D('',#1327,#1092,#1093);
#871=AXIS2_PLACEMENT_3D('',#1328,#1094,#1095);
#872=AXIS2_PLACEMENT_3D('',#1329,#1096,#1097);
#873=AXIS2_PLACEMENT_3D('',#1330,#1098,#1099);
#874=AXIS2_PLACEMENT_3D('',#1331,#1100,#1101);
#875=AXIS2_PLACEMENT_3D('',#1332,#1102,#1103);
#876=AXIS2_PLACEMENT_3D('',#1333,#1104,#1105);
#877=AXIS2_PLACEMENT_3D('',#1335,#1106,#1107);
#878=AXIS2_PLACEMENT_3D('',#1336,#1108,#1109);
#879=AXIS2_PLACEMENT_3D('',#1339,#1111,#1112);
#880=AXIS2_PLACEMENT_3D('',#1348,#1113,#1114);
#881=AXIS2_PLACEMENT_3D('',#1352,#1116,#1117);
#882=AXIS2_PLACEMENT_3D('',#1354,#1119,#1120);
#883=AXIS2_PLACEMENT_3D('',#1356,#1121,#1122);
#884=AXIS2_PLACEMENT_3D('',#1358,#1123,#1124);
#885=AXIS2_PLACEMENT_3D('',#1360,#1126,#1127);
#886=AXIS2_PLACEMENT_3D('',#1373,#1131,#1132);
#887=AXIS2_PLACEMENT_3D('',#1375,#1133,#1134);
#888=AXIS2_PLACEMENT_3D('',#1377,#1136,#1137);
#889=AXIS2_PLACEMENT_3D('',#1379,#1138,#1139);
#890=AXIS2_PLACEMENT_3D('',#1381,#1140,#1141);
#891=AXIS2_PLACEMENT_3D('',#1383,#1143,#1144);
#892=AXIS2_PLACEMENT_3D('',#1386,#1147,#1148);
#893=AXIS2_PLACEMENT_3D('',#1387,#1149,#1150);
#894=DIRECTION('axis',(0.,0.,1.));
#895=DIRECTION('refdir',(1.,0.,0.));
#896=DIRECTION('center_axis',(0.,-1.,0.));
#897=DIRECTION('ref_axis',(1.,0.,0.));
#898=DIRECTION('',(-0.86602540378444,-0.499999999999998,-1.06057523872491E-16));
#899=DIRECTION('center_axis',(0.,-1.,0.));
#900=DIRECTION('ref_axis',(1.,0.,0.));
#901=DIRECTION('center_axis',(0.,-1.,0.));
#902=DIRECTION('ref_axis',(1.,0.,0.));
#903=DIRECTION('',(0.,-1.,0.));
#904=DIRECTION('center_axis',(0.,1.,0.));
#905=DIRECTION('ref_axis',(1.,0.,0.));
#906=DIRECTION('center_axis',(0.,-1.,0.));
#907=DIRECTION('ref_axis',(1.,0.,0.));
#908=DIRECTION('',(-0.86602540378444,-0.499999999999998,-1.06057523872491E-16));
#909=DIRECTION('center_axis',(0.,-1.,0.));
#910=DIRECTION('ref_axis',(1.,0.,0.));
#911=DIRECTION('center_axis',(0.,-1.,0.));
#912=DIRECTION('ref_axis',(1.,0.,0.));
#913=DIRECTION('',(0.,-1.,0.));
#914=DIRECTION('center_axis',(0.,1.,0.));
#915=DIRECTION('ref_axis',(1.,0.,0.));
#916=DIRECTION('center_axis',(0.,-1.,0.));
#917=DIRECTION('ref_axis',(1.,0.,0.));
#918=DIRECTION('',(-0.86602540378444,-0.499999999999998,-1.06057523872491E-16));
#919=DIRECTION('center_axis',(0.,-1.,0.));
#920=DIRECTION('ref_axis',(1.,0.,0.));
#921=DIRECTION('center_axis',(0.,-1.,0.));
#922=DIRECTION('ref_axis',(1.,0.,0.));
#923=DIRECTION('',(0.,-1.,0.));
#924=DIRECTION('center_axis',(0.,1.,0.));
#925=DIRECTION('ref_axis',(1.,0.,0.));
#926=DIRECTION('center_axis',(0.,-1.,0.));
#927=DIRECTION('ref_axis',(1.,0.,0.));
#928=DIRECTION('',(-0.86602540378444,-0.499999999999998,-1.06057523872491E-16));
#929=DIRECTION('center_axis',(0.,-1.,0.));
#930=DIRECTION('ref_axis',(1.,0.,0.));
#931=DIRECTION('center_axis',(0.,-1.,0.));
#932=DIRECTION('ref_axis',(1.,0.,0.));
#933=DIRECTION('',(0.,-1.,0.));
#934=DIRECTION('center_axis',(0.,1.,0.));
#935=DIRECTION('ref_axis',(1.,0.,0.));
#936=DIRECTION('center_axis',(0.,1.,0.));
#937=DIRECTION('ref_axis',(1.,0.,0.));
#938=DIRECTION('',(-0.86602540378444,0.499999999999998,1.06057523872491E-16));
#939=DIRECTION('center_axis',(0.,1.,0.));
#940=DIRECTION('ref_axis',(1.,0.,0.));
#941=DIRECTION('center_axis',(0.,1.,0.));
#942=DIRECTION('ref_axis',(1.,0.,0.));
#943=DIRECTION('',(0.,1.,0.));
#944=DIRECTION('center_axis',(0.,-1.,0.));
#945=DIRECTION('ref_axis',(1.,0.,0.));
#946=DIRECTION('center_axis',(0.,1.,0.));
#947=DIRECTION('ref_axis',(1.,0.,0.));
#948=DIRECTION('',(-0.86602540378444,0.499999999999998,1.06057523872491E-16));
#949=DIRECTION('center_axis',(0.,1.,0.));
#950=DIRECTION('ref_axis',(1.,0.,0.));
#951=DIRECTION('center_axis',(0.,1.,0.));
#952=DIRECTION('ref_axis',(1.,0.,0.));
#953=DIRECTION('',(0.,1.,0.));
#954=DIRECTION('center_axis',(0.,-1.,0.));
#955=DIRECTION('ref_axis',(1.,0.,0.));
#956=DIRECTION('center_axis',(0.,1.,0.));
#957=DIRECTION('ref_axis',(1.,0.,0.));
#958=DIRECTION('',(-0.86602540378444,0.499999999999998,1.06057523872491E-16));
#959=DIRECTION('center_axis',(0.,1.,0.));
#960=DIRECTION('ref_axis',(1.,0.,0.));
#961=DIRECTION('center_axis',(0.,1.,0.));
#962=DIRECTION('ref_axis',(1.,0.,0.));
#963=DIRECTION('',(0.,1.,0.));
#964=DIRECTION('center_axis',(0.,-1.,0.));
#965=DIRECTION('ref_axis',(1.,0.,0.));
#966=DIRECTION('center_axis',(0.,1.,0.));
#967=DIRECTION('ref_axis',(1.,0.,0.));
#968=DIRECTION('',(-0.86602540378444,0.499999999999998,1.06057523872491E-16));
#969=DIRECTION('center_axis',(0.,1.,0.));
#970=DIRECTION('ref_axis',(1.,0.,0.));
#971=DIRECTION('center_axis',(0.,1.,0.));
#972=DIRECTION('ref_axis',(1.,0.,0.));
#973=DIRECTION('',(0.,1.,0.));
#974=DIRECTION('center_axis',(0.,-1.,0.));
#975=DIRECTION('ref_axis',(1.,0.,0.));
#976=DIRECTION('center_axis',(0.,1.,0.));
#977=DIRECTION('ref_axis',(1.,0.,0.));
#978=DIRECTION('center_axis',(0.,1.,0.));
#979=DIRECTION('ref_axis',(1.,0.,0.));
#980=DIRECTION('center_axis',(0.,1.,0.));
#981=DIRECTION('ref_axis',(1.,0.,0.));
#982=DIRECTION('center_axis',(0.,1.,0.));
#983=DIRECTION('ref_axis',(1.,0.,0.));
#984=DIRECTION('',(0.,-1.,0.));
#985=DIRECTION('center_axis',(0.,-1.,0.));
#986=DIRECTION('ref_axis',(1.,0.,0.));
#987=DIRECTION('',(0.,1.,0.));
#988=DIRECTION('center_axis',(0.,1.,0.));
#989=DIRECTION('ref_axis',(1.,0.,0.));
#990=DIRECTION('center_axis',(0.,1.,0.));
#991=DIRECTION('ref_axis',(1.,0.,0.));
#992=DIRECTION('center_axis',(0.,1.,0.));
#993=DIRECTION('ref_axis',(1.,0.,0.));
#994=DIRECTION('center_axis',(0.,1.,0.));
#995=DIRECTION('ref_axis',(-0.707106781186547,0.,-0.707106781186548));
#996=DIRECTION('',(0.,-1.,0.));
#997=DIRECTION('center_axis',(0.,-1.,0.));
#998=DIRECTION('ref_axis',(1.,0.,0.));
#999=DIRECTION('',(0.,1.,0.));
#1000=DIRECTION('center_axis',(0.,1.,0.));
#1001=DIRECTION('ref_axis',(1.,0.,0.));
#1002=DIRECTION('center_axis',(0.,1.,0.));
#1003=DIRECTION('ref_axis',(1.,0.,0.));
#1004=DIRECTION('center_axis',(0.,1.,0.));
#1005=DIRECTION('ref_axis',(1.,0.,0.));
#1006=DIRECTION('center_axis',(0.,1.,0.));
#1007=DIRECTION('ref_axis',(-0.707106781186548,0.,0.707106781186547));
#1008=DIRECTION('',(0.,-1.,0.));
#1009=DIRECTION('center_axis',(0.,-1.,0.));
#1010=DIRECTION('ref_axis',(1.,0.,0.));
#1011=DIRECTION('',(0.,1.,0.));
#1012=DIRECTION('center_axis',(0.,1.,0.));
#1013=DIRECTION('ref_axis',(1.,0.,0.));
#1014=DIRECTION('center_axis',(0.,1.,0.));
#1015=DIRECTION('ref_axis',(1.,0.,0.));
#1016=DIRECTION('center_axis',(0.,1.,0.));
#1017=DIRECTION('ref_axis',(1.,0.,0.));
#1018=DIRECTION('center_axis',(0.,1.,0.));
#1019=DIRECTION('ref_axis',(1.,0.,0.));
#1020=DIRECTION('',(0.,-1.,0.));
#1021=DIRECTION('center_axis',(0.,-1.,0.));
#1022=DIRECTION('ref_axis',(1.,0.,0.));
#1023=DIRECTION('',(0.,1.,0.));
#1024=DIRECTION('center_axis',(0.,-1.,0.));
#1025=DIRECTION('ref_axis',(1.,0.,0.));
#1026=DIRECTION('center_axis',(0.,1.,0.));
#1027=DIRECTION('ref_axis',(1.,0.,0.));
#1028=DIRECTION('',(0.,-1.,0.));
#1029=DIRECTION('center_axis',(0.,-1.,0.));
#1030=DIRECTION('ref_axis',(1.,0.,0.));
#1031=DIRECTION('',(0.,-1.,0.));
#1032=DIRECTION('center_axis',(0.,-1.,0.));
#1033=DIRECTION('ref_axis',(1.,0.,0.));
#1034=DIRECTION('',(0.,1.,0.));
#1035=DIRECTION('center_axis',(0.,-1.,0.));
#1036=DIRECTION('ref_axis',(1.,0.,0.));
#1037=DIRECTION('',(0.,-1.,0.));
#1038=DIRECTION('center_axis',(0.,-1.,0.));
#1039=DIRECTION('ref_axis',(1.,0.,0.));
#1040=DIRECTION('',(0.,1.,0.));
#1041=DIRECTION('center_axis',(0.,-1.,0.));
#1042=DIRECTION('ref_axis',(1.,0.,0.));
#1043=DIRECTION('',(0.,-1.,0.));
#1044=DIRECTION('center_axis',(0.,-1.,0.));
#1045=DIRECTION('ref_axis',(1.,0.,0.));
#1046=DIRECTION('',(0.,1.,0.));
#1047=DIRECTION('center_axis',(0.,-1.,0.));
#1048=DIRECTION('ref_axis',(1.,0.,0.));
#1049=DIRECTION('',(0.,-1.,0.));
#1050=DIRECTION('center_axis',(0.,-1.,0.));
#1051=DIRECTION('ref_axis',(1.,0.,0.));
#1052=DIRECTION('',(0.,1.,0.));
#1053=DIRECTION('center_axis',(0.,-1.,0.));
#1054=DIRECTION('ref_axis',(1.,0.,0.));
#1055=DIRECTION('center_axis',(0.,1.,0.));
#1056=DIRECTION('ref_axis',(1.,0.,0.));
#1057=DIRECTION('center_axis',(0.,1.,0.));
#1058=DIRECTION('ref_axis',(1.,0.,0.));
#1059=DIRECTION('center_axis',(0.,1.,0.));
#1060=DIRECTION('ref_axis',(1.,0.,0.));
#1061=DIRECTION('center_axis',(0.,1.,0.));
#1062=DIRECTION('ref_axis',(1.,0.,0.));
#1063=DIRECTION('center_axis',(0.,1.,0.));
#1064=DIRECTION('ref_axis',(1.,0.,0.));
#1065=DIRECTION('center_axis',(0.,1.,0.));
#1066=DIRECTION('ref_axis',(1.,0.,0.));
#1067=DIRECTION('',(0.,1.,0.));
#1068=DIRECTION('center_axis',(0.,-1.,0.));
#1069=DIRECTION('ref_axis',(1.,0.,0.));
#1070=DIRECTION('center_axis',(0.,1.,0.));
#1071=DIRECTION('ref_axis',(1.,0.,0.));
#1072=DIRECTION('center_axis',(0.,-1.,0.));
#1073=DIRECTION('ref_axis',(1.,0.,0.));
#1074=DIRECTION('center_axis',(0.,-1.,0.));
#1075=DIRECTION('ref_axis',(1.,0.,0.));
#1076=DIRECTION('center_axis',(0.,-1.,0.));
#1077=DIRECTION('ref_axis',(1.,0.,0.));
#1078=DIRECTION('center_axis',(0.,1.,0.));
#1079=DIRECTION('ref_axis',(1.,0.,0.));
#1080=DIRECTION('center_axis',(0.,-1.,0.));
#1081=DIRECTION('ref_axis',(1.,0.,0.));
#1082=DIRECTION('center_axis',(0.,-1.,0.));
#1083=DIRECTION('ref_axis',(1.,0.,0.));
#1084=DIRECTION('center_axis',(0.,-1.,0.));
#1085=DIRECTION('ref_axis',(-1.83697019872103E-16,0.,-1.));
#1086=DIRECTION('center_axis',(0.,1.,0.));
#1087=DIRECTION('ref_axis',(1.,0.,0.));
#1088=DIRECTION('center_axis',(0.,-1.,0.));
#1089=DIRECTION('ref_axis',(1.,0.,0.));
#1090=DIRECTION('center_axis',(0.,-1.,0.));
#1091=DIRECTION('ref_axis',(1.,0.,0.));
#1092=DIRECTION('center_axis',(0.,-1.,0.));
#1093=DIRECTION('ref_axis',(-1.,0.,1.22464679914735E-16));
#1094=DIRECTION('center_axis',(0.,1.,0.));
#1095=DIRECTION('ref_axis',(1.,0.,0.));
#1096=DIRECTION('center_axis',(0.,-1.,0.));
#1097=DIRECTION('ref_axis',(1.,0.,0.));
#1098=DIRECTION('center_axis',(0.,-1.,0.));
#1099=DIRECTION('ref_axis',(1.,0.,0.));
#1100=DIRECTION('center_axis',(0.,-1.,0.));
#1101=DIRECTION('ref_axis',(6.12323399573676E-17,0.,1.));
#1102=DIRECTION('center_axis',(0.,1.,0.));
#1103=DIRECTION('ref_axis',(1.,0.,0.));
#1104=DIRECTION('center_axis',(0.,-1.,0.));
#1105=DIRECTION('ref_axis',(1.,0.,0.));
#1106=DIRECTION('center_axis',(0.,-1.,0.));
#1107=DIRECTION('ref_axis',(1.,0.,0.));
#1108=DIRECTION('center_axis',(0.,-1.,0.));
#1109=DIRECTION('ref_axis',(1.,0.,0.));
#1110=DIRECTION('',(0.,-1.,0.));
#1111=DIRECTION('center_axis',(0.,1.,0.));
#1112=DIRECTION('ref_axis',(1.,0.,0.));
#1113=DIRECTION('center_axis',(0.,1.,0.));
#1114=DIRECTION('ref_axis',(0.,0.,-1.));
#1115=DIRECTION('',(0.,1.,0.));
#1116=DIRECTION('center_axis',(0.,1.,0.));
#1117=DIRECTION('ref_axis',(0.,0.,-1.));
#1118=DIRECTION('',(0.,1.,0.));
#1119=DIRECTION('center_axis',(0.,1.,0.));
#1120=DIRECTION('ref_axis',(0.,0.,1.));
#1121=DIRECTION('center_axis',(0.,1.,0.));
#1122=DIRECTION('ref_axis',(0.,0.,1.));
#1123=DIRECTION('center_axis',(0.,1.,0.));
#1124=DIRECTION('ref_axis',(0.,0.,1.));
#1125=DIRECTION('',(0.,1.,0.));
#1126=DIRECTION('center_axis',(1.,0.,0.));
#1127=DIRECTION('ref_axis',(0.,0.,-1.));
#1128=DIRECTION('',(0.,0.,-1.));
#1129=DIRECTION('',(0.,0.,-1.));
#1130=DIRECTION('',(0.,1.,0.));
#1131=DIRECTION('center_axis',(0.,1.,0.));
#1132=DIRECTION('ref_axis',(0.,0.,-1.));
#1133=DIRECTION('center_axis',(0.,1.,0.));
#1134=DIRECTION('ref_axis',(0.,0.,-1.));
#1135=DIRECTION('',(0.,1.,0.));
#1136=DIRECTION('center_axis',(0.,1.,0.));
#1137=DIRECTION('ref_axis',(0.,0.,-1.));
#1138=DIRECTION('center_axis',(0.,1.,0.));
#1139=DIRECTION('ref_axis',(0.,0.,-1.));
#1140=DIRECTION('center_axis',(0.,1.,0.));
#1141=DIRECTION('ref_axis',(0.,0.,-1.));
#1142=DIRECTION('',(0.,1.,0.));
#1143=DIRECTION('center_axis',(-1.,0.,0.));
#1144=DIRECTION('ref_axis',(0.,0.,1.));
#1145=DIRECTION('',(0.,0.,1.));
#1146=DIRECTION('',(0.,0.,1.));
#1147=DIRECTION('center_axis',(0.,1.,0.));
#1148=DIRECTION('ref_axis',(0.,0.,1.));
#1149=DIRECTION('center_axis',(0.,1.,0.));
#1150=DIRECTION('ref_axis',(0.,0.,1.));
#1151=CARTESIAN_POINT('',(0.,0.,0.));
#1152=CARTESIAN_POINT('Origin',(-26.1629509039023,24.2089714636831,26.1629509039024));
#1153=CARTESIAN_POINT('',(-26.1629509039023,25.4179429273662,26.1629509039024));
#1154=CARTESIAN_POINT('',(-30.3509509039023,23.,26.1629509039024));
#1155=CARTESIAN_POINT('',(-28.2569509039023,24.2089714636831,26.1629509039024));
#1156=CARTESIAN_POINT('Origin',(-26.1629509039023,23.,26.1629509039024));
#1157=CARTESIAN_POINT('Origin',(-26.1629509039023,19.,26.1629509039024));
#1158=CARTESIAN_POINT('',(-30.3509509039023,15.,26.1629509039024));
#1159=CARTESIAN_POINT('',(-30.3509509039023,19.,26.1629509039024));
#1160=CARTESIAN_POINT('Origin',(-26.1629509039023,15.,26.1629509039024));
#1161=CARTESIAN_POINT('Origin',(-26.1629509039023,24.2089714636831,-26.1629509039022));
#1162=CARTESIAN_POINT('',(-26.1629509039023,25.4179429273662,-26.1629509039022));
#1163=CARTESIAN_POINT('',(-30.3509509039023,23.,-26.1629509039022));
#1164=CARTESIAN_POINT('',(-28.2569509039023,24.2089714636831,-26.1629509039022));
#1165=CARTESIAN_POINT('Origin',(-26.1629509039023,23.,-26.1629509039022));
#1166=CARTESIAN_POINT('Origin',(-26.1629509039023,19.,-26.1629509039022));
#1167=CARTESIAN_POINT('',(-30.3509509039023,15.,-26.1629509039022));
#1168=CARTESIAN_POINT('',(-30.3509509039023,19.,-26.1629509039022));
#1169=CARTESIAN_POINT('Origin',(-26.1629509039023,15.,-26.1629509039022));
#1170=CARTESIAN_POINT('Origin',(26.1629509039023,24.2089714636831,-26.1629509039022));
#1171=CARTESIAN_POINT('',(26.1629509039023,25.4179429273662,-26.1629509039022));
#1172=CARTESIAN_POINT('',(21.9749509039023,23.,-26.1629509039022));
#1173=CARTESIAN_POINT('',(24.0689509039023,24.2089714636831,-26.1629509039022));
#1174=CARTESIAN_POINT('Origin',(26.1629509039023,23.,-26.1629509039022));
#1175=CARTESIAN_POINT('Origin',(26.1629509039023,19.,-26.1629509039022));
#1176=CARTESIAN_POINT('',(21.9749509039023,15.,-26.1629509039022));
#1177=CARTESIAN_POINT('',(21.9749509039023,19.,-26.1629509039022));
#1178=CARTESIAN_POINT('Origin',(26.1629509039023,15.,-26.1629509039022));
#1179=CARTESIAN_POINT('Origin',(26.1629509039023,24.2089714636831,26.1629509039023));
#1180=CARTESIAN_POINT('',(26.1629509039023,25.4179429273662,26.1629509039023));
#1181=CARTESIAN_POINT('',(21.9749509039023,23.,26.1629509039023));
#1182=CARTESIAN_POINT('',(24.0689509039023,24.2089714636831,26.1629509039023));
#1183=CARTESIAN_POINT('Origin',(26.1629509039023,23.,26.1629509039023));
#1184=CARTESIAN_POINT('Origin',(26.1629509039023,19.,26.1629509039023));
#1185=CARTESIAN_POINT('',(21.9749509039023,15.,26.1629509039023));
#1186=CARTESIAN_POINT('',(21.9749509039023,19.,26.1629509039023));
#1187=CARTESIAN_POINT('Origin',(26.1629509039023,15.,26.1629509039023));
#1188=CARTESIAN_POINT('Origin',(-1.06581410364015E-13,325.791028536317,
-36.9999999999997));
#1189=CARTESIAN_POINT('',(-1.06581410364015E-13,324.582057072634,-36.9999999999997));
#1190=CARTESIAN_POINT('',(-4.18800000000011,327.,-36.9999999999997));
#1191=CARTESIAN_POINT('',(-2.09400000000011,325.791028536317,-36.9999999999997));
#1192=CARTESIAN_POINT('Origin',(-1.06581410364015E-13,327.,-36.9999999999997));
#1193=CARTESIAN_POINT('Origin',(-1.06581410364015E-13,331.,-36.9999999999997));
#1194=CARTESIAN_POINT('',(-4.18800000000011,335.,-36.9999999999997));
#1195=CARTESIAN_POINT('',(-4.18800000000011,331.,-36.9999999999997));
#1196=CARTESIAN_POINT('Origin',(-1.06581410364015E-13,335.,-36.9999999999997));
#1197=CARTESIAN_POINT('Origin',(-36.9999999999999,325.791028536317,9.75700056278532E-14));
#1198=CARTESIAN_POINT('',(-36.9999999999999,324.582057072634,9.75700056278532E-14));
#1199=CARTESIAN_POINT('',(-41.1879999999999,327.,9.80828877073361E-14));
#1200=CARTESIAN_POINT('',(-39.0939999999999,325.791028536317,9.78264466675947E-14));
#1201=CARTESIAN_POINT('Origin',(-36.9999999999999,327.,9.75700056278532E-14));
#1202=CARTESIAN_POINT('Origin',(-36.9999999999999,331.,9.75700056278532E-14));
#1203=CARTESIAN_POINT('',(-41.1879999999999,335.,9.80828877073361E-14));
#1204=CARTESIAN_POINT('',(-41.1879999999999,331.,9.80828877073361E-14));
#1205=CARTESIAN_POINT('Origin',(-36.9999999999999,335.,9.75700056278532E-14));
#1206=CARTESIAN_POINT('Origin',(-1.59872115546023E-13,325.791028536317,
36.9999999999999));
#1207=CARTESIAN_POINT('',(-1.59872115546023E-13,324.582057072634,36.9999999999999));
#1208=CARTESIAN_POINT('',(-4.18800000000016,327.,36.9999999999999));
#1209=CARTESIAN_POINT('',(-2.09400000000016,325.791028536317,36.9999999999999));
#1210=CARTESIAN_POINT('Origin',(-1.59872115546023E-13,327.,36.9999999999999));
#1211=CARTESIAN_POINT('Origin',(-1.59872115546023E-13,331.,36.9999999999999));
#1212=CARTESIAN_POINT('',(-4.18800000000016,335.,36.9999999999999));
#1213=CARTESIAN_POINT('',(-4.18800000000016,331.,36.9999999999999));
#1214=CARTESIAN_POINT('Origin',(-1.59872115546023E-13,335.,36.9999999999999));
#1215=CARTESIAN_POINT('Origin',(36.9999999999997,325.791028536317,1.50971733112323E-13));
#1216=CARTESIAN_POINT('',(36.9999999999997,324.582057072634,1.50971733112323E-13));
#1217=CARTESIAN_POINT('',(32.8119999999997,327.,1.51484615191806E-13));
#1218=CARTESIAN_POINT('',(34.9059999999997,325.791028536317,1.51228174152064E-13));
#1219=CARTESIAN_POINT('Origin',(36.9999999999997,327.,1.50971733112323E-13));
#1220=CARTESIAN_POINT('Origin',(36.9999999999997,331.,1.50971733112323E-13));
#1221=CARTESIAN_POINT('',(32.8119999999997,335.,1.51484615191806E-13));
#1222=CARTESIAN_POINT('',(32.8119999999997,331.,1.51484615191806E-13));
#1223=CARTESIAN_POINT('Origin',(36.9999999999997,335.,1.50971733112323E-13));
#1224=CARTESIAN_POINT('Origin',(21.2132034355964,305.,-21.2132034355964));
#1225=CARTESIAN_POINT('',(25.8119965283849,305.,-15.2885851280832));
#1226=CARTESIAN_POINT('',(15.2885851280832,305.,-25.8119965283849));
#1227=CARTESIAN_POINT('Origin',(0.,305.,0.));
#1228=CARTESIAN_POINT('Origin',(21.2132034355964,305.,-21.2132034355964));
#1229=CARTESIAN_POINT('Origin',(21.2132034355964,320.,-21.2132034355964));
#1230=CARTESIAN_POINT('',(25.8119965283849,335.,-15.2885851280832));
#1231=CARTESIAN_POINT('',(25.8119965283849,320.,-15.2885851280832));
#1232=CARTESIAN_POINT('',(15.2885851280832,335.,-25.8119965283849));
#1233=CARTESIAN_POINT('Origin',(21.2132034355964,335.,-21.2132034355964));
#1234=CARTESIAN_POINT('',(15.2885851280832,320.,-25.8119965283849));
#1235=CARTESIAN_POINT('Origin',(-21.2132034355964,305.,-21.2132034355964));
#1236=CARTESIAN_POINT('',(-15.2885851280832,305.,-25.8119965283849));
#1237=CARTESIAN_POINT('',(-25.8119965283849,305.,-15.2885851280832));
#1238=CARTESIAN_POINT('Origin',(0.,305.,0.));
#1239=CARTESIAN_POINT('Origin',(-21.2132034355964,305.,-21.2132034355964));
#1240=CARTESIAN_POINT('Origin',(-21.2132034355964,320.,-21.2132034355964));
#1241=CARTESIAN_POINT('',(-15.2885851280832,335.,-25.8119965283849));
#1242=CARTESIAN_POINT('',(-15.2885851280832,320.,-25.8119965283849));
#1243=CARTESIAN_POINT('',(-25.8119965283849,335.,-15.2885851280832));
#1244=CARTESIAN_POINT('Origin',(-21.2132034355964,335.,-21.2132034355964));
#1245=CARTESIAN_POINT('',(-25.8119965283849,320.,-15.2885851280832));
#1246=CARTESIAN_POINT('Origin',(-21.2132034355964,305.,21.2132034355964));
#1247=CARTESIAN_POINT('',(-25.8119965283849,305.,15.2885851280832));
#1248=CARTESIAN_POINT('',(-15.2885851280832,305.,25.8119965283849));
#1249=CARTESIAN_POINT('Origin',(0.,305.,0.));
#1250=CARTESIAN_POINT('Origin',(-21.2132034355964,305.,21.2132034355964));
#1251=CARTESIAN_POINT('Origin',(-21.2132034355964,320.,21.2132034355964));
#1252=CARTESIAN_POINT('',(-25.8119965283849,335.,15.2885851280832));
#1253=CARTESIAN_POINT('',(-25.8119965283849,320.,15.2885851280832));
#1254=CARTESIAN_POINT('',(-15.2885851280832,335.,25.8119965283849));
#1255=CARTESIAN_POINT('Origin',(-21.2132034355964,335.,21.2132034355964));
#1256=CARTESIAN_POINT('',(-15.2885851280832,320.,25.8119965283849));
#1257=CARTESIAN_POINT('Origin',(21.2132034355964,305.,21.2132034355964));
#1258=CARTESIAN_POINT('',(15.2885851280832,305.,25.8119965283849));
#1259=CARTESIAN_POINT('',(25.8119965283849,305.,15.2885851280832));
#1260=CARTESIAN_POINT('Origin',(0.,305.,0.));
#1261=CARTESIAN_POINT('Origin',(21.2132034355964,305.,21.2132034355964));
#1262=CARTESIAN_POINT('Origin',(21.2132034355964,320.,21.2132034355964));
#1263=CARTESIAN_POINT('',(15.2885851280832,335.,25.8119965283849));
#1264=CARTESIAN_POINT('',(15.2885851280832,320.,25.8119965283849));
#1265=CARTESIAN_POINT('',(25.8119965283849,335.,15.2885851280832));
#1266=CARTESIAN_POINT('Origin',(21.2132034355964,335.,21.2132034355964));
#1267=CARTESIAN_POINT('',(25.8119965283849,320.,15.2885851280832));
#1268=CARTESIAN_POINT('Origin',(0.,406.749295553543,0.));
#1269=CARTESIAN_POINT('',(-30.,335.,-3.67394039744206E-15));
#1270=CARTESIAN_POINT('Origin',(0.,335.,0.));
#1271=CARTESIAN_POINT('',(-30.,45.,-3.67394039744206E-15));
#1272=CARTESIAN_POINT('',(-30.,406.749295553543,-3.67394039744206E-15));
#1273=CARTESIAN_POINT('',(-29.0625,45.,-7.44117556236916));
#1274=CARTESIAN_POINT('Origin',(0.,45.,0.));
#1275=CARTESIAN_POINT('',(-29.0625,15.,-7.44117556236916));
#1276=CARTESIAN_POINT('',(-29.0625,22.5,-7.44117556236916));
#1277=CARTESIAN_POINT('',(-7.44117556236916,15.,-29.0625));
#1278=CARTESIAN_POINT('Origin',(0.,15.,0.));
#1279=CARTESIAN_POINT('',(-7.44117556236916,45.,-29.0625));
#1280=CARTESIAN_POINT('',(-7.44117556236916,22.5,-29.0625));
#1281=CARTESIAN_POINT('',(7.44117556236916,45.,-29.0625));
#1282=CARTESIAN_POINT('Origin',(0.,45.,0.));
#1283=CARTESIAN_POINT('',(7.44117556236916,15.,-29.0625));
#1284=CARTESIAN_POINT('',(7.44117556236916,22.5,-29.0625));
#1285=CARTESIAN_POINT('',(29.0625,15.,-7.44117556236916));
#1286=CARTESIAN_POINT('Origin',(0.,15.,0.));
#1287=CARTESIAN_POINT('',(29.0625,45.,-7.44117556236916));
#1288=CARTESIAN_POINT('',(29.0625,22.5,-7.44117556236916));
#1289=CARTESIAN_POINT('',(29.0625,45.,7.44117556236916));
#1290=CARTESIAN_POINT('Origin',(0.,45.,0.));
#1291=CARTESIAN_POINT('',(29.0625,15.,7.44117556236916));
#1292=CARTESIAN_POINT('',(29.0625,22.5,7.44117556236916));
#1293=CARTESIAN_POINT('',(7.44117556236916,15.,29.0625));
#1294=CARTESIAN_POINT('Origin',(0.,15.,0.));
#1295=CARTESIAN_POINT('',(7.44117556236916,45.,29.0625));
#1296=CARTESIAN_POINT('',(7.44117556236916,22.5,29.0625));
#1297=CARTESIAN_POINT('',(-7.44117556236916,45.,29.0625));
#1298=CARTESIAN_POINT('Origin',(0.,45.,0.));
#1299=CARTESIAN_POINT('',(-7.44117556236916,15.,29.0625));
#1300=CARTESIAN_POINT('',(-7.44117556236916,22.5,29.0625));
#1301=CARTESIAN_POINT('',(-29.0625,15.,7.44117556236916));
#1302=CARTESIAN_POINT('Origin',(0.,15.,0.));
#1303=CARTESIAN_POINT('',(-29.0625,45.,7.44117556236916));
#1304=CARTESIAN_POINT('',(-29.0625,22.5,7.44117556236916));
#1305=CARTESIAN_POINT('Origin',(0.,45.,0.));
#1306=CARTESIAN_POINT('Origin',(0.,335.,0.));
#1307=CARTESIAN_POINT('Origin',(0.,335.,0.));
#1308=CARTESIAN_POINT('Origin',(0.,335.,0.));
#1309=CARTESIAN_POINT('Origin',(0.,335.,0.));
#1310=CARTESIAN_POINT('Origin',(0.,342.5,0.));
#1311=CARTESIAN_POINT('',(-45.,335.,5.51091059616309E-15));
#1312=CARTESIAN_POINT('Origin',(0.,335.,0.));
#1313=CARTESIAN_POINT('',(-45.,350.,5.51091059616309E-15));
#1314=CARTESIAN_POINT('',(-45.,342.5,5.51091059616309E-15));
#1315=CARTESIAN_POINT('Origin',(0.,350.,0.));
#1316=CARTESIAN_POINT('Origin',(0.,335.,0.));
#1317=CARTESIAN_POINT('Origin',(30.,45.,0.));
#1318=CARTESIAN_POINT('Origin',(30.,45.,0.));
#1319=CARTESIAN_POINT('Origin',(30.,22.5,0.));
#1320=CARTESIAN_POINT('Origin',(30.,15.,0.));
#1321=CARTESIAN_POINT('Origin',(0.,45.,-30.));
#1322=CARTESIAN_POINT('Origin',(0.,45.,-30.));
#1323=CARTESIAN_POINT('Origin',(0.,22.5,-30.));
#1324=CARTESIAN_POINT('Origin',(0.,15.,-30.));
#1325=CARTESIAN_POINT('Origin',(-30.,45.,0.));
#1326=CARTESIAN_POINT('Origin',(-30.,45.,0.));
#1327=CARTESIAN_POINT('Origin',(-30.,22.5,0.));
#1328=CARTESIAN_POINT('Origin',(-30.,15.,0.));
#1329=CARTESIAN_POINT('Origin',(0.,45.,30.));
#1330=CARTESIAN_POINT('Origin',(0.,45.,30.));
#1331=CARTESIAN_POINT('Origin',(0.,22.5,30.));
#1332=CARTESIAN_POINT('Origin',(0.,15.,30.));
#1333=CARTESIAN_POINT('Origin',(0.,15.,0.));
#1334=CARTESIAN_POINT('',(-45.,15.,-5.51091059616309E-15));
#1335=CARTESIAN_POINT('Origin',(0.,15.,0.));
#1336=CARTESIAN_POINT('Origin',(0.,7.5,0.));
#1337=CARTESIAN_POINT('',(-45.,0.,-5.51091059616309E-15));
#1338=CARTESIAN_POINT('',(-45.,7.5,-5.51091059616309E-15));
#1339=CARTESIAN_POINT('Origin',(0.,0.,0.));
#1340=CARTESIAN_POINT('Ctrl Pts',(60.,0.,0.));
#1341=CARTESIAN_POINT('Ctrl Pts',(60.,420.,0.));
#1342=CARTESIAN_POINT('Ctrl Pts',(60.,0.,-75.));
#1343=CARTESIAN_POINT('Ctrl Pts',(60.,420.,-75.));
#1344=CARTESIAN_POINT('Ctrl Pts',(0.,0.,-75.));
#1345=CARTESIAN_POINT('Ctrl Pts',(0.,420.,-75.));
#1346=CARTESIAN_POINT('',(60.,0.,6.42939511580429E-15));
#1347=CARTESIAN_POINT('',(0.,0.,-75.));
#1348=CARTESIAN_POINT('Origin',(0.,0.,0.));
#1349=CARTESIAN_POINT('',(0.,350.,-75.));
#1350=CARTESIAN_POINT('',(0.,0.,-75.));
#1351=CARTESIAN_POINT('',(60.,350.,8.88178419700125E-15));
#1352=CARTESIAN_POINT('Origin',(0.,350.,0.));
#1353=CARTESIAN_POINT('',(60.,0.,6.42939511580429E-15));
#1354=CARTESIAN_POINT('Origin',(0.,0.,0.));
#1355=CARTESIAN_POINT('',(0.,0.,60.));
#1356=CARTESIAN_POINT('Origin',(0.,0.,0.));
#1357=CARTESIAN_POINT('',(0.,350.,60.));
#1358=CARTESIAN_POINT('Origin',(0.,350.,0.));
#1359=CARTESIAN_POINT('',(0.,0.,60.));
#1360=CARTESIAN_POINT('Origin',(0.,0.,75.));
#1361=CARTESIAN_POINT('',(0.,0.,75.));
#1362=CARTESIAN_POINT('',(0.,0.,75.));
#1363=CARTESIAN_POINT('',(0.,350.,75.));
#1364=CARTESIAN_POINT('',(0.,350.,75.));
#1365=CARTESIAN_POINT('',(0.,0.,75.));
#1366=CARTESIAN_POINT('Ctrl Pts',(-60.,0.,0.));
#1367=CARTESIAN_POINT('Ctrl Pts',(-60.,420.,0.));
#1368=CARTESIAN_POINT('Ctrl Pts',(-60.,0.,75.));
#1369=CARTESIAN_POINT('Ctrl Pts',(-60.,420.,75.));
#1370=CARTESIAN_POINT('Ctrl Pts',(0.,0.,75.));
#1371=CARTESIAN_POINT('Ctrl Pts',(0.,420.,75.));
#1372=CARTESIAN_POINT('',(-60.,0.,0.));
#1373=CARTESIAN_POINT('Origin',(0.,0.,0.));
#1374=CARTESIAN_POINT('',(-60.,350.,0.));
#1375=CARTESIAN_POINT('Origin',(0.,350.,0.));
#1376=CARTESIAN_POINT('',(-60.,0.,0.));
#1377=CARTESIAN_POINT('Origin',(0.,0.,0.));
#1378=CARTESIAN_POINT('',(0.,0.,-60.));
#1379=CARTESIAN_POINT('Origin',(0.,0.,0.));
#1380=CARTESIAN_POINT('',(0.,350.,-60.));
#1381=CARTESIAN_POINT('Origin',(0.,350.,0.));
#1382=CARTESIAN_POINT('',(0.,0.,-60.));
#1383=CARTESIAN_POINT('Origin',(0.,0.,-75.));
#1384=CARTESIAN_POINT('',(0.,0.,-75.));
#1385=CARTESIAN_POINT('',(0.,350.,-75.));
#1386=CARTESIAN_POINT('Origin',(0.,350.,0.));
#1387=CARTESIAN_POINT('Origin',(0.,0.,0.));
#1388=UNCERTAINTY_MEASURE_WITH_UNIT(LENGTH_MEASURE(0.01),#1392,
'DISTANCE_ACCURACY_VALUE',
'Maximum model space distance between geometric entities at asserted c
onnectivities');
#1389=UNCERTAINTY_MEASURE_WITH_UNIT(LENGTH_MEASURE(0.01),#1392,
'DISTANCE_ACCURACY_VALUE',
'Maximum model space distance between geometric entities at asserted c
onnectivities');
#1390=(
GEOMETRIC_REPRESENTATION_CONTEXT(3)
GLOBAL_UNCERTAINTY_ASSIGNED_CONTEXT((#1388))
GLOBAL_UNIT_ASSIGNED_CONTEXT((#1392,#1394,#1395))
REPRESENTATION_CONTEXT('','3D')
);
#1391=(
GEOMETRIC_REPRESENTATION_CONTEXT(3)
GLOBAL_UNCERTAINTY_ASSIGNED_CONTEXT((#1389))
GLOBAL_UNIT_ASSIGNED_CONTEXT((#1392,#1394,#1395))
REPRESENTATION_CONTEXT('','3D')
);
#1392=(
LENGTH_UNIT()
NAMED_UNIT(*)
SI_UNIT(.MILLI.,.METRE.)
);
#1393=(
LENGTH_UNIT()
NAMED_UNIT(*)
SI_UNIT(.CENTI.,.METRE.)
);
#1394=(
NAMED_UNIT(*)
PLANE_ANGLE_UNIT()
SI_UNIT($,.RADIAN.)
);
#1395=(
NAMED_UNIT(*)
SI_UNIT($,.STERADIAN.)
SOLID_ANGLE_UNIT()
);
#1396=SHAPE_DEFINITION_REPRESENTATION(#1397,#1398);
#1397=PRODUCT_DEFINITION_SHAPE('',$,#1400);
#1398=SHAPE_REPRESENTATION('',(#788),#1390);
#1399=PRODUCT_DEFINITION_CONTEXT('part definition',#1404,'design');
#1400=PRODUCT_DEFINITION('\X2\0414043504420430043B044C\X0\1',
'\X2\0421043F0438043D043D04350440\X0\',#1401,#1399);
#1401=PRODUCT_DEFINITION_FORMATION('',$,#1406);
#1402=PRODUCT_RELATED_PRODUCT_CATEGORY('\X2\0421043F0438043D043D04350440\X0\',
'\X2\0421043F0438043D043D04350440\X0\',(#1406));
#1403=APPLICATION_PROTOCOL_DEFINITION('international standard',
'automotive_design',2009,#1404);
#1404=APPLICATION_CONTEXT(
'Core Data for Automotive Mechanical Design Process');
#1405=PRODUCT_CONTEXT('part definition',#1404,'mechanical');
#1406=PRODUCT('\X2\0414043504420430043B044C\X0\1','\X2\0421043F0438043D043D04350440\X0\',
$,(#1405));
#1407=PRESENTATION_STYLE_ASSIGNMENT((#1409));
#1408=PRESENTATION_STYLE_ASSIGNMENT((#1410));
#1409=SURFACE_STYLE_USAGE(.BOTH.,#1415);
#1410=SURFACE_STYLE_USAGE(.BOTH.,#1416);
#1411=SURFACE_STYLE_RENDERING_WITH_PROPERTIES($,#1423,(#1413));
#1412=SURFACE_STYLE_RENDERING_WITH_PROPERTIES($,#1424,(#1414));
#1413=SURFACE_STYLE_TRANSPARENT(0.);
#1414=SURFACE_STYLE_TRANSPARENT(0.);
#1415=SURFACE_SIDE_STYLE('',(#1417,#1411));
#1416=SURFACE_SIDE_STYLE('',(#1418,#1412));
#1417=SURFACE_STYLE_FILL_AREA(#1419);
#1418=SURFACE_STYLE_FILL_AREA(#1420);
#1419=FILL_AREA_STYLE('',(#1421));
#1420=FILL_AREA_STYLE('',(#1422));
#1421=FILL_AREA_STYLE_COLOUR('',#1423);
#1422=FILL_AREA_STYLE_COLOUR('',#1424);
#1423=COLOUR_RGB('',0.749019607843137,0.749019607843137,0.749019607843137);
#1424=COLOUR_RGB('',0.745098039215686,0.737254901960784,0.729411764705882);
ENDSEC;
END-ISO-10303-21;
